SplineFontDB: 3.2
FontName: NV-Jost-Bold
FullName: NV Jost Bold
FamilyName: NV Jost
Weight: Bold
Copyright: Copyright 2020 The Jost Project Authors (https://github.com/indestructible-type/Jost)
Version: 3.710
ItalicAngle: 0
UnderlinePosition: -125
UnderlineWidth: 50
Ascent: 800
Descent: 200
InvalidEm: 0
sfntRevision: 0x0003b5c3
LayerCount: 2
Layer: 0 1 "Back" 1
Layer: 1 1 "Fore" 0
XUID: [1021 434 -963152094 9968]
StyleMap: 0x0020
FSType: 0
OS2Version: 4
OS2_WeightWidthSlopeOnly: 0
OS2_UseTypoMetrics: 1
CreationTime: 1465610489
ModificationTime: 1739041004
PfmFamily: 81
TTFWeight: 700
TTFWidth: 5
LineGap: 0
VLineGap: 0
Panose: 0 0 0 0 0 0 0 0 0 0
OS2TypoAscent: 948
OS2TypoAOffset: 0
OS2TypoDescent: -253
OS2TypoDOffset: 0
OS2TypoLinegap: 0
OS2WinAscent: 948
OS2WinAOffset: 0
OS2WinDescent: 253
OS2WinDOffset: 0
HheadAscent: 948
HheadAOffset: 0
HheadDescent: -253
HheadDOffset: 0
OS2SubXSize: 650
OS2SubYSize: 600
OS2SubXOff: 0
OS2SubYOff: 75
OS2SupXSize: 650
OS2SupYSize: 600
OS2SupXOff: 0
OS2SupYOff: 350
OS2StrikeYSize: 50
OS2StrikeYPos: 276
OS2CapHeight: 700
OS2XHeight: 460
OS2Vendor: 'it* '
OS2CodePages: 20000097.00000000
OS2UnicodeRanges: a00002ef.0000205b.00000010.00000000
Lookup: 1 0 0 "'ss01' Style Set 1 in Latin lookup 0" { "'ss01' Style Set 1 in Latin lookup 0 subtable"  } ['ss01' ('DFLT' <'dflt' > 'latn' <'dflt' > ) ]
Lookup: 1 0 0 "'tnum' Tabular Numbers lookup 1" { "'tnum' Tabular Numbers lookup 1 subtable"  } ['tnum' ('DFLT' <'dflt' > 'grek' <'dflt' > 'latn' <'dflt' > ) ]
Lookup: 258 0 0 "'kern' Horizontal Kerning in Latin lookup 0" { "'kern' Horizontal Kerning in Latin lookup 0 subtable"  } ['kern' ('DFLT' <'dflt' > 'latn' <'dflt' > ) ]
MarkAttachClasses: 1
DEI: 91125
KernClass2: 15+ 14 "'kern' Horizontal Kerning in Latin lookup 0 subtable"
 214 a agrave aacute acircumflex atilde adieresis aring amacron abreve aogonek egrave eacute ecircumflex edieresis h hcircumflex m n ntilde nacute uni0146 ncaron s uni0430 uni0432 uni0434 uni0437 uni043C uni0446 uni0449

StartChar: A
Encoding: 65 65 3
Width: 735
GlyphClass: 2
Flags: W
LayerCount: 2
Fore
SplineSet
184 135 m 1,0,-1
 554 135 l 1,1,-1
 543 264 l 1,2,-1
 196 264 l 1,3,-1
 184 135 l 1,0,-1
367 443 m 1,4,-1
 466 216 l 1,5,-1
 460 173 l 1,6,-1
 544 0 l 1,7,-1
 736 0 l 1,8,-1
 367 744 l 1,9,-1
 -1 0 l 1,10,-1
 190 0 l 1,11,-1
 277 180 l 1,12,-1
 269 217 l 1,13,-1
 367 443 l 1,4,-1
EndSplineSet
EndChar

StartChar: Agrave
Encoding: 192 192 4
Width: 735
GlyphClass: 2
Flags: W
LayerCount: 2
Fore
SplineSet
184 135 m 1,0,-1
 554 135 l 1,1,-1
 543 264 l 1,2,-1
 196 264 l 1,3,-1
 184 135 l 1,0,-1
367 443 m 1,4,-1
 466 216 l 1,5,-1
 460 173 l 1,6,-1
 544 0 l 1,7,-1
 736 0 l 1,8,-1
 367 744 l 1,9,-1
 -1 0 l 1,10,-1
 190 0 l 1,11,-1
 277 180 l 1,12,-1
 269 217 l 1,13,-1
 367 443 l 1,4,-1
206 954 m 1,14,-1
 386 804 l 1,15,-1
 472 847 l 1,16,-1
 322 1007 l 1,17,-1
 206 954 l 1,14,-1
EndSplineSet
EndChar

StartChar: Aacute
Encoding: 193 193 5
Width: 735
GlyphClass: 2
Flags: W
LayerCount: 2
Fore
SplineSet
184 135 m 1,0,-1
 554 135 l 1,1,-1
 543 264 l 1,2,-1
 196 264 l 1,3,-1
 184 135 l 1,0,-1
367 443 m 1,4,-1
 466 216 l 1,5,-1
 460 173 l 1,6,-1
 544 0 l 1,7,-1
 736 0 l 1,8,-1
 367 744 l 1,9,-1
 -1 0 l 1,10,-1
 190 0 l 1,11,-1
 277 180 l 1,12,-1
 269 217 l 1,13,-1
 367 443 l 1,4,-1
525 954 m 1,14,-1
 410 1007 l 1,15,-1
 260 847 l 1,16,-1
 345 804 l 1,17,-1
 525 954 l 1,14,-1
EndSplineSet
EndChar

StartChar: Acircumflex
Encoding: 194 194 6
Width: 735
GlyphClass: 2
Flags: W
LayerCount: 2
Fore
SplineSet
184 135 m 1,0,-1
 554 135 l 1,1,-1
 543 264 l 1,2,-1
 196 264 l 1,3,-1
 184 135 l 1,0,-1
367 443 m 1,4,-1
 466 216 l 1,5,-1
 460 173 l 1,6,-1
 544 0 l 1,7,-1
 736 0 l 1,8,-1
 367 744 l 1,9,-1
 -1 0 l 1,10,-1
 190 0 l 1,11,-1
 277 180 l 1,12,-1
 269 217 l 1,13,-1
 367 443 l 1,4,-1
367 875 m 1,14,-1
 459 789 l 1,15,-1
 565 860 l 1,16,-1
 367 1000 l 1,17,-1
 170 860 l 1,18,-1
 276 789 l 1,19,-1
 367 875 l 1,14,-1
EndSplineSet
EndChar

StartChar: Atilde
Encoding: 195 195 7
Width: 735
GlyphClass: 2
Flags: W
LayerCount: 2
Fore
SplineSet
184 135 m 1,0,-1
 554 135 l 1,1,-1
 543 264 l 1,2,-1
 196 264 l 1,3,-1
 184 135 l 1,0,-1
367 443 m 1,4,-1
 466 216 l 1,5,-1
 460 173 l 1,6,-1
 544 0 l 1,7,-1
 736 0 l 1,8,-1
 367 744 l 1,9,-1
 -1 0 l 1,10,-1
 190 0 l 1,11,-1
 277 180 l 1,12,-1
 269 217 l 1,13,-1
 367 443 l 1,4,-1
171 862 m 1,14,-1
 243 800 l 1,15,16
 243 808 243 808 246.5 820 c 128,-1,17
 250 832 250 832 260.5 841.5 c 128,-1,18
 271 851 271 851 290 851 c 0,19,20
 315 851 315 851 336 838 c 128,-1,21
 357 825 357 825 379.5 811.5 c 128,-1,22
 402 798 402 798 429 798 c 0,23,24
 461 798 461 798 488.5 811.5 c 128,-1,25
 516 825 516 825 535.5 845.5 c 128,-1,26
 555 866 555 866 563 884 c 1,27,-1
 492 958 l 1,28,29
 477 934 477 934 461.5 919.5 c 128,-1,30
 446 905 446 905 427 905 c 0,31,32
 406 905 406 905 391 913 c 128,-1,33
 376 921 376 921 362.5 931 c 128,-1,34
 349 941 349 941 332 949 c 128,-1,35
 315 957 315 957 291 957 c 0,36,37
 259 957 259 957 233.5 943.5 c 128,-1,38
 208 930 208 930 192 908.5 c 128,-1,39
 176 887 176 887 171 862 c 1,14,-1
EndSplineSet
EndChar

StartChar: Adieresis
Encoding: 196 196 8
Width: 735
GlyphClass: 2
Flags: W
LayerCount: 2
Fore
SplineSet
184 135 m 1,0,-1
 554 135 l 1,1,-1
 543 264 l 1,2,-1
 196 264 l 1,3,-1
 184 135 l 1,0,-1
367 443 m 1,4,-1
 466 216 l 1,5,-1
 460 173 l 1,6,-1
 544 0 l 1,7,-1
 736 0 l 1,8,-1
 367 744 l 1,9,-1
 -1 0 l 1,10,-1
 190 0 l 1,11,-1
 277 180 l 1,12,-1
 269 217 l 1,13,-1
 367 443 l 1,4,-1
420 830 m 256,14,15
 420 794 420 794 445.5 771 c 128,-1,16
 471 748 471 748 508 748 c 0,17,18
 544 748 544 748 570 771 c 128,-1,19
 596 794 596 794 596 830 c 256,20,21
 596 866 596 866 570 889 c 128,-1,22
 544 912 544 912 508 912 c 0,23,24
 471 912 471 912 445.5 889 c 128,-1,25
 420 866 420 866 420 830 c 256,14,15
133 836 m 0,26,27
 133 801 133 801 158.5 778 c 128,-1,28
 184 755 184 755 221 755 c 0,29,30
 257 755 257 755 283 778 c 128,-1,31
 309 801 309 801 309 836 c 0,32,33
 309 872 309 872 283 895 c 128,-1,34
 257 918 257 918 221 918 c 0,35,36
 184 918 184 918 158.5 895 c 128,-1,37
 133 872 133 872 133 836 c 0,26,27
EndSplineSet
EndChar

StartChar: Aring
Encoding: 197 197 9
Width: 735
GlyphClass: 2
Flags: W
LayerCount: 2
Fore
SplineSet
184 135 m 1,0,-1
 554 135 l 1,1,-1
 543 264 l 1,2,-1
 196 264 l 1,3,-1
 184 135 l 1,0,-1
367 443 m 1,4,-1
 466 216 l 1,5,-1
 460 173 l 1,6,-1
 544 0 l 1,7,-1
 736 0 l 1,8,-1
 367 744 l 1,9,-1
 -1 0 l 1,10,-1
 190 0 l 1,11,-1
 277 180 l 1,12,-1
 269 217 l 1,13,-1
 367 443 l 1,4,-1
242 800 m 0,14,15
 242 749 242 749 278.5 717 c 128,-1,16
 315 685 315 685 367 685 c 256,17,18
 419 685 419 685 455.5 717 c 128,-1,19
 492 749 492 749 492 800 c 0,20,21
 492 852 492 852 455.5 884 c 128,-1,22
 419 916 419 916 367 916 c 256,23,24
 315 916 315 916 278.5 884 c 128,-1,25
 242 852 242 852 242 800 c 0,14,15
321 800 m 0,26,27
 321 823 321 823 334.5 836 c 128,-1,28
 348 849 348 849 367 849 c 256,29,30
 386 849 386 849 399.5 836 c 128,-1,31
 413 823 413 823 413 800 c 0,32,33
 413 778 413 778 399.5 765.5 c 128,-1,34
 386 753 386 753 367 753 c 256,35,36
 348 753 348 753 334.5 765.5 c 128,-1,37
 321 778 321 778 321 800 c 0,26,27
EndSplineSet
EndChar

StartChar: Amacron
Encoding: 256 256 10
Width: 735
GlyphClass: 2
Flags: W
LayerCount: 2
Fore
SplineSet
184 135 m 1,0,-1
 554 135 l 1,1,-1
 543 264 l 1,2,-1
 196 264 l 1,3,-1
 184 135 l 1,0,-1
367 443 m 1,4,-1
 466 216 l 1,5,-1
 460 173 l 1,6,-1
 544 0 l 1,7,-1
 736 0 l 1,8,-1
 367 744 l 1,9,-1
 -1 0 l 1,10,-1
 190 0 l 1,11,-1
 277 180 l 1,12,-1
 269 217 l 1,13,-1
 367 443 l 1,4,-1
182 804 m 1,14,-1
 553 804 l 1,15,-1
 553 935 l 1,16,-1
 182 935 l 1,17,-1
 182 804 l 1,14,-1
EndSplineSet
EndChar

StartChar: Abreve
Encoding: 258 258 11
Width: 735
GlyphClass: 2
Flags: W
LayerCount: 2
Fore
SplineSet
184 135 m 1,0,-1
 554 135 l 1,1,-1
 543 264 l 1,2,-1
 196 264 l 1,3,-1
 184 135 l 1,0,-1
367 443 m 1,4,-1
 466 216 l 1,5,-1
 460 173 l 1,6,-1
 544 0 l 1,7,-1
 736 0 l 1,8,-1
 367 744 l 1,9,-1
 -1 0 l 1,10,-1
 190 0 l 1,11,-1
 277 180 l 1,12,-1
 269 217 l 1,13,-1
 367 443 l 1,4,-1
203 951 m 1,14,15
 203 910 203 910 222 876.5 c 128,-1,16
 241 843 241 843 278 823.5 c 128,-1,17
 315 804 315 804 367 804 c 0,18,19
 420 804 420 804 456.5 823.5 c 128,-1,20
 493 843 493 843 512 876.5 c 128,-1,21
 531 910 531 910 531 951 c 1,22,-1
 433 951 l 1,23,24
 433 933 433 933 424.5 919.5 c 128,-1,25
 416 906 416 906 401.5 898.5 c 128,-1,26
 387 891 387 891 367 891 c 0,27,28
 348 891 348 891 333.5 898.5 c 128,-1,29
 319 906 319 906 310.5 919.5 c 128,-1,30
 302 933 302 933 302 951 c 1,31,-1
 203 951 l 1,14,15
EndSplineSet
EndChar

StartChar: Aogonek
Encoding: 260 260 12
Width: 735
GlyphClass: 2
Flags: W
LayerCount: 2
Fore
SplineSet
184 135 m 1,0,-1
 554 135 l 1,1,-1
 543 264 l 1,2,-1
 196 264 l 1,3,-1
 184 135 l 1,0,-1
367 443 m 1,4,-1
 466 216 l 1,5,-1
 460 173 l 1,6,-1
 544 0 l 1,7,-1
 736 0 l 1,8,-1
 367 744 l 1,9,-1
 -1 0 l 1,10,-1
 190 0 l 1,11,-1
 277 180 l 1,12,-1
 269 217 l 1,13,-1
 367 443 l 1,4,-1
691 -111 m 1,14,15
 681 -121 681 -121 668.5 -126 c 128,-1,16
 656 -131 656 -131 641 -131 c 0,17,18
 623 -131 623 -131 614 -121.5 c 128,-1,19
 605 -112 605 -112 605 -94 c 0,20,21
 605 -78 605 -78 614.5 -62 c 128,-1,22
 624 -46 624 -46 642 -30 c 128,-1,23
 660 -14 660 -14 686 0 c 1,24,-1
 645 25 l 1,25,26
 610 7 610 7 578.5 -14.5 c 128,-1,27
 547 -36 547 -36 527 -61.5 c 128,-1,28
 507 -87 507 -87 507 -120 c 0,29,30
 507 -152 507 -152 522.5 -174.5 c 128,-1,31
 538 -197 538 -197 564.5 -208.5 c 128,-1,32
 591 -220 591 -220 624 -220 c 0,33,34
 665 -220 665 -220 689 -207.5 c 128,-1,35
 713 -195 713 -195 724 -180 c 1,36,-1
 691 -111 l 1,14,15
EndSplineSet
EndChar

StartChar: B
Encoding: 66 66 13
Width: 664
GlyphClass: 2
Flags: W
LayerCount: 2
Fore
SplineSet
200 348 m 1,0,-1
 331 348 l 2,1,2
 404 348 404 348 459.5 368.5 c 128,-1,3
 515 389 515 389 547.5 428 c 128,-1,4
 580 467 580 467 580 522 c 0,5,6
 580 582 580 582 547.5 621.5 c 128,-1,7
 515 661 515 661 459.5 680.5 c 128,-1,8
 404 700 404 700 331 700 c 2,9,-1
 74 700 l 1,10,-1
 74 0 l 1,11,-1
 348 0 l 2,12,13
 431 0 431 0 492 20.5 c 128,-1,14
 553 41 553 41 586.5 84 c 128,-1,15
 620 127 620 127 620 197 c 0,16,17
 620 250 620 250 596.5 287.5 c 128,-1,18
 573 325 573 325 534 349.5 c 128,-1,19
 495 374 495 374 447 385 c 128,-1,20
 399 396 399 396 348 396 c 2,21,-1
 200 396 l 1,22,-1
 200 304 l 1,23,-1
 329 304 l 2,24,25
 354 304 354 304 374.5 299.5 c 128,-1,26
 395 295 395 295 411 285 c 128,-1,27
 427 275 427 275 436 259 c 128,-1,28
 445 243 445 243 445 221 c 0,29,30
 445 187 445 187 429.5 167.5 c 128,-1,31
 414 148 414 148 388 139.5 c 128,-1,32
 362 131 362 131 329 131 c 2,33,-1
 243 131 l 1,34,-1
 243 569 l 1,35,-1
 313 569 l 2,36,37
 356 569 356 569 380.5 551 c 128,-1,38
 405 533 405 533 405 497 c 0,39,40
 405 473 405 473 394 456.5 c 128,-1,41
 383 440 383 440 362.5 431 c 128,-1,42
 342 422 342 422 313 422 c 2,43,-1
 200 422 l 1,44,-1
 200 348 l 1,0,-1
EndSplineSet
EndChar

StartChar: C
Encoding: 67 67 14
Width: 701
GlyphClass: 2
Flags: W
LayerCount: 2
Fore
SplineSet
218 350 m 0,0,1
 218 415 218 415 247 461 c 128,-1,2
 276 507 276 507 323.5 531 c 128,-1,3
 371 555 371 555 428 555 c 0,4,5
 478 555 478 555 516 542.5 c 128,-1,6
 554 530 554 530 584 508.5 c 128,-1,7
 614 487 614 487 637 463 c 1,8,-1
 637 645 l 1,9,10
 595 678 595 678 545 697 c 128,-1,11
 495 716 495 716 418 716 c 0,12,13
 334 716 334 716 263 690 c 128,-1,14
 192 664 192 664 141 615 c 128,-1,15
 90 566 90 566 62 499 c 128,-1,16
 34 432 34 432 34 350 c 256,17,18
 34 268 34 268 62 201 c 128,-1,19
 90 134 90 134 141 85 c 128,-1,20
 192 36 192 36 263 10 c 128,-1,21
 334 -16 334 -16 418 -16 c 0,22,23
 495 -16 495 -16 545 3 c 128,-1,24
 595 22 595 22 637 55 c 1,25,-1
 637 237 l 1,26,27
 614 213 614 213 584 192 c 128,-1,28
 554 171 554 171 516 158 c 128,-1,29
 478 145 478 145 428 145 c 0,30,31
 371 145 371 145 323.5 169 c 128,-1,32
 276 193 276 193 247 239.5 c 128,-1,33
 218 286 218 286 218 350 c 0,0,1
EndSplineSet
EndChar

StartChar: Ccedilla
Encoding: 199 199 15
Width: 701
GlyphClass: 2
Flags: W
LayerCount: 2
Fore
SplineSet
218 350 m 0,0,1
 218 415 218 415 247 461 c 128,-1,2
 276 507 276 507 323.5 531 c 128,-1,3
 371 555 371 555 428 555 c 0,4,5
 478 555 478 555 516 542.5 c 128,-1,6
 554 530 554 530 584 508.5 c 128,-1,7
 614 487 614 487 637 463 c 1,8,-1
 637 645 l 1,9,10
 595 678 595 678 545 697 c 128,-1,11
 495 716 495 716 418 716 c 0,12,13
 334 716 334 716 263 690 c 128,-1,14
 192 664 192 664 141 615 c 128,-1,15
 90 566 90 566 62 499 c 128,-1,16
 34 432 34 432 34 350 c 256,17,18
 34 268 34 268 62 201 c 128,-1,19
 90 134 90 134 141 85 c 128,-1,20
 192 36 192 36 263 10 c 128,-1,21
 334 -16 334 -16 418 -16 c 0,22,23
 495 -16 495 -16 545 3 c 128,-1,24
 595 22 595 22 637 55 c 1,25,-1
 637 237 l 1,26,27
 614 213 614 213 584 192 c 128,-1,28
 554 171 554 171 516 158 c 128,-1,29
 478 145 478 145 428 145 c 0,30,31
 371 145 371 145 323.5 169 c 128,-1,32
 276 193 276 193 247 239.5 c 128,-1,33
 218 286 218 286 218 350 c 0,0,1
358 48 m 1,34,-1
 270 -146 l 1,35,36
 296 -135 296 -135 321 -132.5 c 128,-1,37
 346 -130 346 -130 353 -130 c 0,38,39
 376 -130 376 -130 394.5 -136.5 c 128,-1,40
 413 -143 413 -143 413 -162 c 0,41,42
 413 -180 413 -180 399 -188.5 c 128,-1,43
 385 -197 385 -197 359 -197 c 0,44,45
 344 -197 344 -197 321.5 -191.5 c 128,-1,46
 299 -186 299 -186 280 -172 c 1,47,-1
 235 -241 l 1,48,49
 270 -263 270 -263 303.5 -271.5 c 128,-1,50
 337 -280 337 -280 379 -280 c 0,51,52
 410 -280 410 -280 440 -268 c 128,-1,53
 470 -256 470 -256 490 -231.5 c 128,-1,54
 510 -207 510 -207 510 -171 c 0,55,56
 510 -138 510 -138 495.5 -116.5 c 128,-1,57
 481 -95 481 -95 459.5 -84.5 c 128,-1,58
 438 -74 438 -74 418 -74 c 0,59,60
 408 -74 408 -74 399 -74.5 c 128,-1,61
 390 -75 390 -75 382 -77 c 1,62,-1
 468 45 l 1,63,-1
 358 48 l 1,34,-1
EndSplineSet
EndChar

StartChar: Cacute
Encoding: 262 262 16
Width: 701
GlyphClass: 2
Flags: W
LayerCount: 2
Fore
SplineSet
218 350 m 0,0,1
 218 415 218 415 247 461 c 128,-1,2
 276 507 276 507 323.5 531 c 128,-1,3
 371 555 371 555 428 555 c 0,4,5
 478 555 478 555 516 542.5 c 128,-1,6
 554 530 554 530 584 508.5 c 128,-1,7
 614 487 614 487 637 463 c 1,8,-1
 637 645 l 1,9,10
 595 678 595 678 545 697 c 128,-1,11
 495 716 495 716 418 716 c 0,12,13
 334 716 334 716 263 690 c 128,-1,14
 192 664 192 664 141 615 c 128,-1,15
 90 566 90 566 62 499 c 128,-1,16
 34 432 34 432 34 350 c 256,17,18
 34 268 34 268 62 201 c 128,-1,19
 90 134 90 134 141 85 c 128,-1,20
 192 36 192 36 263 10 c 128,-1,21
 334 -16 334 -16 418 -16 c 0,22,23
 495 -16 495 -16 545 3 c 128,-1,24
 595 22 595 22 637 55 c 1,25,-1
 637 237 l 1,26,27
 614 213 614 213 584 192 c 128,-1,28
 554 171 554 171 516 158 c 128,-1,29
 478 145 478 145 428 145 c 0,30,31
 371 145 371 145 323.5 169 c 128,-1,32
 276 193 276 193 247 239.5 c 128,-1,33
 218 286 218 286 218 350 c 0,0,1
548 926 m 1,34,-1
 433 979 l 1,35,-1
 283 819 l 1,36,-1
 368 776 l 1,37,-1
 548 926 l 1,34,-1
EndSplineSet
EndChar

StartChar: Ccircumflex
Encoding: 264 264 17
Width: 701
GlyphClass: 2
Flags: W
LayerCount: 2
Fore
SplineSet
218 350 m 0,0,1
 218 415 218 415 247 461 c 128,-1,2
 276 507 276 507 323.5 531 c 128,-1,3
 371 555 371 555 428 555 c 0,4,5
 478 555 478 555 516 542.5 c 128,-1,6
 554 530 554 530 584 508.5 c 128,-1,7
 614 487 614 487 637 463 c 1,8,-1
 637 645 l 1,9,10
 595 678 595 678 545 697 c 128,-1,11
 495 716 495 716 418 716 c 0,12,13
 334 716 334 716 263 690 c 128,-1,14
 192 664 192 664 141 615 c 128,-1,15
 90 566 90 566 62 499 c 128,-1,16
 34 432 34 432 34 350 c 256,17,18
 34 268 34 268 62 201 c 128,-1,19
 90 134 90 134 141 85 c 128,-1,20
 192 36 192 36 263 10 c 128,-1,21
 334 -16 334 -16 418 -16 c 0,22,23
 495 -16 495 -16 545 3 c 128,-1,24
 595 22 595 22 637 55 c 1,25,-1
 637 237 l 1,26,27
 614 213 614 213 584 192 c 128,-1,28
 554 171 554 171 516 158 c 128,-1,29
 478 145 478 145 428 145 c 0,30,31
 371 145 371 145 323.5 169 c 128,-1,32
 276 193 276 193 247 239.5 c 128,-1,33
 218 286 218 286 218 350 c 0,0,1
418 862 m 1,34,-1
 509 776 l 1,35,-1
 615 847 l 1,36,-1
 418 987 l 1,37,-1
 221 847 l 1,38,-1
 327 776 l 1,39,-1
 418 862 l 1,34,-1
EndSplineSet
EndChar

StartChar: Cdotaccent
Encoding: 266 266 18
Width: 701
GlyphClass: 2
Flags: W
LayerCount: 2
Fore
SplineSet
218 350 m 0,0,1
 218 415 218 415 247 461 c 128,-1,2
 276 507 276 507 323.5 531 c 128,-1,3
 371 555 371 555 428 555 c 0,4,5
 478 555 478 555 516 542.5 c 128,-1,6
 554 530 554 530 584 508.5 c 128,-1,7
 614 487 614 487 637 463 c 1,8,-1
 637 645 l 1,9,10
 595 678 595 678 545 697 c 128,-1,11
 495 716 495 716 418 716 c 0,12,13
 334 716 334 716 263 690 c 128,-1,14
 192 664 192 664 141 615 c 128,-1,15
 90 566 90 566 62 499 c 128,-1,16
 34 432 34 432 34 350 c 256,17,18
 34 268 34 268 62 201 c 128,-1,19
 90 134 90 134 141 85 c 128,-1,20
 192 36 192 36 263 10 c 128,-1,21
 334 -16 334 -16 418 -16 c 0,22,23
 495 -16 495 -16 545 3 c 128,-1,24
 595 22 595 22 637 55 c 1,25,-1
 637 237 l 1,26,27
 614 213 614 213 584 192 c 128,-1,28
 554 171 554 171 516 158 c 128,-1,29
 478 145 478 145 428 145 c 0,30,31
 371 145 371 145 323.5 169 c 128,-1,32
 276 193 276 193 247 239.5 c 128,-1,33
 218 286 218 286 218 350 c 0,0,1
305 858 m 256,34,35
 305 822 305 822 331 799 c 128,-1,36
 357 776 357 776 393 776 c 0,37,38
 430 776 430 776 455.5 799 c 128,-1,39
 481 822 481 822 481 858 c 256,40,41
 481 894 481 894 455.5 917 c 128,-1,42
 430 940 430 940 393 940 c 0,43,44
 357 940 357 940 331 917 c 128,-1,45
 305 894 305 894 305 858 c 256,34,35
EndSplineSet
EndChar

StartChar: Ccaron
Encoding: 268 268 19
Width: 701
GlyphClass: 2
Flags: W
LayerCount: 2
Fore
SplineSet
218 350 m 0,0,1
 218 415 218 415 247 461 c 128,-1,2
 276 507 276 507 323.5 531 c 128,-1,3
 371 555 371 555 428 555 c 0,4,5
 478 555 478 555 516 542.5 c 128,-1,6
 554 530 554 530 584 508.5 c 128,-1,7
 614 487 614 487 637 463 c 1,8,-1
 637 645 l 1,9,10
 595 678 595 678 545 697 c 128,-1,11
 495 716 495 716 418 716 c 0,12,13
 334 716 334 716 263 690 c 128,-1,14
 192 664 192 664 141 615 c 128,-1,15
 90 566 90 566 62 499 c 128,-1,16
 34 432 34 432 34 350 c 256,17,18
 34 268 34 268 62 201 c 128,-1,19
 90 134 90 134 141 85 c 128,-1,20
 192 36 192 36 263 10 c 128,-1,21
 334 -16 334 -16 418 -16 c 0,22,23
 495 -16 495 -16 545 3 c 128,-1,24
 595 22 595 22 637 55 c 1,25,-1
 637 237 l 1,26,27
 614 213 614 213 584 192 c 128,-1,28
 554 171 554 171 516 158 c 128,-1,29
 478 145 478 145 428 145 c 0,30,31
 371 145 371 145 323.5 169 c 128,-1,32
 276 193 276 193 247 239.5 c 128,-1,33
 218 286 218 286 218 350 c 0,0,1
418 902 m 1,34,-1
 327 987 l 1,35,-1
 221 916 l 1,36,-1
 418 776 l 1,37,-1
 615 916 l 1,38,-1
 509 987 l 1,39,-1
 418 902 l 1,34,-1
EndSplineSet
EndChar

StartChar: D
Encoding: 68 68 20
Width: 733
GlyphClass: 2
Flags: W
LayerCount: 2
Fore
SplineSet
74 700 m 1,0,-1
 74 0 l 1,1,-1
 248 0 l 1,2,-1
 248 700 l 1,3,-1
 74 700 l 1,0,-1
324 0 m 2,4,5
 439 0 439 0 523 43 c 128,-1,6
 607 86 607 86 653 164.5 c 128,-1,7
 699 243 699 243 699 350 c 0,8,9
 699 458 699 458 653 536 c 128,-1,10
 607 614 607 614 523 657 c 128,-1,11
 439 700 439 700 324 700 c 2,12,-1
 186 700 l 1,13,-1
 186 550 l 1,14,-1
 318 550 l 2,15,16
 358 550 358 550 395.5 540 c 128,-1,17
 433 530 433 530 461.5 507 c 128,-1,18
 490 484 490 484 507 445.5 c 128,-1,19
 524 407 524 407 524 350 c 256,20,21
 524 293 524 293 507 254.5 c 128,-1,22
 490 216 490 216 461.5 193 c 128,-1,23
 433 170 433 170 395.5 160 c 128,-1,24
 358 150 358 150 318 150 c 2,25,-1
 186 150 l 1,26,-1
 186 0 l 1,27,-1
 324 0 l 2,4,5
EndSplineSet
EndChar

StartChar: Dcaron
Encoding: 270 270 21
Width: 733
GlyphClass: 2
Flags: W
LayerCount: 2
Fore
SplineSet
74 700 m 1,0,-1
 74 0 l 1,1,-1
 248 0 l 1,2,-1
 248 700 l 1,3,-1
 74 700 l 1,0,-1
324 0 m 2,4,5
 439 0 439 0 523 43 c 128,-1,6
 607 86 607 86 653 164.5 c 128,-1,7
 699 243 699 243 699 350 c 0,8,9
 699 458 699 458 653 536 c 128,-1,10
 607 614 607 614 523 657 c 128,-1,11
 439 700 439 700 324 700 c 2,12,-1
 186 700 l 1,13,-1
 186 550 l 1,14,-1
 318 550 l 2,15,16
 358 550 358 550 395.5 540 c 128,-1,17
 433 530 433 530 461.5 507 c 128,-1,18
 490 484 490 484 507 445.5 c 128,-1,19
 524 407 524 407 524 350 c 256,20,21
 524 293 524 293 507 254.5 c 128,-1,22
 490 216 490 216 461.5 193 c 128,-1,23
 433 170 433 170 395.5 160 c 128,-1,24
 358 150 358 150 318 150 c 2,25,-1
 186 150 l 1,26,-1
 186 0 l 1,27,-1
 324 0 l 2,4,5
375 902 m 1,28,-1
 284 987 l 1,29,-1
 178 916 l 1,30,-1
 375 776 l 1,31,-1
 573 916 l 1,32,-1
 467 987 l 1,33,-1
 375 902 l 1,28,-1
EndSplineSet
EndChar

StartChar: E
Encoding: 69 69 22
Width: 603
GlyphClass: 2
Flags: W
LayerCount: 2
Fore
SplineSet
186 0 m 1,0,-1
 539 0 l 1,1,-1
 539 139 l 1,2,-1
 186 139 l 1,3,-1
 186 0 l 1,0,-1
186 561 m 1,4,-1
 539 561 l 1,5,-1
 539 700 l 1,6,-1
 186 700 l 1,7,-1
 186 561 l 1,4,-1
186 300 m 1,8,-1
 519 300 l 1,9,-1
 519 436 l 1,10,-1
 186 436 l 1,11,-1
 186 300 l 1,8,-1
74 700 m 1,12,-1
 74 0 l 1,13,-1
 236 0 l 1,14,-1
 236 700 l 1,15,-1
 74 700 l 1,12,-1
EndSplineSet
EndChar

StartChar: Egrave
Encoding: 200 200 23
Width: 603
GlyphClass: 2
Flags: W
LayerCount: 2
Fore
SplineSet
186 0 m 1,0,-1
 539 0 l 1,1,-1
 539 139 l 1,2,-1
 186 139 l 1,3,-1
 186 0 l 1,0,-1
186 561 m 1,4,-1
 539 561 l 1,5,-1
 539 700 l 1,6,-1
 186 700 l 1,7,-1
 186 561 l 1,4,-1
186 300 m 1,8,-1
 519 300 l 1,9,-1
 519 436 l 1,10,-1
 186 436 l 1,11,-1
 186 300 l 1,8,-1
74 700 m 1,12,-1
 74 0 l 1,13,-1
 236 0 l 1,14,-1
 236 700 l 1,15,-1
 74 700 l 1,12,-1
145 932 m 1,16,-1
 325 782 l 1,17,-1
 410 825 l 1,18,-1
 260 985 l 1,19,-1
 145 932 l 1,16,-1
EndSplineSet
EndChar

StartChar: Eacute
Encoding: 201 201 24
Width: 603
GlyphClass: 2
Flags: W
LayerCount: 2
Fore
SplineSet
186 0 m 1,0,-1
 539 0 l 1,1,-1
 539 139 l 1,2,-1
 186 139 l 1,3,-1
 186 0 l 1,0,-1
186 561 m 1,4,-1
 539 561 l 1,5,-1
 539 700 l 1,6,-1
 186 700 l 1,7,-1
 186 561 l 1,4,-1
186 300 m 1,8,-1
 519 300 l 1,9,-1
 519 436 l 1,10,-1
 186 436 l 1,11,-1
 186 300 l 1,8,-1
74 700 m 1,12,-1
 74 0 l 1,13,-1
 236 0 l 1,14,-1
 236 700 l 1,15,-1
 74 700 l 1,12,-1
465 932 m 1,16,-1
 349 985 l 1,17,-1
 199 825 l 1,18,-1
 285 782 l 1,19,-1
 465 932 l 1,16,-1
EndSplineSet
EndChar

StartChar: Ecircumflex
Encoding: 202 202 25
Width: 603
GlyphClass: 2
Flags: W
LayerCount: 2
Fore
SplineSet
186 0 m 1,0,-1
 539 0 l 1,1,-1
 539 139 l 1,2,-1
 186 139 l 1,3,-1
 186 0 l 1,0,-1
186 561 m 1,4,-1
 539 561 l 1,5,-1
 539 700 l 1,6,-1
 186 700 l 1,7,-1
 186 561 l 1,4,-1
186 300 m 1,8,-1
 519 300 l 1,9,-1
 519 436 l 1,10,-1
 186 436 l 1,11,-1
 186 300 l 1,8,-1
74 700 m 1,12,-1
 74 0 l 1,13,-1
 236 0 l 1,14,-1
 236 700 l 1,15,-1
 74 700 l 1,12,-1
310 862 m 1,16,-1
 401 776 l 1,17,-1
 507 847 l 1,18,-1
 310 987 l 1,19,-1
 113 847 l 1,20,-1
 219 776 l 1,21,-1
 310 862 l 1,16,-1
EndSplineSet
EndChar

StartChar: Edieresis
Encoding: 203 203 26
Width: 603
GlyphClass: 2
Flags: W
LayerCount: 2
Fore
SplineSet
186 0 m 1,0,-1
 539 0 l 1,1,-1
 539 139 l 1,2,-1
 186 139 l 1,3,-1
 186 0 l 1,0,-1
186 561 m 1,4,-1
 539 561 l 1,5,-1
 539 700 l 1,6,-1
 186 700 l 1,7,-1
 186 561 l 1,4,-1
186 300 m 1,8,-1
 519 300 l 1,9,-1
 519 436 l 1,10,-1
 186 436 l 1,11,-1
 186 300 l 1,8,-1
74 700 m 1,12,-1
 74 0 l 1,13,-1
 236 0 l 1,14,-1
 236 700 l 1,15,-1
 74 700 l 1,12,-1
344 866 m 256,16,17
 344 830 344 830 370 807 c 128,-1,18
 396 784 396 784 432 784 c 0,19,20
 469 784 469 784 494.5 807 c 128,-1,21
 520 830 520 830 520 866 c 256,22,23
 520 902 520 902 494.5 924.5 c 128,-1,24
 469 947 469 947 432 947 c 0,25,26
 396 947 396 947 370 924.5 c 128,-1,27
 344 902 344 902 344 866 c 256,16,17
101 866 m 256,28,29
 101 830 101 830 126.5 807 c 128,-1,30
 152 784 152 784 189 784 c 0,31,32
 225 784 225 784 251 807 c 128,-1,33
 277 830 277 830 277 866 c 256,34,35
 277 902 277 902 251 924.5 c 128,-1,36
 225 947 225 947 189 947 c 0,37,38
 152 947 152 947 126.5 924.5 c 128,-1,39
 101 902 101 902 101 866 c 256,28,29
EndSplineSet
EndChar

StartChar: Emacron
Encoding: 274 274 27
Width: 603
GlyphClass: 2
Flags: W
LayerCount: 2
Fore
SplineSet
186 0 m 1,0,-1
 539 0 l 1,1,-1
 539 139 l 1,2,-1
 186 139 l 1,3,-1
 186 0 l 1,0,-1
186 561 m 1,4,-1
 539 561 l 1,5,-1
 539 700 l 1,6,-1
 186 700 l 1,7,-1
 186 561 l 1,4,-1
186 300 m 1,8,-1
 519 300 l 1,9,-1
 519 436 l 1,10,-1
 186 436 l 1,11,-1
 186 300 l 1,8,-1
74 700 m 1,12,-1
 74 0 l 1,13,-1
 236 0 l 1,14,-1
 236 700 l 1,15,-1
 74 700 l 1,12,-1
121 776 m 1,16,-1
 492 776 l 1,17,-1
 492 907 l 1,18,-1
 121 907 l 1,19,-1
 121 776 l 1,16,-1
EndSplineSet
EndChar

StartChar: Ebreve
Encoding: 276 276 28
Width: 603
GlyphClass: 2
Flags: W
LayerCount: 2
Fore
SplineSet
186 0 m 1,0,-1
 539 0 l 1,1,-1
 539 139 l 1,2,-1
 186 139 l 1,3,-1
 186 0 l 1,0,-1
186 561 m 1,4,-1
 539 561 l 1,5,-1
 539 700 l 1,6,-1
 186 700 l 1,7,-1
 186 561 l 1,4,-1
186 300 m 1,8,-1
 519 300 l 1,9,-1
 519 436 l 1,10,-1
 186 436 l 1,11,-1
 186 300 l 1,8,-1
74 700 m 1,12,-1
 74 0 l 1,13,-1
 236 0 l 1,14,-1
 236 700 l 1,15,-1
 74 700 l 1,12,-1
142 922 m 1,16,17
 142 882 142 882 161 848.5 c 128,-1,18
 180 815 180 815 217 795.5 c 128,-1,19
 254 776 254 776 306 776 c 0,20,21
 359 776 359 776 395.5 795.5 c 128,-1,22
 432 815 432 815 451 848.5 c 128,-1,23
 470 882 470 882 470 922 c 1,24,-1
 371 922 l 1,25,26
 371 905 371 905 363 891.5 c 128,-1,27
 355 878 355 878 340.5 870.5 c 128,-1,28
 326 863 326 863 306 863 c 0,29,30
 287 863 287 863 272 870.5 c 128,-1,31
 257 878 257 878 249 891.5 c 128,-1,32
 241 905 241 905 241 922 c 1,33,-1
 142 922 l 1,16,17
EndSplineSet
EndChar

StartChar: Edotaccent
Encoding: 278 278 29
Width: 603
GlyphClass: 2
Flags: W
LayerCount: 2
Fore
SplineSet
186 0 m 1,0,-1
 539 0 l 1,1,-1
 539 139 l 1,2,-1
 186 139 l 1,3,-1
 186 0 l 1,0,-1
186 561 m 1,4,-1
 539 561 l 1,5,-1
 539 700 l 1,6,-1
 186 700 l 1,7,-1
 186 561 l 1,4,-1
186 300 m 1,8,-1
 519 300 l 1,9,-1
 519 436 l 1,10,-1
 186 436 l 1,11,-1
 186 300 l 1,8,-1
74 700 m 1,12,-1
 74 0 l 1,13,-1
 236 0 l 1,14,-1
 236 700 l 1,15,-1
 74 700 l 1,12,-1
218 858 m 256,16,17
 218 822 218 822 244 799 c 128,-1,18
 270 776 270 776 306 776 c 0,19,20
 343 776 343 776 368.5 799 c 128,-1,21
 394 822 394 822 394 858 c 256,22,23
 394 894 394 894 368.5 917 c 128,-1,24
 343 940 343 940 306 940 c 0,25,26
 270 940 270 940 244 917 c 128,-1,27
 218 894 218 894 218 858 c 256,16,17
EndSplineSet
EndChar

StartChar: Eogonek
Encoding: 280 280 30
Width: 603
GlyphClass: 2
Flags: W
LayerCount: 2
Fore
SplineSet
186 0 m 1,0,-1
 539 0 l 1,1,-1
 539 139 l 1,2,-1
 186 139 l 1,3,-1
 186 0 l 1,0,-1
186 561 m 1,4,-1
 539 561 l 1,5,-1
 539 700 l 1,6,-1
 186 700 l 1,7,-1
 186 561 l 1,4,-1
186 300 m 1,8,-1
 519 300 l 1,9,-1
 519 436 l 1,10,-1
 186 436 l 1,11,-1
 186 300 l 1,8,-1
74 700 m 1,12,-1
 74 0 l 1,13,-1
 236 0 l 1,14,-1
 236 700 l 1,15,-1
 74 700 l 1,12,-1
399 -111 m 1,16,17
 389 -121 389 -121 376.5 -126 c 128,-1,18
 364 -131 364 -131 349 -131 c 0,19,20
 332 -131 332 -131 323 -121.5 c 128,-1,21
 314 -112 314 -112 314 -94 c 0,22,23
 314 -78 314 -78 323 -62 c 128,-1,24
 332 -46 332 -46 350 -30 c 128,-1,25
 368 -14 368 -14 394 0 c 1,26,-1
 353 25 l 1,27,28
 318 7 318 7 286.5 -14.5 c 128,-1,29
 255 -36 255 -36 235 -61.5 c 128,-1,30
 215 -87 215 -87 215 -120 c 0,31,32
 215 -152 215 -152 230.5 -174.5 c 128,-1,33
 246 -197 246 -197 272.5 -208.5 c 128,-1,34
 299 -220 299 -220 332 -220 c 0,35,36
 373 -220 373 -220 397 -207.5 c 128,-1,37
 421 -195 421 -195 432 -180 c 1,38,-1
 399 -111 l 1,16,17
EndSplineSet
EndChar

StartChar: Ecaron
Encoding: 282 282 31
Width: 603
GlyphClass: 2
Flags: W
LayerCount: 2
Fore
SplineSet
186 0 m 1,0,-1
 539 0 l 1,1,-1
 539 139 l 1,2,-1
 186 139 l 1,3,-1
 186 0 l 1,0,-1
186 561 m 1,4,-1
 539 561 l 1,5,-1
 539 700 l 1,6,-1
 186 700 l 1,7,-1
 186 561 l 1,4,-1
186 300 m 1,8,-1
 519 300 l 1,9,-1
 519 436 l 1,10,-1
 186 436 l 1,11,-1
 186 300 l 1,8,-1
74 700 m 1,12,-1
 74 0 l 1,13,-1
 236 0 l 1,14,-1
 236 700 l 1,15,-1
 74 700 l 1,12,-1
306 902 m 1,16,-1
 215 987 l 1,17,-1
 109 916 l 1,18,-1
 306 776 l 1,19,-1
 503 916 l 1,20,-1
 397 987 l 1,21,-1
 306 902 l 1,16,-1
EndSplineSet
EndChar

StartChar: F
Encoding: 70 70 32
Width: 553
GlyphClass: 2
Flags: W
LayerCount: 2
Fore
SplineSet
186 555 m 1,0,-1
 499 555 l 1,1,-1
 499 700 l 1,2,-1
 186 700 l 1,3,-1
 186 555 l 1,0,-1
186 281 m 1,4,-1
 489 281 l 1,5,-1
 489 417 l 1,6,-1
 186 417 l 1,7,-1
 186 281 l 1,4,-1
74 700 m 1,8,-1
 74 0 l 1,9,-1
 236 0 l 1,10,-1
 236 700 l 1,11,-1
 74 700 l 1,8,-1
EndSplineSet
EndChar

StartChar: G
Encoding: 71 71 33
Width: 814
GlyphClass: 2
Flags: W
LayerCount: 2
Fore
SplineSet
421 253 m 1,0,-1
 607 253 l 1,1,2
 598 226 598 226 582.5 202.5 c 128,-1,3
 567 179 567 179 545 161.5 c 128,-1,4
 523 144 523 144 492 134.5 c 128,-1,5
 461 125 461 125 423 125 c 0,6,7
 361 125 361 125 313.5 152.5 c 128,-1,8
 266 180 266 180 238.5 230.5 c 128,-1,9
 211 281 211 281 211 350 c 0,10,11
 211 420 211 420 239.5 468.5 c 128,-1,12
 268 517 268 517 316 543 c 128,-1,13
 364 569 364 569 423 569 c 0,14,15
 484 569 484 569 524.5 541.5 c 128,-1,16
 565 514 565 514 589 472 c 1,17,-1
 739 550 l 1,18,19
 706 599 706 599 660.5 636.5 c 128,-1,20
 615 674 615 674 556 695 c 128,-1,21
 497 716 497 716 423 716 c 0,22,23
 340 716 340 716 269 690 c 128,-1,24
 198 664 198 664 145 616 c 128,-1,25
 92 568 92 568 63 500.5 c 128,-1,26
 34 433 34 433 34 350 c 256,27,28
 34 267 34 267 62.5 198.5 c 128,-1,29
 91 130 91 130 142 80.5 c 128,-1,30
 193 31 193 31 263 4.5 c 128,-1,31
 333 -22 333 -22 417 -22 c 0,32,33
 506 -22 506 -22 575 9.5 c 128,-1,34
 644 41 644 41 690 97 c 128,-1,35
 736 153 736 153 758 226 c 128,-1,36
 780 299 780 299 775 383 c 1,37,-1
 421 383 l 1,38,-1
 421 253 l 1,0,-1
EndSplineSet
EndChar

StartChar: Gcircumflex
Encoding: 284 284 34
Width: 814
GlyphClass: 2
Flags: W
LayerCount: 2
Fore
SplineSet
421 253 m 1,0,-1
 607 253 l 1,1,2
 598 226 598 226 582.5 202.5 c 128,-1,3
 567 179 567 179 545 161.5 c 128,-1,4
 523 144 523 144 492 134.5 c 128,-1,5
 461 125 461 125 423 125 c 0,6,7
 361 125 361 125 313.5 152.5 c 128,-1,8
 266 180 266 180 238.5 230.5 c 128,-1,9
 211 281 211 281 211 350 c 0,10,11
 211 420 211 420 239.5 468.5 c 128,-1,12
 268 517 268 517 316 543 c 128,-1,13
 364 569 364 569 423 569 c 0,14,15
 484 569 484 569 524.5 541.5 c 128,-1,16
 565 514 565 514 589 472 c 1,17,-1
 739 550 l 1,18,19
 706 599 706 599 660.5 636.5 c 128,-1,20
 615 674 615 674 556 695 c 128,-1,21
 497 716 497 716 423 716 c 0,22,23
 340 716 340 716 269 690 c 128,-1,24
 198 664 198 664 145 616 c 128,-1,25
 92 568 92 568 63 500.5 c 128,-1,26
 34 433 34 433 34 350 c 256,27,28
 34 267 34 267 62.5 198.5 c 128,-1,29
 91 130 91 130 142 80.5 c 128,-1,30
 193 31 193 31 263 4.5 c 128,-1,31
 333 -22 333 -22 417 -22 c 0,32,33
 506 -22 506 -22 575 9.5 c 128,-1,34
 644 41 644 41 690 97 c 128,-1,35
 736 153 736 153 758 226 c 128,-1,36
 780 299 780 299 775 383 c 1,37,-1
 421 383 l 1,38,-1
 421 253 l 1,0,-1
423 862 m 1,39,-1
 514 776 l 1,40,-1
 620 847 l 1,41,-1
 423 987 l 1,42,-1
 226 847 l 1,43,-1
 332 776 l 1,44,-1
 423 862 l 1,39,-1
EndSplineSet
EndChar

StartChar: Gbreve
Encoding: 286 286 35
Width: 814
GlyphClass: 2
Flags: W
LayerCount: 2
Fore
SplineSet
421 253 m 1,0,-1
 607 253 l 1,1,2
 598 226 598 226 582.5 202.5 c 128,-1,3
 567 179 567 179 545 161.5 c 128,-1,4
 523 144 523 144 492 134.5 c 128,-1,5
 461 125 461 125 423 125 c 0,6,7
 361 125 361 125 313.5 152.5 c 128,-1,8
 266 180 266 180 238.5 230.5 c 128,-1,9
 211 281 211 281 211 350 c 0,10,11
 211 420 211 420 239.5 468.5 c 128,-1,12
 268 517 268 517 316 543 c 128,-1,13
 364 569 364 569 423 569 c 0,14,15
 484 569 484 569 524.5 541.5 c 128,-1,16
 565 514 565 514 589 472 c 1,17,-1
 739 550 l 1,18,19
 706 599 706 599 660.5 636.5 c 128,-1,20
 615 674 615 674 556 695 c 128,-1,21
 497 716 497 716 423 716 c 0,22,23
 340 716 340 716 269 690 c 128,-1,24
 198 664 198 664 145 616 c 128,-1,25
 92 568 92 568 63 500.5 c 128,-1,26
 34 433 34 433 34 350 c 256,27,28
 34 267 34 267 62.5 198.5 c 128,-1,29
 91 130 91 130 142 80.5 c 128,-1,30
 193 31 193 31 263 4.5 c 128,-1,31
 333 -22 333 -22 417 -22 c 0,32,33
 506 -22 506 -22 575 9.5 c 128,-1,34
 644 41 644 41 690 97 c 128,-1,35
 736 153 736 153 758 226 c 128,-1,36
 780 299 780 299 775 383 c 1,37,-1
 421 383 l 1,38,-1
 421 253 l 1,0,-1
259 922 m 1,39,40
 259 882 259 882 278 848.5 c 128,-1,41
 297 815 297 815 334 795.5 c 128,-1,42
 371 776 371 776 423 776 c 0,43,44
 476 776 476 776 512.5 795.5 c 128,-1,45
 549 815 549 815 568 848.5 c 128,-1,46
 587 882 587 882 587 922 c 1,47,-1
 488 922 l 1,48,49
 488 905 488 905 480 891.5 c 128,-1,50
 472 878 472 878 457 870.5 c 128,-1,51
 442 863 442 863 423 863 c 0,52,53
 403 863 403 863 388.5 870.5 c 128,-1,54
 374 878 374 878 366 891.5 c 128,-1,55
 358 905 358 905 358 922 c 1,56,-1
 259 922 l 1,39,40
EndSplineSet
EndChar

StartChar: Gdotaccent
Encoding: 288 288 36
Width: 814
GlyphClass: 2
Flags: W
LayerCount: 2
Fore
SplineSet
421 253 m 1,0,-1
 607 253 l 1,1,2
 598 226 598 226 582.5 202.5 c 128,-1,3
 567 179 567 179 545 161.5 c 128,-1,4
 523 144 523 144 492 134.5 c 128,-1,5
 461 125 461 125 423 125 c 0,6,7
 361 125 361 125 313.5 152.5 c 128,-1,8
 266 180 266 180 238.5 230.5 c 128,-1,9
 211 281 211 281 211 350 c 0,10,11
 211 420 211 420 239.5 468.5 c 128,-1,12
 268 517 268 517 316 543 c 128,-1,13
 364 569 364 569 423 569 c 0,14,15
 484 569 484 569 524.5 541.5 c 128,-1,16
 565 514 565 514 589 472 c 1,17,-1
 739 550 l 1,18,19
 706 599 706 599 660.5 636.5 c 128,-1,20
 615 674 615 674 556 695 c 128,-1,21
 497 716 497 716 423 716 c 0,22,23
 340 716 340 716 269 690 c 128,-1,24
 198 664 198 664 145 616 c 128,-1,25
 92 568 92 568 63 500.5 c 128,-1,26
 34 433 34 433 34 350 c 256,27,28
 34 267 34 267 62.5 198.5 c 128,-1,29
 91 130 91 130 142 80.5 c 128,-1,30
 193 31 193 31 263 4.5 c 128,-1,31
 333 -22 333 -22 417 -22 c 0,32,33
 506 -22 506 -22 575 9.5 c 128,-1,34
 644 41 644 41 690 97 c 128,-1,35
 736 153 736 153 758 226 c 128,-1,36
 780 299 780 299 775 383 c 1,37,-1
 421 383 l 1,38,-1
 421 253 l 1,0,-1
335 858 m 256,39,40
 335 822 335 822 361 799 c 128,-1,41
 387 776 387 776 423 776 c 0,42,43
 460 776 460 776 485.5 799 c 128,-1,44
 511 822 511 822 511 858 c 256,45,46
 511 894 511 894 485.5 917 c 128,-1,47
 460 940 460 940 423 940 c 0,48,49
 387 940 387 940 361 917 c 128,-1,50
 335 894 335 894 335 858 c 256,39,40
EndSplineSet
EndChar

StartChar: uni0122
Encoding: 290 290 37
Width: 814
GlyphClass: 2
Flags: W
LayerCount: 2
Fore
SplineSet
421 253 m 1,0,-1
 607 253 l 1,1,2
 598 226 598 226 582.5 202.5 c 128,-1,3
 567 179 567 179 545 161.5 c 128,-1,4
 523 144 523 144 492 134.5 c 128,-1,5
 461 125 461 125 423 125 c 0,6,7
 361 125 361 125 313.5 152.5 c 128,-1,8
 266 180 266 180 238.5 230.5 c 128,-1,9
 211 281 211 281 211 350 c 0,10,11
 211 420 211 420 239.5 468.5 c 128,-1,12
 268 517 268 517 316 543 c 128,-1,13
 364 569 364 569 423 569 c 0,14,15
 484 569 484 569 524.5 541.5 c 128,-1,16
 565 514 565 514 589 472 c 1,17,-1
 739 550 l 1,18,19
 706 599 706 599 660.5 636.5 c 128,-1,20
 615 674 615 674 556 695 c 128,-1,21
 497 716 497 716 423 716 c 0,22,23
 340 716 340 716 269 690 c 128,-1,24
 198 664 198 664 145 616 c 128,-1,25
 92 568 92 568 63 500.5 c 128,-1,26
 34 433 34 433 34 350 c 256,27,28
 34 267 34 267 62.5 198.5 c 128,-1,29
 91 130 91 130 142 80.5 c 128,-1,30
 193 31 193 31 263 4.5 c 128,-1,31
 333 -22 333 -22 417 -22 c 0,32,33
 506 -22 506 -22 575 9.5 c 128,-1,34
 644 41 644 41 690 97 c 128,-1,35
 736 153 736 153 758 226 c 128,-1,36
 780 299 780 299 775 383 c 1,37,-1
 421 383 l 1,38,-1
 421 253 l 1,0,-1
354 -82 m 1,39,-1
 266 -341 l 1,40,-1
 380 -365 l 1,41,-1
 506 -115 l 1,42,-1
 354 -82 l 1,39,-1
EndSplineSet
EndChar

StartChar: H
Encoding: 72 72 38
Width: 786
GlyphClass: 2
Flags: W
LayerCount: 2
Fore
SplineSet
121 293 m 1,0,-1
 650 293 l 1,1,-1
 650 445 l 1,2,-1
 121 445 l 1,3,-1
 121 293 l 1,0,-1
544 700 m 1,4,-1
 544 0 l 1,5,-1
 713 0 l 1,6,-1
 713 700 l 1,7,-1
 544 700 l 1,4,-1
74 700 m 1,8,-1
 74 0 l 1,9,-1
 243 0 l 1,10,-1
 243 700 l 1,11,-1
 74 700 l 1,8,-1
EndSplineSet
EndChar

StartChar: Hcircumflex
Encoding: 292 292 39
Width: 786
GlyphClass: 2
Flags: W
LayerCount: 2
Fore
SplineSet
121 293 m 1,0,-1
 650 293 l 1,1,-1
 650 445 l 1,2,-1
 121 445 l 1,3,-1
 121 293 l 1,0,-1
544 700 m 1,4,-1
 544 0 l 1,5,-1
 713 0 l 1,6,-1
 713 700 l 1,7,-1
 544 700 l 1,4,-1
74 700 m 1,8,-1
 74 0 l 1,9,-1
 243 0 l 1,10,-1
 243 700 l 1,11,-1
 74 700 l 1,8,-1
393 862 m 1,12,-1
 485 776 l 1,13,-1
 591 847 l 1,14,-1
 393 987 l 1,15,-1
 196 847 l 1,16,-1
 302 776 l 1,17,-1
 393 862 l 1,12,-1
EndSplineSet
EndChar

StartChar: I
Encoding: 73 73 40
Width: 320
GlyphClass: 2
Flags: W
LayerCount: 2
Fore
SplineSet
74 700 m 1,0,-1
 74 0 l 1,1,-1
 246 0 l 1,2,-1
 246 700 l 1,3,-1
 74 700 l 1,0,-1
EndSplineSet
EndChar

StartChar: Igrave
Encoding: 204 204 41
Width: 320
GlyphClass: 2
Flags: W
LayerCount: 2
Fore
SplineSet
74 700 m 1,0,-1
 74 0 l 1,1,-1
 246 0 l 1,2,-1
 246 700 l 1,3,-1
 74 700 l 1,0,-1
-8 932 m 1,4,-1
 172 782 l 1,5,-1
 258 825 l 1,6,-1
 108 985 l 1,7,-1
 -8 932 l 1,4,-1
EndSplineSet
EndChar

StartChar: Iacute
Encoding: 205 205 42
Width: 320
GlyphClass: 2
Flags: W
LayerCount: 2
Fore
SplineSet
74 700 m 1,0,-1
 74 0 l 1,1,-1
 246 0 l 1,2,-1
 246 700 l 1,3,-1
 74 700 l 1,0,-1
312 932 m 1,4,-1
 197 985 l 1,5,-1
 47 825 l 1,6,-1
 132 782 l 1,7,-1
 312 932 l 1,4,-1
EndSplineSet
EndChar

StartChar: Icircumflex
Encoding: 206 206 43
Width: 320
GlyphClass: 2
Flags: W
LayerCount: 2
Fore
SplineSet
74 700 m 1,0,-1
 74 0 l 1,1,-1
 246 0 l 1,2,-1
 246 700 l 1,3,-1
 74 700 l 1,0,-1
160 862 m 1,4,-1
 251 776 l 1,5,-1
 357 847 l 1,6,-1
 160 987 l 1,7,-1
 -37 847 l 1,8,-1
 69 776 l 1,9,-1
 160 862 l 1,4,-1
EndSplineSet
EndChar

StartChar: Idieresis
Encoding: 207 207 44
Width: 320
GlyphClass: 2
Flags: W
LayerCount: 2
Fore
SplineSet
74 700 m 1,0,-1
 74 0 l 1,1,-1
 246 0 l 1,2,-1
 246 700 l 1,3,-1
 74 700 l 1,0,-1
194 858 m 256,4,5
 194 822 194 822 219.5 799 c 128,-1,6
 245 776 245 776 282 776 c 0,7,8
 318 776 318 776 344 799 c 128,-1,9
 370 822 370 822 370 858 c 256,10,11
 370 894 370 894 344 917 c 128,-1,12
 318 940 318 940 282 940 c 0,13,14
 245 940 245 940 219.5 917 c 128,-1,15
 194 894 194 894 194 858 c 256,4,5
-49 858 m 256,16,17
 -49 822 -49 822 -23.5 799 c 128,-1,18
 2 776 2 776 38 776 c 0,19,20
 75 776 75 776 100.5 799 c 128,-1,21
 126 822 126 822 126 858 c 256,22,23
 126 894 126 894 100.5 917 c 128,-1,24
 75 940 75 940 38 940 c 0,25,26
 2 940 2 940 -23.5 917 c 128,-1,27
 -49 894 -49 894 -49 858 c 256,16,17
EndSplineSet
EndChar

StartChar: Itilde
Encoding: 296 296 45
Width: 320
GlyphClass: 2
Flags: W
LayerCount: 2
Fore
SplineSet
74 700 m 1,0,-1
 74 0 l 1,1,-1
 246 0 l 1,2,-1
 246 700 l 1,3,-1
 74 700 l 1,0,-1
-36 842 m 1,4,-1
 35 780 l 1,5,6
 35 788 35 788 39 800 c 128,-1,7
 43 812 43 812 53.5 821.5 c 128,-1,8
 64 831 64 831 83 831 c 0,9,10
 108 831 108 831 129 817.5 c 128,-1,11
 150 804 150 804 172.5 791 c 128,-1,12
 195 778 195 778 222 778 c 0,13,14
 253 778 253 778 281 791.5 c 128,-1,15
 309 805 309 805 328.5 825 c 128,-1,16
 348 845 348 845 356 863 c 1,17,-1
 285 937 l 1,18,19
 270 913 270 913 254.5 898.5 c 128,-1,20
 239 884 239 884 220 884 c 0,21,22
 198 884 198 884 183.5 892 c 128,-1,23
 169 900 169 900 155.5 910 c 128,-1,24
 142 920 142 920 125 928 c 128,-1,25
 108 936 108 936 83 936 c 0,26,27
 52 936 52 936 26.5 922.5 c 128,-1,28
 1 909 1 909 -15 888 c 128,-1,29
 -31 867 -31 867 -36 842 c 1,4,-1
EndSplineSet
EndChar

StartChar: Imacron
Encoding: 298 298 46
Width: 320
GlyphClass: 2
Flags: W
LayerCount: 2
Fore
SplineSet
74 700 m 1,0,-1
 74 0 l 1,1,-1
 246 0 l 1,2,-1
 246 700 l 1,3,-1
 74 700 l 1,0,-1
-26 776 m 1,4,-1
 346 776 l 1,5,-1
 346 907 l 1,6,-1
 -26 907 l 1,7,-1
 -26 776 l 1,4,-1
EndSplineSet
EndChar

StartChar: Ibreve
Encoding: 300 300 47
Width: 320
GlyphClass: 2
Flags: W
LayerCount: 2
Fore
SplineSet
74 700 m 1,0,-1
 74 0 l 1,1,-1
 246 0 l 1,2,-1
 246 700 l 1,3,-1
 74 700 l 1,0,-1
-5 922 m 1,4,5
 -5 882 -5 882 14.5 848.5 c 128,-1,6
 34 815 34 815 71 795.5 c 128,-1,7
 108 776 108 776 160 776 c 0,8,9
 213 776 213 776 249.5 795.5 c 128,-1,10
 286 815 286 815 305 848.5 c 128,-1,11
 324 882 324 882 324 922 c 1,12,-1
 225 922 l 1,13,14
 225 905 225 905 216.5 891.5 c 128,-1,15
 208 878 208 878 193.5 870.5 c 128,-1,16
 179 863 179 863 160 863 c 0,17,18
 140 863 140 863 125.5 870.5 c 128,-1,19
 111 878 111 878 102.5 891.5 c 128,-1,20
 94 905 94 905 94 922 c 1,21,-1
 -5 922 l 1,4,5
EndSplineSet
EndChar

StartChar: Iogonek
Encoding: 302 302 48
Width: 320
GlyphClass: 2
Flags: W
LayerCount: 2
Fore
SplineSet
74 700 m 1,0,-1
 74 0 l 1,1,-1
 246 0 l 1,2,-1
 246 700 l 1,3,-1
 74 700 l 1,0,-1
225 -109 m 1,4,5
 215 -119 215 -119 202.5 -124 c 128,-1,6
 190 -129 190 -129 175 -129 c 0,7,8
 157 -129 157 -129 148 -119.5 c 128,-1,9
 139 -110 139 -110 139 -92 c 0,10,11
 139 -76 139 -76 148.5 -60 c 128,-1,12
 158 -44 158 -44 176 -28 c 128,-1,13
 194 -12 194 -12 220 2 c 1,14,-1
 179 27 l 1,15,16
 144 9 144 9 112.5 -12.5 c 128,-1,17
 81 -34 81 -34 60.5 -59.5 c 128,-1,18
 40 -85 40 -85 40 -118 c 0,19,20
 40 -150 40 -150 56 -173 c 128,-1,21
 72 -196 72 -196 98.5 -207 c 128,-1,22
 125 -218 125 -218 158 -218 c 0,23,24
 199 -218 199 -218 223 -205.5 c 128,-1,25
 247 -193 247 -193 258 -178 c 1,26,-1
 225 -109 l 1,4,5
EndSplineSet
EndChar

StartChar: Idotaccent
Encoding: 304 304 49
Width: 320
GlyphClass: 2
Flags: W
LayerCount: 2
Fore
SplineSet
74 700 m 1,0,-1
 74 0 l 1,1,-1
 246 0 l 1,2,-1
 246 700 l 1,3,-1
 74 700 l 1,0,-1
71 858 m 256,4,5
 71 822 71 822 97 799 c 128,-1,6
 123 776 123 776 159 776 c 0,7,8
 196 776 196 776 221.5 799 c 128,-1,9
 247 822 247 822 247 858 c 256,10,11
 247 894 247 894 221.5 917 c 128,-1,12
 196 940 196 940 159 940 c 0,13,14
 123 940 123 940 97 917 c 128,-1,15
 71 894 71 894 71 858 c 256,4,5
EndSplineSet
EndChar

StartChar: J
Encoding: 74 74 50
Width: 330
GlyphClass: 2
Flags: W
LayerCount: 2
Fore
SplineSet
-72 -64 m 1,0,-1
 -164 -182 l 1,1,2
 -143 -196 -143 -196 -114 -208.5 c 128,-1,3
 -85 -221 -85 -221 -49 -230 c 128,-1,4
 -13 -239 -13 -239 26 -239 c 0,5,6
 72 -239 72 -239 114 -228.5 c 128,-1,7
 156 -218 156 -218 188 -196.5 c 128,-1,8
 220 -175 220 -175 238 -139.5 c 128,-1,9
 256 -104 256 -104 256 -54 c 2,10,-1
 256 700 l 1,11,-1
 74 700 l 1,12,-1
 74 -16 l 2,13,14
 74 -60 74 -60 53 -78.5 c 128,-1,15
 32 -97 32 -97 9 -97 c 0,16,17
 -13 -97 -13 -97 -35 -87 c 128,-1,18
 -57 -77 -57 -77 -72 -64 c 1,0,-1
EndSplineSet
EndChar

StartChar: Jcircumflex
Encoding: 308 308 51
Width: 330
GlyphClass: 2
Flags: W
LayerCount: 2
Fore
SplineSet
-72 -64 m 1,0,-1
 -164 -182 l 1,1,2
 -143 -196 -143 -196 -114 -208.5 c 128,-1,3
 -85 -221 -85 -221 -49 -230 c 128,-1,4
 -13 -239 -13 -239 26 -239 c 0,5,6
 72 -239 72 -239 114 -228.5 c 128,-1,7
 156 -218 156 -218 188 -196.5 c 128,-1,8
 220 -175 220 -175 238 -139.5 c 128,-1,9
 256 -104 256 -104 256 -54 c 2,10,-1
 256 700 l 1,11,-1
 74 700 l 1,12,-1
 74 -16 l 2,13,14
 74 -60 74 -60 53 -78.5 c 128,-1,15
 32 -97 32 -97 9 -97 c 0,16,17
 -13 -97 -13 -97 -35 -87 c 128,-1,18
 -57 -77 -57 -77 -72 -64 c 1,0,-1
165 862 m 1,19,-1
 256 776 l 1,20,-1
 362 847 l 1,21,-1
 165 987 l 1,22,-1
 -33 847 l 1,23,-1
 73 776 l 1,24,-1
 165 862 l 1,19,-1
EndSplineSet
EndChar

StartChar: K
Encoding: 75 75 52
Width: 699
GlyphClass: 2
Flags: W
LayerCount: 2
Fore
SplineSet
74 700 m 1,0,-1
 74 0 l 1,1,-1
 249 0 l 1,2,-1
 249 700 l 1,3,-1
 74 700 l 1,0,-1
487 700 m 1,4,-1
 200 367 l 1,5,-1
 495 0 l 1,6,-1
 700 0 l 1,7,-1
 401 372 l 1,8,-1
 685 700 l 1,9,-1
 487 700 l 1,4,-1
EndSplineSet
EndChar

StartChar: uni0136
Encoding: 310 310 53
Width: 699
GlyphClass: 2
Flags: W
LayerCount: 2
Fore
SplineSet
74 700 m 1,0,-1
 74 0 l 1,1,-1
 249 0 l 1,2,-1
 249 700 l 1,3,-1
 74 700 l 1,0,-1
487 700 m 1,4,-1
 200 367 l 1,5,-1
 495 0 l 1,6,-1
 700 0 l 1,7,-1
 401 372 l 1,8,-1
 685 700 l 1,9,-1
 487 700 l 1,4,-1
330 -60 m 1,10,-1
 242 -319 l 1,11,-1
 356 -342 l 1,12,-1
 482 -92 l 1,13,-1
 330 -60 l 1,10,-1
EndSplineSet
EndChar

StartChar: L
Encoding: 76 76 54
Width: 528
GlyphClass: 2
Flags: W
LayerCount: 2
Fore
SplineSet
74 700 m 1,0,-1
 74 0 l 1,1,-1
 524 0 l 1,2,-1
 524 145 l 1,3,-1
 243 145 l 1,4,-1
 243 700 l 1,5,-1
 74 700 l 1,0,-1
EndSplineSet
EndChar

StartChar: Lacute
Encoding: 313 313 55
Width: 528
GlyphClass: 2
Flags: W
LayerCount: 2
Fore
SplineSet
74 700 m 1,0,-1
 74 0 l 1,1,-1
 524 0 l 1,2,-1
 524 145 l 1,3,-1
 243 145 l 1,4,-1
 243 700 l 1,5,-1
 74 700 l 1,0,-1
460 926 m 1,6,-1
 345 979 l 1,7,-1
 195 819 l 1,8,-1
 280 776 l 1,9,-1
 460 926 l 1,6,-1
EndSplineSet
EndChar

StartChar: uni013B
Encoding: 315 315 56
Width: 528
GlyphClass: 2
Flags: W
LayerCount: 2
Fore
SplineSet
74 700 m 1,0,-1
 74 0 l 1,1,-1
 524 0 l 1,2,-1
 524 145 l 1,3,-1
 243 145 l 1,4,-1
 243 700 l 1,5,-1
 74 700 l 1,0,-1
267 -60 m 1,6,-1
 179 -319 l 1,7,-1
 293 -342 l 1,8,-1
 419 -92 l 1,9,-1
 267 -60 l 1,6,-1
EndSplineSet
EndChar

StartChar: Lcaron
Encoding: 317 317 57
Width: 528
GlyphClass: 2
Flags: W
LayerCount: 2
Fore
SplineSet
74 700 m 1,0,-1
 74 0 l 1,1,-1
 524 0 l 1,2,-1
 524 145 l 1,3,-1
 243 145 l 1,4,-1
 243 700 l 1,5,-1
 74 700 l 1,0,-1
412 716 m 1,6,-1
 324 457 l 1,7,-1
 438 434 l 1,8,-1
 563 684 l 1,9,-1
 412 716 l 1,6,-1
EndSplineSet
EndChar

StartChar: M
Encoding: 77 77 58
Width: 891
GlyphClass: 2
Flags: W
LayerCount: 2
Fore
SplineSet
254 357 m 1,0,-1
 445 65 l 1,1,-1
 637 357 l 1,2,-1
 679 0 l 1,3,-1
 857 0 l 1,4,-1
 744 735 l 1,5,-1
 445 308 l 1,6,-1
 147 735 l 1,7,-1
 34 0 l 1,8,-1
 212 0 l 1,9,-1
 254 357 l 1,0,-1
EndSplineSet
EndChar

StartChar: N
Encoding: 78 78 59
Width: 794
GlyphClass: 2
Flags: W
LayerCount: 2
Fore
SplineSet
557 700 m 1,0,-1
 557 306 l 1,1,-1
 74 735 l 1,2,-1
 74 0 l 1,3,-1
 236 0 l 1,4,-1
 236 394 l 1,5,-1
 720 -35 l 1,6,-1
 720 700 l 1,7,-1
 557 700 l 1,0,-1
EndSplineSet
EndChar

StartChar: Ntilde
Encoding: 209 209 60
Width: 794
GlyphClass: 2
Flags: W
LayerCount: 2
Fore
SplineSet
557 700 m 1,0,-1
 557 306 l 1,1,-1
 74 735 l 1,2,-1
 74 0 l 1,3,-1
 236 0 l 1,4,-1
 236 394 l 1,5,-1
 720 -35 l 1,6,-1
 720 700 l 1,7,-1
 557 700 l 1,0,-1
172 833 m 1,8,-1
 243 771 l 1,9,10
 243 779 243 779 247 791 c 128,-1,11
 251 803 251 803 261 812.5 c 128,-1,12
 271 822 271 822 290 822 c 0,13,14
 315 822 315 822 336 808.5 c 128,-1,15
 357 795 357 795 380 782 c 128,-1,16
 403 769 403 769 430 769 c 0,17,18
 461 769 461 769 488.5 782.5 c 128,-1,19
 516 796 516 796 536 816 c 128,-1,20
 556 836 556 836 564 854 c 1,21,-1
 493 928 l 1,22,23
 478 904 478 904 462 889.5 c 128,-1,24
 446 875 446 875 427 875 c 0,25,26
 406 875 406 875 391 883 c 128,-1,27
 376 891 376 891 363 901.5 c 128,-1,28
 350 912 350 912 333 919.5 c 128,-1,29
 316 927 316 927 291 927 c 0,30,31
 260 927 260 927 234.5 913.5 c 128,-1,32
 209 900 209 900 193 879 c 128,-1,33
 177 858 177 858 172 833 c 1,8,-1
EndSplineSet
EndChar

StartChar: Nacute
Encoding: 323 323 61
Width: 794
GlyphClass: 2
Flags: W
LayerCount: 2
Fore
SplineSet
557 700 m 1,0,-1
 557 306 l 1,1,-1
 74 735 l 1,2,-1
 74 0 l 1,3,-1
 236 0 l 1,4,-1
 236 394 l 1,5,-1
 720 -35 l 1,6,-1
 720 700 l 1,7,-1
 557 700 l 1,0,-1
548 911 m 1,8,-1
 432 964 l 1,9,-1
 282 804 l 1,10,-1
 368 761 l 1,11,-1
 548 911 l 1,8,-1
EndSplineSet
EndChar

StartChar: uni0145
Encoding: 325 325 62
Width: 794
GlyphClass: 2
Flags: W
LayerCount: 2
Fore
SplineSet
364 -54 m 1,0,-1
 276 -313 l 1,1,-1
 390 -336 l 1,2,-1
 514 -86 l 1,3,-1
 364 -54 l 1,0,-1
557 700 m 1,4,-1
 557 306 l 1,5,-1
 74 735 l 1,6,-1
 74 0 l 1,7,-1
 236 0 l 1,8,-1
 236 394 l 1,9,-1
 720 -35 l 1,10,-1
 720 700 l 1,11,-1
 557 700 l 1,4,-1
EndSplineSet
EndChar

StartChar: Ncaron
Encoding: 327 327 63
Width: 794
GlyphClass: 2
Flags: W
LayerCount: 2
Fore
SplineSet
375 902 m 1,0,-1
 284 987 l 1,1,-1
 178 916 l 1,2,-1
 375 776 l 1,3,-1
 572 916 l 1,4,-1
 467 987 l 1,5,-1
 375 902 l 1,0,-1
557 700 m 1,6,-1
 557 306 l 1,7,-1
 74 735 l 1,8,-1
 74 0 l 1,9,-1
 236 0 l 1,10,-1
 236 394 l 1,11,-1
 720 -35 l 1,12,-1
 720 700 l 1,13,-1
 557 700 l 1,6,-1
EndSplineSet
EndChar

StartChar: O
Encoding: 79 79 64
Width: 821
GlyphClass: 2
Flags: W
LayerCount: 2
Fore
SplineSet
213 350 m 256,0,1
 213 412 213 412 237.5 459.5 c 128,-1,2
 262 507 262 507 306.5 534 c 128,-1,3
 351 561 351 561 411 561 c 0,4,5
 472 561 472 561 516 534 c 128,-1,6
 560 507 560 507 584 459.5 c 128,-1,7
 608 412 608 412 608 350 c 256,8,9
 608 288 608 288 583.5 240.5 c 128,-1,10
 559 193 559 193 514.5 166 c 128,-1,11
 470 139 470 139 411 139 c 0,12,13
 351 139 351 139 306.5 166 c 128,-1,14
 262 193 262 193 237.5 240.5 c 128,-1,15
 213 288 213 288 213 350 c 256,0,1
34 350 m 256,16,17
 34 269 34 269 61.5 201 c 128,-1,18
 89 133 89 133 139.5 83 c 128,-1,19
 190 33 190 33 259 5.5 c 128,-1,20
 328 -22 328 -22 411 -22 c 0,21,22
 493 -22 493 -22 562 5.5 c 128,-1,23
 631 33 631 33 681.5 83 c 128,-1,24
 732 133 732 133 759.5 201 c 128,-1,25
 787 269 787 269 787 350 c 256,26,27
 787 431 787 431 759 498 c 128,-1,28
 731 565 731 565 680 614 c 128,-1,29
 629 663 629 663 560.5 689.5 c 128,-1,30
 492 716 492 716 411 716 c 0,31,32
 331 716 331 716 262 689.5 c 128,-1,33
 193 663 193 663 142 614 c 128,-1,34
 91 565 91 565 62.5 498 c 128,-1,35
 34 431 34 431 34 350 c 256,16,17
EndSplineSet
EndChar

StartChar: Ograve
Encoding: 210 210 65
Width: 821
GlyphClass: 2
Flags: W
LayerCount: 2
Fore
SplineSet
213 350 m 256,0,1
 213 412 213 412 237.5 459.5 c 128,-1,2
 262 507 262 507 306.5 534 c 128,-1,3
 351 561 351 561 411 561 c 0,4,5
 472 561 472 561 516 534 c 128,-1,6
 560 507 560 507 584 459.5 c 128,-1,7
 608 412 608 412 608 350 c 256,8,9
 608 288 608 288 583.5 240.5 c 128,-1,10
 559 193 559 193 514.5 166 c 128,-1,11
 470 139 470 139 411 139 c 0,12,13
 351 139 351 139 306.5 166 c 128,-1,14
 262 193 262 193 237.5 240.5 c 128,-1,15
 213 288 213 288 213 350 c 256,0,1
34 350 m 256,16,17
 34 269 34 269 61.5 201 c 128,-1,18
 89 133 89 133 139.5 83 c 128,-1,19
 190 33 190 33 259 5.5 c 128,-1,20
 328 -22 328 -22 411 -22 c 0,21,22
 493 -22 493 -22 562 5.5 c 128,-1,23
 631 33 631 33 681.5 83 c 128,-1,24
 732 133 732 133 759.5 201 c 128,-1,25
 787 269 787 269 787 350 c 256,26,27
 787 431 787 431 759 498 c 128,-1,28
 731 565 731 565 680 614 c 128,-1,29
 629 663 629 663 560.5 689.5 c 128,-1,30
 492 716 492 716 411 716 c 0,31,32
 331 716 331 716 262 689.5 c 128,-1,33
 193 663 193 663 142 614 c 128,-1,34
 91 565 91 565 62.5 498 c 128,-1,35
 34 431 34 431 34 350 c 256,16,17
263 932 m 1,36,-1
 443 782 l 1,37,-1
 528 825 l 1,38,-1
 378 985 l 1,39,-1
 263 932 l 1,36,-1
EndSplineSet
EndChar

StartChar: Oacute
Encoding: 211 211 66
Width: 821
GlyphClass: 2
Flags: W
LayerCount: 2
Fore
SplineSet
213 350 m 256,0,1
 213 412 213 412 237.5 459.5 c 128,-1,2
 262 507 262 507 306.5 534 c 128,-1,3
 351 561 351 561 411 561 c 0,4,5
 472 561 472 561 516 534 c 128,-1,6
 560 507 560 507 584 459.5 c 128,-1,7
 608 412 608 412 608 350 c 256,8,9
 608 288 608 288 583.5 240.5 c 128,-1,10
 559 193 559 193 514.5 166 c 128,-1,11
 470 139 470 139 411 139 c 0,12,13
 351 139 351 139 306.5 166 c 128,-1,14
 262 193 262 193 237.5 240.5 c 128,-1,15
 213 288 213 288 213 350 c 256,0,1
34 350 m 256,16,17
 34 269 34 269 61.5 201 c 128,-1,18
 89 133 89 133 139.5 83 c 128,-1,19
 190 33 190 33 259 5.5 c 128,-1,20
 328 -22 328 -22 411 -22 c 0,21,22
 493 -22 493 -22 562 5.5 c 128,-1,23
 631 33 631 33 681.5 83 c 128,-1,24
 732 133 732 133 759.5 201 c 128,-1,25
 787 269 787 269 787 350 c 256,26,27
 787 431 787 431 759 498 c 128,-1,28
 731 565 731 565 680 614 c 128,-1,29
 629 663 629 663 560.5 689.5 c 128,-1,30
 492 716 492 716 411 716 c 0,31,32
 331 716 331 716 262 689.5 c 128,-1,33
 193 663 193 663 142 614 c 128,-1,34
 91 565 91 565 62.5 498 c 128,-1,35
 34 431 34 431 34 350 c 256,16,17
574 932 m 1,36,-1
 459 985 l 1,37,-1
 309 825 l 1,38,-1
 394 782 l 1,39,-1
 574 932 l 1,36,-1
EndSplineSet
EndChar

StartChar: Ocircumflex
Encoding: 212 212 67
Width: 821
GlyphClass: 2
Flags: W
LayerCount: 2
Fore
SplineSet
213 350 m 256,0,1
 213 412 213 412 237.5 459.5 c 128,-1,2
 262 507 262 507 306.5 534 c 128,-1,3
 351 561 351 561 411 561 c 0,4,5
 472 561 472 561 516 534 c 128,-1,6
 560 507 560 507 584 459.5 c 128,-1,7
 608 412 608 412 608 350 c 256,8,9
 608 288 608 288 583.5 240.5 c 128,-1,10
 559 193 559 193 514.5 166 c 128,-1,11
 470 139 470 139 411 139 c 0,12,13
 351 139 351 139 306.5 166 c 128,-1,14
 262 193 262 193 237.5 240.5 c 128,-1,15
 213 288 213 288 213 350 c 256,0,1
34 350 m 256,16,17
 34 269 34 269 61.5 201 c 128,-1,18
 89 133 89 133 139.5 83 c 128,-1,19
 190 33 190 33 259 5.5 c 128,-1,20
 328 -22 328 -22 411 -22 c 0,21,22
 493 -22 493 -22 562 5.5 c 128,-1,23
 631 33 631 33 681.5 83 c 128,-1,24
 732 133 732 133 759.5 201 c 128,-1,25
 787 269 787 269 787 350 c 256,26,27
 787 431 787 431 759 498 c 128,-1,28
 731 565 731 565 680 614 c 128,-1,29
 629 663 629 663 560.5 689.5 c 128,-1,30
 492 716 492 716 411 716 c 0,31,32
 331 716 331 716 262 689.5 c 128,-1,33
 193 663 193 663 142 614 c 128,-1,34
 91 565 91 565 62.5 498 c 128,-1,35
 34 431 34 431 34 350 c 256,16,17
420 862 m 1,36,-1
 511 776 l 1,37,-1
 617 847 l 1,38,-1
 420 987 l 1,39,-1
 223 847 l 1,40,-1
 328 776 l 1,41,-1
 420 862 l 1,36,-1
EndSplineSet
EndChar

StartChar: Otilde
Encoding: 213 213 68
Width: 821
GlyphClass: 2
Flags: W
LayerCount: 2
Fore
SplineSet
213 350 m 256,0,1
 213 412 213 412 237.5 459.5 c 128,-1,2
 262 507 262 507 306.5 534 c 128,-1,3
 351 561 351 561 411 561 c 0,4,5
 472 561 472 561 516 534 c 128,-1,6
 560 507 560 507 584 459.5 c 128,-1,7
 608 412 608 412 608 350 c 256,8,9
 608 288 608 288 583.5 240.5 c 128,-1,10
 559 193 559 193 514.5 166 c 128,-1,11
 470 139 470 139 411 139 c 0,12,13
 351 139 351 139 306.5 166 c 128,-1,14
 262 193 262 193 237.5 240.5 c 128,-1,15
 213 288 213 288 213 350 c 256,0,1
34 350 m 256,16,17
 34 269 34 269 61.5 201 c 128,-1,18
 89 133 89 133 139.5 83 c 128,-1,19
 190 33 190 33 259 5.5 c 128,-1,20
 328 -22 328 -22 411 -22 c 0,21,22
 493 -22 493 -22 562 5.5 c 128,-1,23
 631 33 631 33 681.5 83 c 128,-1,24
 732 133 732 133 759.5 201 c 128,-1,25
 787 269 787 269 787 350 c 256,26,27
 787 431 787 431 759 498 c 128,-1,28
 731 565 731 565 680 614 c 128,-1,29
 629 663 629 663 560.5 689.5 c 128,-1,30
 492 716 492 716 411 716 c 0,31,32
 331 716 331 716 262 689.5 c 128,-1,33
 193 663 193 663 142 614 c 128,-1,34
 91 565 91 565 62.5 498 c 128,-1,35
 34 431 34 431 34 350 c 256,16,17
221 839 m 1,36,-1
 292 777 l 1,37,38
 292 785 292 785 296 797 c 128,-1,39
 300 809 300 809 310 818.5 c 128,-1,40
 320 828 320 828 339 828 c 0,41,42
 364 828 364 828 385 814.5 c 128,-1,43
 406 801 406 801 429 788 c 128,-1,44
 452 775 452 775 479 775 c 0,45,46
 510 775 510 775 537.5 788.5 c 128,-1,47
 565 802 565 802 585 822 c 128,-1,48
 605 842 605 842 613 860 c 1,49,-1
 542 934 l 1,50,51
 527 910 527 910 511.5 895.5 c 128,-1,52
 496 881 496 881 477 881 c 0,53,54
 455 881 455 881 440.5 889 c 128,-1,55
 426 897 426 897 412.5 907 c 128,-1,56
 399 917 399 917 382 925 c 128,-1,57
 365 933 365 933 340 933 c 0,58,59
 309 933 309 933 283.5 919.5 c 128,-1,60
 258 906 258 906 242 885 c 128,-1,61
 226 864 226 864 221 839 c 1,36,-1
EndSplineSet
EndChar

StartChar: Odieresis
Encoding: 214 214 69
Width: 821
GlyphClass: 2
Flags: W
LayerCount: 2
Fore
SplineSet
213 350 m 256,0,1
 213 412 213 412 237.5 459.5 c 128,-1,2
 262 507 262 507 306.5 534 c 128,-1,3
 351 561 351 561 411 561 c 0,4,5
 472 561 472 561 516 534 c 128,-1,6
 560 507 560 507 584 459.5 c 128,-1,7
 608 412 608 412 608 350 c 256,8,9
 608 288 608 288 583.5 240.5 c 128,-1,10
 559 193 559 193 514.5 166 c 128,-1,11
 470 139 470 139 411 139 c 0,12,13
 351 139 351 139 306.5 166 c 128,-1,14
 262 193 262 193 237.5 240.5 c 128,-1,15
 213 288 213 288 213 350 c 256,0,1
34 350 m 256,16,17
 34 269 34 269 61.5 201 c 128,-1,18
 89 133 89 133 139.5 83 c 128,-1,19
 190 33 190 33 259 5.5 c 128,-1,20
 328 -22 328 -22 411 -22 c 0,21,22
 493 -22 493 -22 562 5.5 c 128,-1,23
 631 33 631 33 681.5 83 c 128,-1,24
 732 133 732 133 759.5 201 c 128,-1,25
 787 269 787 269 787 350 c 256,26,27
 787 431 787 431 759 498 c 128,-1,28
 731 565 731 565 680 614 c 128,-1,29
 629 663 629 663 560.5 689.5 c 128,-1,30
 492 716 492 716 411 716 c 0,31,32
 331 716 331 716 262 689.5 c 128,-1,33
 193 663 193 663 142 614 c 128,-1,34
 91 565 91 565 62.5 498 c 128,-1,35
 34 431 34 431 34 350 c 256,16,17
444 858 m 256,36,37
 444 822 444 822 470 799 c 128,-1,38
 496 776 496 776 532 776 c 0,39,40
 569 776 569 776 594.5 799 c 128,-1,41
 620 822 620 822 620 858 c 256,42,43
 620 894 620 894 594.5 917 c 128,-1,44
 569 940 569 940 532 940 c 0,45,46
 496 940 496 940 470 917 c 128,-1,47
 444 894 444 894 444 858 c 256,36,37
201 858 m 256,48,49
 201 822 201 822 226.5 799 c 128,-1,50
 252 776 252 776 289 776 c 0,51,52
 325 776 325 776 351 799 c 128,-1,53
 377 822 377 822 377 858 c 256,54,55
 377 894 377 894 351 917 c 128,-1,56
 325 940 325 940 289 940 c 0,57,58
 252 940 252 940 226.5 917 c 128,-1,59
 201 894 201 894 201 858 c 256,48,49
EndSplineSet
EndChar

StartChar: Omacron
Encoding: 332 332 70
Width: 821
GlyphClass: 2
Flags: W
LayerCount: 2
Fore
SplineSet
213 350 m 256,0,1
 213 412 213 412 237.5 459.5 c 128,-1,2
 262 507 262 507 306.5 534 c 128,-1,3
 351 561 351 561 411 561 c 0,4,5
 472 561 472 561 516 534 c 128,-1,6
 560 507 560 507 584 459.5 c 128,-1,7
 608 412 608 412 608 350 c 256,8,9
 608 288 608 288 583.5 240.5 c 128,-1,10
 559 193 559 193 514.5 166 c 128,-1,11
 470 139 470 139 411 139 c 0,12,13
 351 139 351 139 306.5 166 c 128,-1,14
 262 193 262 193 237.5 240.5 c 128,-1,15
 213 288 213 288 213 350 c 256,0,1
34 350 m 256,16,17
 34 269 34 269 61.5 201 c 128,-1,18
 89 133 89 133 139.5 83 c 128,-1,19
 190 33 190 33 259 5.5 c 128,-1,20
 328 -22 328 -22 411 -22 c 0,21,22
 493 -22 493 -22 562 5.5 c 128,-1,23
 631 33 631 33 681.5 83 c 128,-1,24
 732 133 732 133 759.5 201 c 128,-1,25
 787 269 787 269 787 350 c 256,26,27
 787 431 787 431 759 498 c 128,-1,28
 731 565 731 565 680 614 c 128,-1,29
 629 663 629 663 560.5 689.5 c 128,-1,30
 492 716 492 716 411 716 c 0,31,32
 331 716 331 716 262 689.5 c 128,-1,33
 193 663 193 663 142 614 c 128,-1,34
 91 565 91 565 62.5 498 c 128,-1,35
 34 431 34 431 34 350 c 256,16,17
225 776 m 1,36,-1
 596 776 l 1,37,-1
 596 907 l 1,38,-1
 225 907 l 1,39,-1
 225 776 l 1,36,-1
EndSplineSet
EndChar

StartChar: Obreve
Encoding: 334 334 71
Width: 821
GlyphClass: 2
Flags: W
LayerCount: 2
Fore
SplineSet
213 350 m 256,0,1
 213 412 213 412 237.5 459.5 c 128,-1,2
 262 507 262 507 306.5 534 c 128,-1,3
 351 561 351 561 411 561 c 0,4,5
 472 561 472 561 516 534 c 128,-1,6
 560 507 560 507 584 459.5 c 128,-1,7
 608 412 608 412 608 350 c 256,8,9
 608 288 608 288 583.5 240.5 c 128,-1,10
 559 193 559 193 514.5 166 c 128,-1,11
 470 139 470 139 411 139 c 0,12,13
 351 139 351 139 306.5 166 c 128,-1,14
 262 193 262 193 237.5 240.5 c 128,-1,15
 213 288 213 288 213 350 c 256,0,1
34 350 m 256,16,17
 34 269 34 269 61.5 201 c 128,-1,18
 89 133 89 133 139.5 83 c 128,-1,19
 190 33 190 33 259 5.5 c 128,-1,20
 328 -22 328 -22 411 -22 c 0,21,22
 493 -22 493 -22 562 5.5 c 128,-1,23
 631 33 631 33 681.5 83 c 128,-1,24
 732 133 732 133 759.5 201 c 128,-1,25
 787 269 787 269 787 350 c 256,26,27
 787 431 787 431 759 498 c 128,-1,28
 731 565 731 565 680 614 c 128,-1,29
 629 663 629 663 560.5 689.5 c 128,-1,30
 492 716 492 716 411 716 c 0,31,32
 331 716 331 716 262 689.5 c 128,-1,33
 193 663 193 663 142 614 c 128,-1,34
 91 565 91 565 62.5 498 c 128,-1,35
 34 431 34 431 34 350 c 256,16,17
246 922 m 1,36,37
 246 882 246 882 265 848.5 c 128,-1,38
 284 815 284 815 321.5 795.5 c 128,-1,39
 359 776 359 776 411 776 c 0,40,41
 464 776 464 776 500.5 795.5 c 128,-1,42
 537 815 537 815 556 848.5 c 128,-1,43
 575 882 575 882 575 922 c 1,44,-1
 476 922 l 1,45,46
 476 905 476 905 467.5 891.5 c 128,-1,47
 459 878 459 878 444.5 870.5 c 128,-1,48
 430 863 430 863 411 863 c 0,49,50
 391 863 391 863 376.5 870.5 c 128,-1,51
 362 878 362 878 353.5 891.5 c 128,-1,52
 345 905 345 905 345 922 c 1,53,-1
 246 922 l 1,36,37
EndSplineSet
EndChar

StartChar: P
Encoding: 80 80 73
Width: 623
GlyphClass: 2
Flags: W
LayerCount: 2
Fore
SplineSet
74 700 m 1,0,-1
 74 0 l 1,1,-1
 243 0 l 1,2,-1
 243 700 l 1,3,-1
 74 700 l 1,0,-1
180 561 m 1,4,-1
 317 561 l 2,5,6
 368 561 368 561 397 538 c 128,-1,7
 426 515 426 515 426 471 c 0,8,9
 426 428 426 428 397 405 c 128,-1,10
 368 382 368 382 317 382 c 2,11,-1
 180 382 l 1,12,-1
 180 243 l 1,13,-1
 317 243 l 2,14,15
 406 243 406 243 466.5 270.5 c 128,-1,16
 527 298 527 298 558 349.5 c 128,-1,17
 589 401 589 401 589 471 c 0,18,19
 589 543 589 543 558 594 c 128,-1,20
 527 645 527 645 466.5 672.5 c 128,-1,21
 406 700 406 700 317 700 c 2,22,-1
 180 700 l 1,23,-1
 180 561 l 1,4,-1
EndSplineSet
EndChar

StartChar: Q
Encoding: 81 81 74
Width: 863
GlyphClass: 2
Flags: W
LayerCount: 2
Fore
SplineSet
213 350 m 0,0,1
 213 412 213 412 238.5 459.5 c 128,-1,2
 264 507 264 507 309 534 c 128,-1,3
 354 561 354 561 414 561 c 0,4,5
 481 561 481 561 528.5 529.5 c 128,-1,6
 576 498 576 498 601.5 446 c 128,-1,7
 627 394 627 394 627 331 c 0,8,9
 627 270 627 270 601.5 223.5 c 128,-1,10
 576 177 576 177 531 152 c 128,-1,11
 486 127 486 127 426 127 c 0,12,13
 367 127 367 127 318.5 154.5 c 128,-1,14
 270 182 270 182 241.5 232 c 128,-1,15
 213 282 213 282 213 350 c 0,0,1
34 350 m 256,16,17
 34 269 34 269 62 201 c 128,-1,18
 90 133 90 133 141.5 83 c 128,-1,19
 193 33 193 33 262 5.5 c 128,-1,20
 331 -22 331 -22 414 -22 c 0,21,22
 496 -22 496 -22 564.5 5.5 c 128,-1,23
 633 33 633 33 683 83 c 128,-1,24
 733 133 733 133 760 201 c 128,-1,25
 787 269 787 269 787 350 c 256,26,27
 787 431 787 431 759.5 498 c 128,-1,28
 732 565 732 565 681.5 614 c 128,-1,29
 631 663 631 663 563 689.5 c 128,-1,30
 495 716 495 716 414 716 c 0,31,32
 334 716 334 716 265 689.5 c 128,-1,33
 196 663 196 663 144 614 c 128,-1,34
 92 565 92 565 63 498 c 128,-1,35
 34 431 34 431 34 350 c 256,16,17
357 300 m 1,36,-1
 688 -12 l 1,37,-1
 869 -12 l 1,38,-1
 532 300 l 1,39,-1
 357 300 l 1,36,-1
EndSplineSet
EndChar

StartChar: R
Encoding: 82 82 75
Width: 647
GlyphClass: 2
Flags: W
LayerCount: 2
Fore
SplineSet
248 317 m 1,0,-1
 445 0 l 1,1,-1
 643 0 l 1,2,-1
 424 317 l 1,3,-1
 248 317 l 1,0,-1
74 700 m 1,4,-1
 74 0 l 1,5,-1
 243 0 l 1,6,-1
 243 700 l 1,7,-1
 74 700 l 1,4,-1
180 557 m 1,8,-1
 317 557 l 2,9,10
 351 557 351 557 375.5 546 c 128,-1,11
 400 535 400 535 413 514.5 c 128,-1,12
 426 494 426 494 426 465 c 256,13,14
 426 436 426 436 413 415.5 c 128,-1,15
 400 395 400 395 375.5 384.5 c 128,-1,16
 351 374 351 374 317 374 c 2,17,-1
 180 374 l 1,18,-1
 180 243 l 1,19,-1
 329 243 l 2,20,21
 419 243 419 243 479 272 c 128,-1,22
 539 301 539 301 570 352.5 c 128,-1,23
 601 404 601 404 601 471 c 0,24,25
 601 539 601 539 570 590.5 c 128,-1,26
 539 642 539 642 479 671 c 128,-1,27
 419 700 419 700 329 700 c 2,28,-1
 180 700 l 1,29,-1
 180 557 l 1,8,-1
EndSplineSet
EndChar

StartChar: Racute
Encoding: 340 340 76
Width: 647
GlyphClass: 2
Flags: W
LayerCount: 2
Fore
SplineSet
248 317 m 1,0,-1
 445 0 l 1,1,-1
 643 0 l 1,2,-1
 424 317 l 1,3,-1
 248 317 l 1,0,-1
74 700 m 1,4,-1
 74 0 l 1,5,-1
 243 0 l 1,6,-1
 243 700 l 1,7,-1
 74 700 l 1,4,-1
180 557 m 1,8,-1
 317 557 l 2,9,10
 351 557 351 557 375.5 546 c 128,-1,11
 400 535 400 535 413 514.5 c 128,-1,12
 426 494 426 494 426 465 c 256,13,14
 426 436 426 436 413 415.5 c 128,-1,15
 400 395 400 395 375.5 384.5 c 128,-1,16
 351 374 351 374 317 374 c 2,17,-1
 180 374 l 1,18,-1
 180 243 l 1,19,-1
 329 243 l 2,20,21
 419 243 419 243 479 272 c 128,-1,22
 539 301 539 301 570 352.5 c 128,-1,23
 601 404 601 404 601 471 c 0,24,25
 601 539 601 539 570 590.5 c 128,-1,26
 539 642 539 642 479 671 c 128,-1,27
 419 700 419 700 329 700 c 2,28,-1
 180 700 l 1,29,-1
 180 557 l 1,8,-1
469 926 m 1,30,-1
 354 979 l 1,31,-1
 204 819 l 1,32,-1
 289 776 l 1,33,-1
 469 926 l 1,30,-1
EndSplineSet
EndChar

StartChar: uni0156
Encoding: 342 342 77
Width: 647
GlyphClass: 2
Flags: W
LayerCount: 2
Fore
SplineSet
248 317 m 1,0,-1
 445 0 l 1,1,-1
 643 0 l 1,2,-1
 424 317 l 1,3,-1
 248 317 l 1,0,-1
74 700 m 1,4,-1
 74 0 l 1,5,-1
 243 0 l 1,6,-1
 243 700 l 1,7,-1
 74 700 l 1,4,-1
180 557 m 1,8,-1
 317 557 l 2,9,10
 351 557 351 557 375.5 546 c 128,-1,11
 400 535 400 535 413 514.5 c 128,-1,12
 426 494 426 494 426 465 c 256,13,14
 426 436 426 436 413 415.5 c 128,-1,15
 400 395 400 395 375.5 384.5 c 128,-1,16
 351 374 351 374 317 374 c 2,17,-1
 180 374 l 1,18,-1
 180 243 l 1,19,-1
 329 243 l 2,20,21
 419 243 419 243 479 272 c 128,-1,22
 539 301 539 301 570 352.5 c 128,-1,23
 601 404 601 404 601 471 c 0,24,25
 601 539 601 539 570 590.5 c 128,-1,26
 539 642 539 642 479 671 c 128,-1,27
 419 700 419 700 329 700 c 2,28,-1
 180 700 l 1,29,-1
 180 557 l 1,8,-1
327 -60 m 1,30,-1
 239 -319 l 1,31,-1
 353 -342 l 1,32,-1
 478 -92 l 1,33,-1
 327 -60 l 1,30,-1
EndSplineSet
EndChar

StartChar: Rcaron
Encoding: 344 344 78
Width: 647
GlyphClass: 2
Flags: W
LayerCount: 2
Fore
SplineSet
248 317 m 1,0,-1
 445 0 l 1,1,-1
 643 0 l 1,2,-1
 424 317 l 1,3,-1
 248 317 l 1,0,-1
74 700 m 1,4,-1
 74 0 l 1,5,-1
 243 0 l 1,6,-1
 243 700 l 1,7,-1
 74 700 l 1,4,-1
180 557 m 1,8,-1
 317 557 l 2,9,10
 351 557 351 557 375.5 546 c 128,-1,11
 400 535 400 535 413 514.5 c 128,-1,12
 426 494 426 494 426 465 c 256,13,14
 426 436 426 436 413 415.5 c 128,-1,15
 400 395 400 395 375.5 384.5 c 128,-1,16
 351 374 351 374 317 374 c 2,17,-1
 180 374 l 1,18,-1
 180 243 l 1,19,-1
 329 243 l 2,20,21
 419 243 419 243 479 272 c 128,-1,22
 539 301 539 301 570 352.5 c 128,-1,23
 601 404 601 404 601 471 c 0,24,25
 601 539 601 539 570 590.5 c 128,-1,26
 539 642 539 642 479 671 c 128,-1,27
 419 700 419 700 329 700 c 2,28,-1
 180 700 l 1,29,-1
 180 557 l 1,8,-1
313 902 m 1,30,-1
 221 987 l 1,31,-1
 116 916 l 1,32,-1
 313 776 l 1,33,-1
 510 916 l 1,34,-1
 404 987 l 1,35,-1
 313 902 l 1,30,-1
EndSplineSet
EndChar

StartChar: uni0212
Encoding: 530 530 79
Width: 647
GlyphClass: 2
Flags: W
LayerCount: 2
Fore
SplineSet
248 317 m 1,0,-1
 445 0 l 1,1,-1
 643 0 l 1,2,-1
 424 317 l 1,3,-1
 248 317 l 1,0,-1
74 700 m 1,4,-1
 74 0 l 1,5,-1
 243 0 l 1,6,-1
 243 700 l 1,7,-1
 74 700 l 1,4,-1
180 557 m 1,8,-1
 317 557 l 2,9,10
 351 557 351 557 375.5 546 c 128,-1,11
 400 535 400 535 413 514.5 c 128,-1,12
 426 494 426 494 426 465 c 256,13,14
 426 436 426 436 413 415.5 c 128,-1,15
 400 395 400 395 375.5 384.5 c 128,-1,16
 351 374 351 374 317 374 c 2,17,-1
 180 374 l 1,18,-1
 180 243 l 1,19,-1
 329 243 l 2,20,21
 419 243 419 243 479 272 c 128,-1,22
 539 301 539 301 570 352.5 c 128,-1,23
 601 404 601 404 601 471 c 0,24,25
 601 539 601 539 570 590.5 c 128,-1,26
 539 642 539 642 479 671 c 128,-1,27
 419 700 419 700 329 700 c 2,28,-1
 180 700 l 1,29,-1
 180 557 l 1,8,-1
162 776 m 1,30,31
 162 817 162 817 181 850 c 128,-1,32
 200 883 200 883 237.5 902.5 c 128,-1,33
 275 922 275 922 327 922 c 0,34,35
 380 922 380 922 416.5 902.5 c 128,-1,36
 453 883 453 883 472 850 c 128,-1,37
 491 817 491 817 491 776 c 1,38,-1
 392 776 l 1,39,40
 392 794 392 794 383.5 807 c 128,-1,41
 375 820 375 820 360.5 828 c 128,-1,42
 346 836 346 836 327 836 c 0,43,44
 307 836 307 836 292.5 828 c 128,-1,45
 278 820 278 820 269.5 807 c 128,-1,46
 261 794 261 794 261 776 c 1,47,-1
 162 776 l 1,30,31
EndSplineSet
EndChar

StartChar: S
Encoding: 83 83 80
Width: 625
GlyphClass: 2
Flags: W
LayerCount: 2
Fore
SplineSet
151 246 m 1,0,-1
 33 161 l 1,1,2
 57 111 57 111 100 69 c 128,-1,3
 143 27 143 27 201.5 2.5 c 128,-1,4
 260 -22 260 -22 328 -22 c 0,5,6
 377 -22 377 -22 423.5 -7.5 c 128,-1,7
 470 7 470 7 506.5 35 c 128,-1,8
 543 63 543 63 564.5 104.5 c 128,-1,9
 586 146 586 146 586 199 c 0,10,11
 586 243 586 243 572 277 c 128,-1,12
 558 311 558 311 533.5 337 c 128,-1,13
 509 363 509 363 477 381.5 c 128,-1,14
 445 400 445 400 408 414 c 0,15,16
 359 431 359 431 324.5 446 c 128,-1,17
 290 461 290 461 271.5 479 c 128,-1,18
 253 497 253 497 253 521 c 0,19,20
 253 544 253 544 272 559.5 c 128,-1,21
 291 575 291 575 327 575 c 0,22,23
 354 575 354 575 377.5 564.5 c 128,-1,24
 401 554 401 554 420.5 535.5 c 128,-1,25
 440 517 440 517 455 492 c 1,26,-1
 584 564 l 1,27,28
 566 600 566 600 532 635 c 128,-1,29
 498 670 498 670 446.5 693 c 128,-1,30
 395 716 395 716 325 716 c 0,31,32
 257 716 257 716 201.5 692.5 c 128,-1,33
 146 669 146 669 113.5 624 c 128,-1,34
 81 579 81 579 81 517 c 0,35,36
 81 465 81 465 100 428.5 c 128,-1,37
 119 392 119 392 148 366.5 c 128,-1,38
 177 341 177 341 209.5 325 c 128,-1,39
 242 309 242 309 267 300 c 0,40,41
 318 281 318 281 349 266 c 128,-1,42
 380 251 380 251 394 234.5 c 128,-1,43
 408 218 408 218 408 191 c 0,44,45
 408 159 408 159 384 140.5 c 128,-1,46
 360 122 360 122 323 122 c 0,47,48
 288 122 288 122 256.5 137 c 128,-1,49
 225 152 225 152 198.5 180 c 128,-1,50
 172 208 172 208 151 246 c 1,0,-1
EndSplineSet
EndChar

StartChar: Sacute
Encoding: 346 346 81
Width: 625
GlyphClass: 2
Flags: W
LayerCount: 2
Fore
SplineSet
153 251 m 1,0,-1
 34 167 l 1,1,2
 56 110 56 110 98.5 67.5 c 128,-1,3
 141 25 141 25 198 1.5 c 128,-1,4
 255 -22 255 -22 319 -22 c 0,5,6
 401 -22 401 -22 460.5 3 c 128,-1,7
 520 28 520 28 553 76.5 c 128,-1,8
 586 125 586 125 586 196 c 0,9,10
 586 242 586 242 572 276.5 c 128,-1,11
 558 311 558 311 533.5 337 c 128,-1,12
 509 363 509 363 476.5 381.5 c 128,-1,13
 444 400 444 400 408 413 c 0,14,15
 367 428 367 428 330 442 c 128,-1,16
 293 456 293 456 270 472.5 c 128,-1,17
 247 489 247 489 247 513 c 0,18,19
 247 532 247 532 257 545 c 128,-1,20
 267 558 267 558 285.5 565.5 c 128,-1,21
 304 573 304 573 328 573 c 0,22,23
 355 573 355 573 377 563 c 128,-1,24
 399 553 399 553 416.5 534 c 128,-1,25
 434 515 434 515 449 489 c 1,26,-1
 577 562 l 1,27,28
 563 598 563 598 531 633.5 c 128,-1,29
 499 669 499 669 448 692.5 c 128,-1,30
 397 716 397 716 321 716 c 0,31,32
 248 716 248 716 192.5 692 c 128,-1,33
 137 668 137 668 105.5 623.5 c 128,-1,34
 74 579 74 579 74 519 c 0,35,36
 74 468 74 468 94 431.5 c 128,-1,37
 114 395 114 395 143.5 369.5 c 128,-1,38
 173 344 173 344 206 328 c 128,-1,39
 239 312 239 312 264 302 c 0,40,41
 304 287 304 287 336.5 273 c 128,-1,42
 369 259 369 259 388.5 240.5 c 128,-1,43
 408 222 408 222 408 193 c 0,44,45
 408 170 408 170 398.5 155 c 128,-1,46
 389 140 389 140 370 132.5 c 128,-1,47
 351 125 351 125 323 125 c 256,48,49
 295 125 295 125 271.5 132.5 c 128,-1,50
 248 140 248 140 228 156 c 128,-1,51
 208 172 208 172 189.5 196 c 128,-1,52
 171 220 171 220 153 251 c 1,0,-1
501 926 m 1,53,-1
 385 979 l 1,54,-1
 235 819 l 1,55,-1
 321 776 l 1,56,-1
 501 926 l 1,53,-1
EndSplineSet
EndChar

StartChar: Scircumflex
Encoding: 348 348 82
Width: 625
GlyphClass: 2
Flags: W
LayerCount: 2
Fore
SplineSet
153 251 m 1,0,-1
 34 167 l 1,1,2
 56 110 56 110 98.5 67.5 c 128,-1,3
 141 25 141 25 198 1.5 c 128,-1,4
 255 -22 255 -22 319 -22 c 0,5,6
 401 -22 401 -22 460.5 3 c 128,-1,7
 520 28 520 28 553 76.5 c 128,-1,8
 586 125 586 125 586 196 c 0,9,10
 586 242 586 242 572 276.5 c 128,-1,11
 558 311 558 311 533.5 337 c 128,-1,12
 509 363 509 363 476.5 381.5 c 128,-1,13
 444 400 444 400 408 413 c 0,14,15
 367 428 367 428 330 442 c 128,-1,16
 293 456 293 456 270 472.5 c 128,-1,17
 247 489 247 489 247 513 c 0,18,19
 247 532 247 532 257 545 c 128,-1,20
 267 558 267 558 285.5 565.5 c 128,-1,21
 304 573 304 573 328 573 c 0,22,23
 355 573 355 573 377 563 c 128,-1,24
 399 553 399 553 416.5 534 c 128,-1,25
 434 515 434 515 449 489 c 1,26,-1
 577 562 l 1,27,28
 563 598 563 598 531 633.5 c 128,-1,29
 499 669 499 669 448 692.5 c 128,-1,30
 397 716 397 716 321 716 c 0,31,32
 248 716 248 716 192.5 692 c 128,-1,33
 137 668 137 668 105.5 623.5 c 128,-1,34
 74 579 74 579 74 519 c 0,35,36
 74 468 74 468 94 431.5 c 128,-1,37
 114 395 114 395 143.5 369.5 c 128,-1,38
 173 344 173 344 206 328 c 128,-1,39
 239 312 239 312 264 302 c 0,40,41
 304 287 304 287 336.5 273 c 128,-1,42
 369 259 369 259 388.5 240.5 c 128,-1,43
 408 222 408 222 408 193 c 0,44,45
 408 170 408 170 398.5 155 c 128,-1,46
 389 140 389 140 370 132.5 c 128,-1,47
 351 125 351 125 323 125 c 256,48,49
 295 125 295 125 271.5 132.5 c 128,-1,50
 248 140 248 140 228 156 c 128,-1,51
 208 172 208 172 189.5 196 c 128,-1,52
 171 220 171 220 153 251 c 1,0,-1
321 862 m 1,53,-1
 412 776 l 1,54,-1
 518 847 l 1,55,-1
 321 987 l 1,56,-1
 124 847 l 1,57,-1
 230 776 l 1,58,-1
 321 862 l 1,53,-1
EndSplineSet
EndChar

StartChar: Scedilla
Encoding: 350 350 83
Width: 625
GlyphClass: 2
Flags: W
LayerCount: 2
Fore
SplineSet
153 251 m 1,0,-1
 34 167 l 1,1,2
 56 110 56 110 98.5 67.5 c 128,-1,3
 141 25 141 25 198 1.5 c 128,-1,4
 255 -22 255 -22 319 -22 c 0,5,6
 399 -22 399 -22 459 3 c 128,-1,7
 519 28 519 28 552.5 76.5 c 128,-1,8
 586 125 586 125 586 196 c 0,9,10
 586 242 586 242 572 276.5 c 128,-1,11
 558 311 558 311 533.5 337 c 128,-1,12
 509 363 509 363 476.5 381.5 c 128,-1,13
 444 400 444 400 408 413 c 0,14,15
 367 428 367 428 330 442 c 128,-1,16
 293 456 293 456 270 472.5 c 128,-1,17
 247 489 247 489 247 513 c 0,18,19
 247 532 247 532 256 545 c 128,-1,20
 265 558 265 558 282.5 565.5 c 128,-1,21
 300 573 300 573 324 573 c 0,22,23
 351 573 351 573 374 563 c 128,-1,24
 397 553 397 553 415.5 534 c 128,-1,25
 434 515 434 515 449 489 c 1,26,-1
 577 562 l 1,27,28
 561 600 561 600 529.5 635.5 c 128,-1,29
 498 671 498 671 447.5 693.5 c 128,-1,30
 397 716 397 716 321 716 c 0,31,32
 246 716 246 716 191 691 c 128,-1,33
 136 666 136 666 105 621.5 c 128,-1,34
 74 577 74 577 74 518 c 0,35,36
 74 465 74 465 94 428.5 c 128,-1,37
 114 392 114 392 143.5 367.5 c 128,-1,38
 173 343 173 343 206 327.5 c 128,-1,39
 239 312 239 312 264 302 c 0,40,41
 304 287 304 287 336.5 273 c 128,-1,42
 369 259 369 259 388.5 240.5 c 128,-1,43
 408 222 408 222 408 193 c 0,44,45
 408 170 408 170 398.5 155 c 128,-1,46
 389 140 389 140 370 132.5 c 128,-1,47
 351 125 351 125 323 125 c 256,48,49
 295 125 295 125 271.5 132.5 c 128,-1,50
 248 140 248 140 228 156 c 128,-1,51
 208 172 208 172 189.5 196 c 128,-1,52
 171 220 171 220 153 251 c 1,0,-1
291 61 m 1,53,-1
 203 -134 l 1,54,55
 229 -123 229 -123 254 -120.5 c 128,-1,56
 279 -118 279 -118 286 -118 c 0,57,58
 309 -118 309 -118 327.5 -124 c 128,-1,59
 346 -130 346 -130 346 -150 c 0,60,61
 346 -168 346 -168 332 -176.5 c 128,-1,62
 318 -185 318 -185 292 -185 c 0,63,64
 277 -185 277 -185 254.5 -179.5 c 128,-1,65
 232 -174 232 -174 214 -160 c 1,66,-1
 168 -228 l 1,67,68
 203 -251 203 -251 236.5 -259.5 c 128,-1,69
 270 -268 270 -268 312 -268 c 0,70,71
 343 -268 343 -268 373 -255.5 c 128,-1,72
 403 -243 403 -243 423 -218.5 c 128,-1,73
 443 -194 443 -194 443 -159 c 0,74,75
 443 -126 443 -126 428.5 -104 c 128,-1,76
 414 -82 414 -82 392.5 -71.5 c 128,-1,77
 371 -61 371 -61 351 -61 c 0,78,79
 341 -61 341 -61 332 -61.5 c 128,-1,80
 323 -62 323 -62 315 -65 c 1,81,-1
 401 57 l 1,82,-1
 291 61 l 1,53,-1
EndSplineSet
EndChar

StartChar: Scaron
Encoding: 352 352 84
Width: 625
GlyphClass: 2
Flags: W
LayerCount: 2
Fore
SplineSet
153 251 m 1,0,-1
 34 167 l 1,1,2
 56 110 56 110 98.5 67.5 c 128,-1,3
 141 25 141 25 198 1.5 c 128,-1,4
 255 -22 255 -22 319 -22 c 0,5,6
 401 -22 401 -22 460.5 3 c 128,-1,7
 520 28 520 28 553 76.5 c 128,-1,8
 586 125 586 125 586 196 c 0,9,10
 586 242 586 242 572 276.5 c 128,-1,11
 558 311 558 311 533.5 337 c 128,-1,12
 509 363 509 363 476.5 381.5 c 128,-1,13
 444 400 444 400 408 413 c 0,14,15
 367 428 367 428 330 442 c 128,-1,16
 293 456 293 456 270 472.5 c 128,-1,17
 247 489 247 489 247 513 c 0,18,19
 247 532 247 532 257 545 c 128,-1,20
 267 558 267 558 285.5 565.5 c 128,-1,21
 304 573 304 573 328 573 c 0,22,23
 355 573 355 573 377 563 c 128,-1,24
 399 553 399 553 416.5 534 c 128,-1,25
 434 515 434 515 449 489 c 1,26,-1
 577 562 l 1,27,28
 563 598 563 598 531 633.5 c 128,-1,29
 499 669 499 669 448 692.5 c 128,-1,30
 397 716 397 716 321 716 c 0,31,32
 248 716 248 716 192.5 692 c 128,-1,33
 137 668 137 668 105.5 623.5 c 128,-1,34
 74 579 74 579 74 519 c 0,35,36
 74 468 74 468 94 431.5 c 128,-1,37
 114 395 114 395 143.5 369.5 c 128,-1,38
 173 344 173 344 206 328 c 128,-1,39
 239 312 239 312 264 302 c 0,40,41
 304 287 304 287 336.5 273 c 128,-1,42
 369 259 369 259 388.5 240.5 c 128,-1,43
 408 222 408 222 408 193 c 0,44,45
 408 170 408 170 398.5 155 c 128,-1,46
 389 140 389 140 370 132.5 c 128,-1,47
 351 125 351 125 323 125 c 256,48,49
 295 125 295 125 271.5 132.5 c 128,-1,50
 248 140 248 140 228 156 c 128,-1,51
 208 172 208 172 189.5 196 c 128,-1,52
 171 220 171 220 153 251 c 1,0,-1
321 902 m 1,53,-1
 230 987 l 1,54,-1
 124 916 l 1,55,-1
 321 776 l 1,56,-1
 518 916 l 1,57,-1
 412 987 l 1,58,-1
 321 902 l 1,53,-1
EndSplineSet
EndChar

StartChar: uni0218
Encoding: 536 536 85
Width: 625
GlyphClass: 2
Flags: W
LayerCount: 2
Fore
SplineSet
153 251 m 1,0,-1
 34 167 l 1,1,2
 56 110 56 110 98.5 67.5 c 128,-1,3
 141 25 141 25 198 1.5 c 128,-1,4
 255 -22 255 -22 319 -22 c 0,5,6
 401 -22 401 -22 460.5 3 c 128,-1,7
 520 28 520 28 553 76.5 c 128,-1,8
 586 125 586 125 586 196 c 0,9,10
 586 242 586 242 572 276.5 c 128,-1,11
 558 311 558 311 533.5 337 c 128,-1,12
 509 363 509 363 476.5 381.5 c 128,-1,13
 444 400 444 400 408 413 c 0,14,15
 367 428 367 428 330 442 c 128,-1,16
 293 456 293 456 270 472.5 c 128,-1,17
 247 489 247 489 247 513 c 0,18,19
 247 532 247 532 257 545 c 128,-1,20
 267 558 267 558 285.5 565.5 c 128,-1,21
 304 573 304 573 328 573 c 0,22,23
 355 573 355 573 377 563 c 128,-1,24
 399 553 399 553 416.5 534 c 128,-1,25
 434 515 434 515 449 489 c 1,26,-1
 577 562 l 1,27,28
 563 598 563 598 531 633.5 c 128,-1,29
 499 669 499 669 448 692.5 c 128,-1,30
 397 716 397 716 321 716 c 0,31,32
 248 716 248 716 192.5 692 c 128,-1,33
 137 668 137 668 105.5 623.5 c 128,-1,34
 74 579 74 579 74 519 c 0,35,36
 74 468 74 468 94 431.5 c 128,-1,37
 114 395 114 395 143.5 369.5 c 128,-1,38
 173 344 173 344 206 328 c 128,-1,39
 239 312 239 312 264 302 c 0,40,41
 304 287 304 287 336.5 273 c 128,-1,42
 369 259 369 259 388.5 240.5 c 128,-1,43
 408 222 408 222 408 193 c 0,44,45
 408 170 408 170 398.5 155 c 128,-1,46
 389 140 389 140 370 132.5 c 128,-1,47
 351 125 351 125 323 125 c 256,48,49
 295 125 295 125 271.5 132.5 c 128,-1,50
 248 140 248 140 228 156 c 128,-1,51
 208 172 208 172 189.5 196 c 128,-1,52
 171 220 171 220 153 251 c 1,0,-1
262 -70 m 1,53,-1
 174 -329 l 1,54,-1
 288 -352 l 1,55,-1
 414 -102 l 1,56,-1
 262 -70 l 1,53,-1
EndSplineSet
EndChar

StartChar: T
Encoding: 84 84 86
Width: 561
GlyphClass: 2
Flags: W
LayerCount: 2
Fore
SplineSet
4 549 m 1,0,-1
 196 549 l 1,1,-1
 196 0 l 1,2,-1
 365 0 l 1,3,-1
 365 549 l 1,4,-1
 558 549 l 1,5,-1
 558 700 l 1,6,-1
 4 700 l 1,7,-1
 4 549 l 1,0,-1
EndSplineSet
EndChar

StartChar: Tcaron
Encoding: 356 356 88
Width: 561
GlyphClass: 2
Flags: W
LayerCount: 2
Fore
SplineSet
4 549 m 1,0,-1
 196 549 l 1,1,-1
 196 0 l 1,2,-1
 365 0 l 1,3,-1
 365 549 l 1,4,-1
 558 549 l 1,5,-1
 558 700 l 1,6,-1
 4 700 l 1,7,-1
 4 549 l 1,0,-1
281 902 m 1,8,-1
 189 987 l 1,9,-1
 84 916 l 1,10,-1
 281 776 l 1,11,-1
 478 916 l 1,12,-1
 372 987 l 1,13,-1
 281 902 l 1,8,-1
EndSplineSet
EndChar

StartChar: uni021A
Encoding: 538 538 89
Width: 561
GlyphClass: 2
Flags: W
LayerCount: 2
Fore
SplineSet
4 549 m 1,0,-1
 196 549 l 1,1,-1
 196 0 l 1,2,-1
 365 0 l 1,3,-1
 365 549 l 1,4,-1
 558 549 l 1,5,-1
 558 700 l 1,6,-1
 4 700 l 1,7,-1
 4 549 l 1,0,-1
249 -60 m 1,8,-1
 161 -319 l 1,9,-1
 275 -342 l 1,10,-1
 401 -92 l 1,11,-1
 249 -60 l 1,8,-1
EndSplineSet
EndChar

StartChar: U
Encoding: 85 85 90
Width: 701
GlyphClass: 2
Flags: W
LayerCount: 2
Fore
SplineSet
69 700 m 1,0,-1
 69 230 l 2,1,2
 69 164 69 164 90.5 115 c 128,-1,3
 112 66 112 66 150.5 34.5 c 128,-1,4
 189 3 189 3 240 -13 c 128,-1,5
 291 -29 291 -29 350 -29 c 256,6,7
 409 -29 409 -29 460.5 -13 c 128,-1,8
 512 3 512 3 550.5 34.5 c 128,-1,9
 589 66 589 66 610.5 115 c 128,-1,10
 632 164 632 164 632 230 c 2,11,-1
 632 700 l 1,12,-1
 463 700 l 1,13,-1
 463 242 l 2,14,15
 463 189 463 189 435 156 c 128,-1,16
 407 123 407 123 350 123 c 0,17,18
 294 123 294 123 266 156 c 128,-1,19
 238 189 238 189 238 242 c 2,20,-1
 238 700 l 1,21,-1
 69 700 l 1,0,-1
EndSplineSet
EndChar

StartChar: Ugrave
Encoding: 217 217 91
Width: 701
GlyphClass: 2
Flags: W
LayerCount: 2
Fore
SplineSet
69 700 m 1,0,-1
 69 230 l 2,1,2
 69 164 69 164 90.5 115 c 128,-1,3
 112 66 112 66 150.5 34.5 c 128,-1,4
 189 3 189 3 240 -13 c 128,-1,5
 291 -29 291 -29 350 -29 c 256,6,7
 409 -29 409 -29 460.5 -13 c 128,-1,8
 512 3 512 3 550.5 34.5 c 128,-1,9
 589 66 589 66 610.5 115 c 128,-1,10
 632 164 632 164 632 230 c 2,11,-1
 632 700 l 1,12,-1
 463 700 l 1,13,-1
 463 242 l 2,14,15
 463 189 463 189 435 156 c 128,-1,16
 407 123 407 123 350 123 c 0,17,18
 294 123 294 123 266 156 c 128,-1,19
 238 189 238 189 238 242 c 2,20,-1
 238 700 l 1,21,-1
 69 700 l 1,0,-1
189 926 m 1,22,-1
 369 776 l 1,23,-1
 455 819 l 1,24,-1
 305 979 l 1,25,-1
 189 926 l 1,22,-1
EndSplineSet
EndChar

StartChar: Uacute
Encoding: 218 218 92
Width: 701
GlyphClass: 2
Flags: W
LayerCount: 2
Fore
SplineSet
69 700 m 1,0,-1
 69 230 l 2,1,2
 69 164 69 164 90.5 115 c 128,-1,3
 112 66 112 66 150.5 34.5 c 128,-1,4
 189 3 189 3 240 -13 c 128,-1,5
 291 -29 291 -29 350 -29 c 256,6,7
 409 -29 409 -29 460.5 -13 c 128,-1,8
 512 3 512 3 550.5 34.5 c 128,-1,9
 589 66 589 66 610.5 115 c 128,-1,10
 632 164 632 164 632 230 c 2,11,-1
 632 700 l 1,12,-1
 463 700 l 1,13,-1
 463 242 l 2,14,15
 463 189 463 189 435 156 c 128,-1,16
 407 123 407 123 350 123 c 0,17,18
 294 123 294 123 266 156 c 128,-1,19
 238 189 238 189 238 242 c 2,20,-1
 238 700 l 1,21,-1
 69 700 l 1,0,-1
511 926 m 1,22,-1
 396 979 l 1,23,-1
 246 819 l 1,24,-1
 331 776 l 1,25,-1
 511 926 l 1,22,-1
EndSplineSet
EndChar

StartChar: Ucircumflex
Encoding: 219 219 93
Width: 701
GlyphClass: 2
Flags: W
LayerCount: 2
Fore
SplineSet
69 700 m 1,0,-1
 69 230 l 2,1,2
 69 164 69 164 90.5 115 c 128,-1,3
 112 66 112 66 150.5 34.5 c 128,-1,4
 189 3 189 3 240 -13 c 128,-1,5
 291 -29 291 -29 350 -29 c 256,6,7
 409 -29 409 -29 460.5 -13 c 128,-1,8
 512 3 512 3 550.5 34.5 c 128,-1,9
 589 66 589 66 610.5 115 c 128,-1,10
 632 164 632 164 632 230 c 2,11,-1
 632 700 l 1,12,-1
 463 700 l 1,13,-1
 463 242 l 2,14,15
 463 189 463 189 435 156 c 128,-1,16
 407 123 407 123 350 123 c 0,17,18
 294 123 294 123 266 156 c 128,-1,19
 238 189 238 189 238 242 c 2,20,-1
 238 700 l 1,21,-1
 69 700 l 1,0,-1
350 862 m 1,22,-1
 442 776 l 1,23,-1
 548 847 l 1,24,-1
 350 987 l 1,25,-1
 153 847 l 1,26,-1
 259 776 l 1,27,-1
 350 862 l 1,22,-1
EndSplineSet
EndChar

StartChar: Udieresis
Encoding: 220 220 94
Width: 701
GlyphClass: 2
Flags: W
LayerCount: 2
Fore
SplineSet
69 700 m 1,0,-1
 69 230 l 2,1,2
 69 164 69 164 90.5 115 c 128,-1,3
 112 66 112 66 150.5 34.5 c 128,-1,4
 189 3 189 3 240 -13 c 128,-1,5
 291 -29 291 -29 350 -29 c 256,6,7
 409 -29 409 -29 460.5 -13 c 128,-1,8
 512 3 512 3 550.5 34.5 c 128,-1,9
 589 66 589 66 610.5 115 c 128,-1,10
 632 164 632 164 632 230 c 2,11,-1
 632 700 l 1,12,-1
 463 700 l 1,13,-1
 463 242 l 2,14,15
 463 189 463 189 435 156 c 128,-1,16
 407 123 407 123 350 123 c 0,17,18
 294 123 294 123 266 156 c 128,-1,19
 238 189 238 189 238 242 c 2,20,-1
 238 700 l 1,21,-1
 69 700 l 1,0,-1
403 858 m 256,22,23
 403 822 403 822 428.5 799 c 128,-1,24
 454 776 454 776 491 776 c 0,25,26
 527 776 527 776 553 799 c 128,-1,27
 579 822 579 822 579 858 c 256,28,29
 579 894 579 894 553 917 c 128,-1,30
 527 940 527 940 491 940 c 0,31,32
 454 940 454 940 428.5 917 c 128,-1,33
 403 894 403 894 403 858 c 256,22,23
122 858 m 256,34,35
 122 822 122 822 148 799 c 128,-1,36
 174 776 174 776 210 776 c 0,37,38
 247 776 247 776 272.5 799 c 128,-1,39
 298 822 298 822 298 858 c 256,40,41
 298 894 298 894 272.5 917 c 128,-1,42
 247 940 247 940 210 940 c 0,43,44
 174 940 174 940 148 917 c 128,-1,45
 122 894 122 894 122 858 c 256,34,35
EndSplineSet
EndChar

StartChar: Utilde
Encoding: 360 360 95
Width: 701
GlyphClass: 2
Flags: W
LayerCount: 2
Fore
SplineSet
69 700 m 1,0,-1
 69 230 l 2,1,2
 69 164 69 164 90.5 115 c 128,-1,3
 112 66 112 66 150.5 34.5 c 128,-1,4
 189 3 189 3 240 -13 c 128,-1,5
 291 -29 291 -29 350 -29 c 256,6,7
 409 -29 409 -29 460.5 -13 c 128,-1,8
 512 3 512 3 550.5 34.5 c 128,-1,9
 589 66 589 66 610.5 115 c 128,-1,10
 632 164 632 164 632 230 c 2,11,-1
 632 700 l 1,12,-1
 463 700 l 1,13,-1
 463 242 l 2,14,15
 463 189 463 189 435 156 c 128,-1,16
 407 123 407 123 350 123 c 0,17,18
 294 123 294 123 266 156 c 128,-1,19
 238 189 238 189 238 242 c 2,20,-1
 238 700 l 1,21,-1
 69 700 l 1,0,-1
154 842 m 1,22,-1
 226 780 l 1,23,24
 226 788 226 788 229.5 800 c 128,-1,25
 233 812 233 812 243.5 821.5 c 128,-1,26
 254 831 254 831 273 831 c 0,27,28
 298 831 298 831 319 817.5 c 128,-1,29
 340 804 340 804 362.5 791 c 128,-1,30
 385 778 385 778 412 778 c 0,31,32
 444 778 444 778 471.5 791.5 c 128,-1,33
 499 805 499 805 518.5 825 c 128,-1,34
 538 845 538 845 546 863 c 1,35,-1
 475 937 l 1,36,37
 460 913 460 913 444.5 898.5 c 128,-1,38
 429 884 429 884 410 884 c 0,39,40
 389 884 389 884 374 892 c 128,-1,41
 359 900 359 900 345.5 910 c 128,-1,42
 332 920 332 920 315 928 c 128,-1,43
 298 936 298 936 274 936 c 0,44,45
 242 936 242 936 216.5 922.5 c 128,-1,46
 191 909 191 909 175 888 c 128,-1,47
 159 867 159 867 154 842 c 1,22,-1
EndSplineSet
EndChar

StartChar: Umacron
Encoding: 362 362 96
Width: 701
GlyphClass: 2
Flags: W
LayerCount: 2
Fore
SplineSet
69 700 m 1,0,-1
 69 230 l 2,1,2
 69 164 69 164 90.5 115 c 128,-1,3
 112 66 112 66 150.5 34.5 c 128,-1,4
 189 3 189 3 240 -13 c 128,-1,5
 291 -29 291 -29 350 -29 c 256,6,7
 409 -29 409 -29 460.5 -13 c 128,-1,8
 512 3 512 3 550.5 34.5 c 128,-1,9
 589 66 589 66 610.5 115 c 128,-1,10
 632 164 632 164 632 230 c 2,11,-1
 632 700 l 1,12,-1
 463 700 l 1,13,-1
 463 242 l 2,14,15
 463 189 463 189 435 156 c 128,-1,16
 407 123 407 123 350 123 c 0,17,18
 294 123 294 123 266 156 c 128,-1,19
 238 189 238 189 238 242 c 2,20,-1
 238 700 l 1,21,-1
 69 700 l 1,0,-1
165 776 m 1,22,-1
 536 776 l 1,23,-1
 536 907 l 1,24,-1
 165 907 l 1,25,-1
 165 776 l 1,22,-1
EndSplineSet
EndChar

StartChar: Ubreve
Encoding: 364 364 97
Width: 701
GlyphClass: 2
Flags: W
LayerCount: 2
Fore
SplineSet
69 700 m 1,0,-1
 69 230 l 2,1,2
 69 164 69 164 90.5 115 c 128,-1,3
 112 66 112 66 150.5 34.5 c 128,-1,4
 189 3 189 3 240 -13 c 128,-1,5
 291 -29 291 -29 350 -29 c 256,6,7
 409 -29 409 -29 460.5 -13 c 128,-1,8
 512 3 512 3 550.5 34.5 c 128,-1,9
 589 66 589 66 610.5 115 c 128,-1,10
 632 164 632 164 632 230 c 2,11,-1
 632 700 l 1,12,-1
 463 700 l 1,13,-1
 463 242 l 2,14,15
 463 189 463 189 435 156 c 128,-1,16
 407 123 407 123 350 123 c 0,17,18
 294 123 294 123 266 156 c 128,-1,19
 238 189 238 189 238 242 c 2,20,-1
 238 700 l 1,21,-1
 69 700 l 1,0,-1
186 922 m 1,22,23
 186 882 186 882 205 848.5 c 128,-1,24
 224 815 224 815 261 795.5 c 128,-1,25
 298 776 298 776 350 776 c 0,26,27
 403 776 403 776 439.5 795.5 c 128,-1,28
 476 815 476 815 495 848.5 c 128,-1,29
 514 882 514 882 514 922 c 1,30,-1
 416 922 l 1,31,32
 416 905 416 905 407.5 891.5 c 128,-1,33
 399 878 399 878 384.5 870.5 c 128,-1,34
 370 863 370 863 350 863 c 0,35,36
 331 863 331 863 316.5 870.5 c 128,-1,37
 302 878 302 878 293.5 891.5 c 128,-1,38
 285 905 285 905 285 922 c 1,39,-1
 186 922 l 1,22,23
EndSplineSet
EndChar

StartChar: Uring
Encoding: 366 366 98
Width: 701
GlyphClass: 2
Flags: W
LayerCount: 2
Fore
SplineSet
69 700 m 1,0,-1
 69 230 l 2,1,2
 69 164 69 164 90.5 115 c 128,-1,3
 112 66 112 66 150.5 34.5 c 128,-1,4
 189 3 189 3 240 -13 c 128,-1,5
 291 -29 291 -29 350 -29 c 256,6,7
 409 -29 409 -29 460.5 -13 c 128,-1,8
 512 3 512 3 550.5 34.5 c 128,-1,9
 589 66 589 66 610.5 115 c 128,-1,10
 632 164 632 164 632 230 c 2,11,-1
 632 700 l 1,12,-1
 463 700 l 1,13,-1
 463 242 l 2,14,15
 463 189 463 189 435 156 c 128,-1,16
 407 123 407 123 350 123 c 0,17,18
 294 123 294 123 266 156 c 128,-1,19
 238 189 238 189 238 242 c 2,20,-1
 238 700 l 1,21,-1
 69 700 l 1,0,-1
225 892 m 0,22,23
 225 841 225 841 261.5 808.5 c 128,-1,24
 298 776 298 776 350 776 c 256,25,26
 402 776 402 776 438.5 808.5 c 128,-1,27
 475 841 475 841 475 892 c 0,28,29
 475 944 475 944 438.5 975.5 c 128,-1,30
 402 1007 402 1007 350 1007 c 256,31,32
 298 1007 298 1007 261.5 975.5 c 128,-1,33
 225 944 225 944 225 892 c 0,22,23
304 892 m 0,34,35
 304 914 304 914 317.5 927 c 128,-1,36
 331 940 331 940 350 940 c 256,37,38
 369 940 369 940 382.5 927 c 128,-1,39
 396 914 396 914 396 892 c 0,40,41
 396 869 396 869 382.5 856.5 c 128,-1,42
 369 844 369 844 350 844 c 256,43,44
 331 844 331 844 317.5 856.5 c 128,-1,45
 304 869 304 869 304 892 c 0,34,35
EndSplineSet
EndChar

StartChar: V
Encoding: 86 86 101
Width: 735
GlyphClass: 2
Flags: W
LayerCount: 2
Fore
SplineSet
367 282 m 1,0,-1
 196 700 l 1,1,-1
 -1 700 l 1,2,-1
 367 -44 l 1,3,-1
 736 700 l 1,4,-1
 538 700 l 1,5,-1
 367 282 l 1,0,-1
EndSplineSet
EndChar

StartChar: W
Encoding: 87 87 102
Width: 1065
GlyphClass: 2
Flags: W
LayerCount: 2
Fore
SplineSet
724 301 m 1,0,-1
 532 735 l 1,1,-1
 342 301 l 1,2,-1
 204 700 l 1,3,-1
 4 700 l 1,4,-1
 307 -41 l 1,5,-1
 532 381 l 1,6,-1
 758 -41 l 1,7,-1
 1061 700 l 1,8,-1
 860 700 l 1,9,-1
 724 301 l 1,0,-1
EndSplineSet
EndChar

StartChar: Wcircumflex
Encoding: 372 372 103
Width: 1065
GlyphClass: 2
Flags: W
LayerCount: 2
Fore
SplineSet
729 284 m 1,0,-1
 532 735 l 1,1,-1
 335 284 l 1,2,-1
 204 700 l 1,3,-1
 4 700 l 1,4,-1
 307 -41 l 1,5,-1
 532 381 l 1,6,-1
 758 -41 l 1,7,-1
 1061 700 l 1,8,-1
 860 700 l 1,9,-1
 729 284 l 1,0,-1
532 881 m 1,10,-1
 624 795 l 1,11,-1
 730 866 l 1,12,-1
 532 1006 l 1,13,-1
 335 866 l 1,14,-1
 441 795 l 1,15,-1
 532 881 l 1,10,-1
EndSplineSet
EndChar

StartChar: X
Encoding: 88 88 109
Width: 685
GlyphClass: 2
Flags: W
LayerCount: 2
Fore
SplineSet
458 700 m 1,0,-1
 346 497 l 1,1,-1
 238 700 l 1,2,-1
 29 700 l 1,3,-1
 244 359 l 1,4,-1
 4 0 l 1,5,-1
 213 0 l 1,6,-1
 345 233 l 1,7,-1
 473 0 l 1,8,-1
 682 0 l 1,9,-1
 447 359 l 1,10,-1
 667 700 l 1,11,-1
 458 700 l 1,0,-1
EndSplineSet
EndChar

StartChar: Y
Encoding: 89 89 110
Width: 660
GlyphClass: 2
Flags: W
LayerCount: 2
Fore
SplineSet
467 700 m 1,0,-1
 330 437 l 1,1,-1
 193 700 l 1,2,-1
 -1 700 l 1,3,-1
 244 284 l 1,4,-1
 244 0 l 1,5,-1
 416 0 l 1,6,-1
 416 285 l 1,7,-1
 661 700 l 1,8,-1
 467 700 l 1,0,-1
EndSplineSet
EndChar

StartChar: Yacute
Encoding: 221 221 111
Width: 660
GlyphClass: 2
Flags: W
LayerCount: 2
Fore
SplineSet
491 926 m 1,0,-1
 376 979 l 1,1,-1
 226 819 l 1,2,-1
 311 776 l 1,3,-1
 491 926 l 1,0,-1
467 700 m 1,4,-1
 330 437 l 1,5,-1
 193 700 l 1,6,-1
 -1 700 l 1,7,-1
 244 284 l 1,8,-1
 244 0 l 1,9,-1
 416 0 l 1,10,-1
 416 285 l 1,11,-1
 661 700 l 1,12,-1
 467 700 l 1,4,-1
EndSplineSet
EndChar

StartChar: Ycircumflex
Encoding: 374 374 112
Width: 660
GlyphClass: 2
Flags: W
LayerCount: 2
Fore
SplineSet
467 700 m 1,0,-1
 330 437 l 1,1,-1
 193 700 l 1,2,-1
 -1 700 l 1,3,-1
 244 284 l 1,4,-1
 244 0 l 1,5,-1
 416 0 l 1,6,-1
 416 285 l 1,7,-1
 661 700 l 1,8,-1
 467 700 l 1,0,-1
330 862 m 1,9,-1
 421 776 l 1,10,-1
 527 847 l 1,11,-1
 330 987 l 1,12,-1
 133 847 l 1,13,-1
 239 776 l 1,14,-1
 330 862 l 1,9,-1
EndSplineSet
EndChar

StartChar: Ydieresis
Encoding: 376 376 113
Width: 660
GlyphClass: 2
Flags: W
LayerCount: 2
Fore
SplineSet
102 868 m 0,0,1
 102 833 102 833 127.5 810 c 128,-1,2
 153 787 153 787 189 787 c 0,3,4
 226 787 226 787 252 810 c 128,-1,5
 278 833 278 833 278 868 c 0,6,7
 278 905 278 905 252 927.5 c 128,-1,8
 226 950 226 950 189 950 c 0,9,10
 153 950 153 950 127.5 927.5 c 128,-1,11
 102 905 102 905 102 868 c 0,0,1
383 868 m 0,12,13
 383 833 383 833 408.5 810 c 128,-1,14
 434 787 434 787 470 787 c 0,15,16
 507 787 507 787 532.5 810 c 128,-1,17
 558 833 558 833 558 868 c 0,18,19
 558 905 558 905 532.5 927.5 c 128,-1,20
 507 950 507 950 470 950 c 0,21,22
 434 950 434 950 408.5 927.5 c 128,-1,23
 383 905 383 905 383 868 c 0,12,13
467 700 m 1,24,-1
 330 437 l 1,25,-1
 193 700 l 1,26,-1
 -1 700 l 1,27,-1
 244 284 l 1,28,-1
 244 0 l 1,29,-1
 416 0 l 1,30,-1
 416 285 l 1,31,-1
 661 700 l 1,32,-1
 467 700 l 1,24,-1
EndSplineSet
EndChar

StartChar: Z
Encoding: 90 90 115
Width: 620
GlyphClass: 2
Flags: W
LayerCount: 2
Fore
SplineSet
57 549 m 1,0,-1
 335 549 l 1,1,-1
 9 0 l 1,2,-1
 570 0 l 1,3,-1
 570 145 l 1,4,-1
 275 145 l 1,5,-1
 606 700 l 1,6,-1
 57 700 l 1,7,-1
 57 549 l 1,0,-1
EndSplineSet
EndChar

StartChar: Zacute
Encoding: 377 377 116
Width: 620
GlyphClass: 2
Flags: W
LayerCount: 2
Fore
SplineSet
57 549 m 1,0,-1
 335 549 l 1,1,-1
 9 0 l 1,2,-1
 570 0 l 1,3,-1
 570 145 l 1,4,-1
 275 145 l 1,5,-1
 606 700 l 1,6,-1
 57 700 l 1,7,-1
 57 549 l 1,0,-1
503 926 m 1,8,-1
 388 979 l 1,9,-1
 238 819 l 1,10,-1
 323 776 l 1,11,-1
 503 926 l 1,8,-1
EndSplineSet
EndChar

StartChar: Zdotaccent
Encoding: 379 379 117
Width: 620
GlyphClass: 2
Flags: W
LayerCount: 2
Fore
SplineSet
57 549 m 1,0,-1
 335 549 l 1,1,-1
 9 0 l 1,2,-1
 570 0 l 1,3,-1
 570 145 l 1,4,-1
 275 145 l 1,5,-1
 606 700 l 1,6,-1
 57 700 l 1,7,-1
 57 549 l 1,0,-1
243 858 m 256,8,9
 243 822 243 822 269 799 c 128,-1,10
 295 776 295 776 331 776 c 0,11,12
 368 776 368 776 393.5 799 c 128,-1,13
 419 822 419 822 419 858 c 256,14,15
 419 894 419 894 393.5 917 c 128,-1,16
 368 940 368 940 331 940 c 0,17,18
 295 940 295 940 269 917 c 128,-1,19
 243 894 243 894 243 858 c 256,8,9
EndSplineSet
EndChar

StartChar: Zcaron
Encoding: 381 381 118
Width: 620
GlyphClass: 2
Flags: W
LayerCount: 2
Fore
SplineSet
57 549 m 1,0,-1
 335 549 l 1,1,-1
 9 0 l 1,2,-1
 570 0 l 1,3,-1
 570 145 l 1,4,-1
 275 145 l 1,5,-1
 606 700 l 1,6,-1
 57 700 l 1,7,-1
 57 549 l 1,0,-1
331 902 m 1,8,-1
 240 987 l 1,9,-1
 134 916 l 1,10,-1
 331 776 l 1,11,-1
 528 916 l 1,12,-1
 422 987 l 1,13,-1
 331 902 l 1,8,-1
EndSplineSet
EndChar

StartChar: AE
Encoding: 198 198 119
Width: 1084
GlyphClass: 2
Flags: W
LayerCount: 2
Fore
SplineSet
270 151 m 1,0,-1
 576 151 l 1,1,-1
 576 306 l 1,2,-1
 276 306 l 1,3,-1
 270 151 l 1,0,-1
438 700 m 1,4,-1
 14 0 l 1,5,-1
 227 0 l 1,6,-1
 600 660 l 1,7,-1
 438 700 l 1,4,-1
630 0 m 1,8,-1
 1014 0 l 1,9,-1
 1014 139 l 1,10,-1
 630 139 l 1,11,-1
 630 0 l 1,8,-1
638 561 m 1,12,-1
 1014 561 l 1,13,-1
 1014 700 l 1,14,-1
 438 700 l 1,15,-1
 638 561 l 1,12,-1
630 300 m 1,16,-1
 994 300 l 1,17,-1
 994 436 l 1,18,-1
 630 436 l 1,19,-1
 630 300 l 1,16,-1
549 700 m 1,20,-1
 549 0 l 1,21,-1
 730 0 l 1,22,-1
 730 700 l 1,23,-1
 549 700 l 1,20,-1
EndSplineSet
EndChar

StartChar: Eth
Encoding: 208 208 120
Width: 733
GlyphClass: 2
Flags: W
LayerCount: 2
Fore
SplineSet
6 303 m 1,0,-1
 355 303 l 1,1,-1
 355 402 l 1,2,-1
 6 402 l 1,3,-1
 6 303 l 1,0,-1
74 700 m 1,4,-1
 74 0 l 1,5,-1
 248 0 l 1,6,-1
 248 700 l 1,7,-1
 74 700 l 1,4,-1
324 0 m 2,8,9
 439 0 439 0 523 43 c 128,-1,10
 607 86 607 86 653 164.5 c 128,-1,11
 699 243 699 243 699 350 c 0,12,13
 699 458 699 458 653 536 c 128,-1,14
 607 614 607 614 523 657 c 128,-1,15
 439 700 439 700 324 700 c 2,16,-1
 186 700 l 1,17,-1
 186 550 l 1,18,-1
 318 550 l 2,19,20
 358 550 358 550 395.5 540 c 128,-1,21
 433 530 433 530 461.5 507 c 128,-1,22
 490 484 490 484 507 445.5 c 128,-1,23
 524 407 524 407 524 350 c 256,24,25
 524 293 524 293 507 254.5 c 128,-1,26
 490 216 490 216 461.5 193 c 128,-1,27
 433 170 433 170 395.5 160 c 128,-1,28
 358 150 358 150 318 150 c 2,29,-1
 186 150 l 1,30,-1
 186 0 l 1,31,-1
 324 0 l 2,8,9
EndSplineSet
EndChar

StartChar: Oslash
Encoding: 216 216 121
Width: 790
GlyphClass: 2
Flags: W
LayerCount: 2
Fore
SplineSet
213 350 m 256,0,1
 213 413 213 413 237.5 460.5 c 128,-1,2
 262 508 262 508 306.5 534.5 c 128,-1,3
 351 561 351 561 411 561 c 0,4,5
 470 561 470 561 514.5 534.5 c 128,-1,6
 559 508 559 508 583.5 460.5 c 128,-1,7
 608 413 608 413 608 350 c 256,8,9
 608 287 608 287 583.5 239.5 c 128,-1,10
 559 192 559 192 514.5 165.5 c 128,-1,11
 470 139 470 139 411 139 c 0,12,13
 351 139 351 139 306.5 165.5 c 128,-1,14
 262 192 262 192 237.5 239.5 c 128,-1,15
 213 287 213 287 213 350 c 256,0,1
34 350 m 256,16,17
 34 269 34 269 62 201 c 128,-1,18
 90 133 90 133 141 83 c 128,-1,19
 192 33 192 33 261 5.5 c 128,-1,20
 330 -22 330 -22 411 -22 c 256,21,22
 492 -22 492 -22 560.5 5.5 c 128,-1,23
 629 33 629 33 680 83 c 128,-1,24
 731 133 731 133 759 201 c 128,-1,25
 787 269 787 269 787 350 c 256,26,27
 787 431 787 431 759 498 c 128,-1,28
 731 565 731 565 680 614 c 128,-1,29
 629 663 629 663 560.5 689.5 c 128,-1,30
 492 716 492 716 411 716 c 256,31,32
 330 716 330 716 261 689.5 c 128,-1,33
 192 663 192 663 141 614 c 128,-1,34
 90 565 90 565 62 498 c 128,-1,35
 34 431 34 431 34 350 c 256,16,17
697 756 m 1,36,-1
 49 -4 l 1,37,-1
 120 -56 l 1,38,-1
 769 704 l 1,39,-1
 697 756 l 1,36,-1
EndSplineSet
EndChar

StartChar: Thorn
Encoding: 222 222 122
Width: 612
GlyphClass: 2
Flags: W
LayerCount: 2
Fore
SplineSet
80 700 m 1,0,-1
 80 0 l 1,1,-1
 227 0 l 1,2,-1
 227 700 l 1,3,-1
 80 700 l 1,0,-1
174 446 m 1,4,-1
 310 446 l 2,5,6
 349 446 349 446 376 436.5 c 128,-1,7
 403 427 403 427 417.5 407 c 128,-1,8
 432 387 432 387 432 353 c 256,9,10
 432 319 432 319 417.5 299 c 128,-1,11
 403 279 403 279 376 269.5 c 128,-1,12
 349 260 349 260 310 260 c 2,13,-1
 174 260 l 1,14,-1
 174 128 l 1,15,-1
 310 128 l 2,16,17
 400 128 400 128 460.5 154.5 c 128,-1,18
 521 181 521 181 552 232 c 128,-1,19
 583 283 583 283 583 353 c 0,20,21
 583 424 583 424 552 474.5 c 128,-1,22
 521 525 521 525 460.5 552 c 128,-1,23
 400 579 400 579 310 579 c 2,24,-1
 174 579 l 1,25,-1
 174 446 l 1,4,-1
EndSplineSet
EndChar

StartChar: Dcroat
Encoding: 272 272 123
Width: 733
GlyphClass: 2
Flags: W
LayerCount: 2
Fore
SplineSet
5 298 m 1,0,-1
 348 298 l 1,1,-1
 348 397 l 1,2,-1
 5 397 l 1,3,-1
 5 298 l 1,0,-1
74 700 m 1,4,-1
 74 0 l 1,5,-1
 248 0 l 1,6,-1
 248 700 l 1,7,-1
 74 700 l 1,4,-1
324 0 m 2,8,9
 439 0 439 0 523 43 c 128,-1,10
 607 86 607 86 653 164.5 c 128,-1,11
 699 243 699 243 699 350 c 0,12,13
 699 458 699 458 653 536 c 128,-1,14
 607 614 607 614 523 657 c 128,-1,15
 439 700 439 700 324 700 c 2,16,-1
 186 700 l 1,17,-1
 186 550 l 1,18,-1
 318 550 l 2,19,20
 358 550 358 550 395.5 540 c 128,-1,21
 433 530 433 530 461.5 507 c 128,-1,22
 490 484 490 484 507 445.5 c 128,-1,23
 524 407 524 407 524 350 c 256,24,25
 524 293 524 293 507 254.5 c 128,-1,26
 490 216 490 216 461.5 193 c 128,-1,27
 433 170 433 170 395.5 160 c 128,-1,28
 358 150 358 150 318 150 c 2,29,-1
 186 150 l 1,30,-1
 186 0 l 1,31,-1
 324 0 l 2,8,9
EndSplineSet
EndChar

StartChar: Hbar
Encoding: 294 294 124
Width: 786
GlyphClass: 2
Flags: W
LayerCount: 2
Fore
SplineSet
121 293 m 1,0,-1
 650 293 l 1,1,-1
 650 445 l 1,2,-1
 121 445 l 1,3,-1
 121 293 l 1,0,-1
544 700 m 1,4,-1
 544 0 l 1,5,-1
 713 0 l 1,6,-1
 713 700 l 1,7,-1
 544 700 l 1,4,-1
74 700 m 1,8,-1
 74 0 l 1,9,-1
 243 0 l 1,10,-1
 243 700 l 1,11,-1
 74 700 l 1,8,-1
5 537 m 1,12,-1
 781 537 l 1,13,-1
 781 643 l 1,14,-1
 5 643 l 1,15,-1
 5 537 l 1,12,-1
EndSplineSet
EndChar

StartChar: IJ
Encoding: 306 306 125
Width: 624
GlyphClass: 2
Flags: W
LayerCount: 2
Fore
SplineSet
222 -64 m 1,0,-1
 130 -182 l 1,1,2
 150 -196 150 -196 179.5 -208.5 c 128,-1,3
 209 -221 209 -221 245 -230 c 128,-1,4
 281 -239 281 -239 319 -239 c 0,5,6
 366 -239 366 -239 408 -228.5 c 128,-1,7
 450 -218 450 -218 481.5 -196.5 c 128,-1,8
 513 -175 513 -175 531.5 -139.5 c 128,-1,9
 550 -104 550 -104 550 -54 c 2,10,-1
 550 700 l 1,11,-1
 367 700 l 1,12,-1
 367 -16 l 2,13,14
 367 -60 367 -60 346 -78.5 c 128,-1,15
 325 -97 325 -97 302 -97 c 0,16,17
 280 -97 280 -97 258.5 -87 c 128,-1,18
 237 -77 237 -77 222 -64 c 1,0,-1
74 700 m 1,19,-1
 74 0 l 1,20,-1
 246 0 l 1,21,-1
 246 700 l 1,22,-1
 74 700 l 1,19,-1
EndSplineSet
EndChar

StartChar: Ldot
Encoding: 319 319 126
Width: 528
GlyphClass: 2
Flags: W
LayerCount: 2
Fore
SplineSet
74 700 m 1,0,-1
 74 0 l 1,1,-1
 524 0 l 1,2,-1
 524 145 l 1,3,-1
 243 145 l 1,4,-1
 243 700 l 1,5,-1
 74 700 l 1,0,-1
323 431 m 0,6,7
 323 393 323 393 350 365.5 c 128,-1,8
 377 338 377 338 418 338 c 256,9,10
 459 338 459 338 485.5 365.5 c 128,-1,11
 512 393 512 393 512 431 c 0,12,13
 512 468 512 468 485.5 495.5 c 128,-1,14
 459 523 459 523 418 523 c 256,15,16
 377 523 377 523 350 495.5 c 128,-1,17
 323 468 323 468 323 431 c 0,6,7
EndSplineSet
EndChar

StartChar: Lslash
Encoding: 321 321 127
Width: 534
GlyphClass: 2
Flags: W
LayerCount: 2
Fore
SplineSet
5 309 m 1,0,-1
 368 553 l 1,1,-1
 330 627 l 1,2,-1
 -34 383 l 1,3,-1
 5 309 l 1,0,-1
74 700 m 1,4,-1
 74 0 l 1,5,-1
 524 0 l 1,6,-1
 524 145 l 1,7,-1
 243 145 l 1,8,-1
 243 700 l 1,9,-1
 74 700 l 1,4,-1
EndSplineSet
EndChar

StartChar: Eng
Encoding: 330 330 128
Width: 794
GlyphClass: 2
Flags: W
LayerCount: 2
Fore
SplineSet
546 -215 m 0,0,1
 600 -215 600 -215 639 -195 c 128,-1,2
 678 -175 678 -175 699 -137.5 c 128,-1,3
 720 -100 720 -100 720 -49 c 2,4,-1
 720 700 l 1,5,-1
 557 700 l 1,6,-1
 557 306 l 1,7,-1
 74 735 l 1,8,-1
 74 0 l 1,9,-1
 236 0 l 1,10,-1
 236 394 l 1,11,-1
 575 86 l 1,12,-1
 575 -11 l 2,13,14
 575 -34 575 -34 569 -49 c 128,-1,15
 563 -64 563 -64 552.5 -71.5 c 128,-1,16
 542 -79 542 -79 527 -79 c 256,17,18
 512 -79 512 -79 501.5 -72.5 c 128,-1,19
 491 -66 491 -66 480 -54 c 1,20,-1
 419 -164 l 1,21,22
 449 -191 449 -191 478.5 -203 c 128,-1,23
 508 -215 508 -215 546 -215 c 0,0,1
EndSplineSet
EndChar

StartChar: OE
Encoding: 338 338 129
Width: 985
GlyphClass: 2
Flags: W
LayerCount: 2
Fore
SplineSet
562 300 m 1,0,-1
 929 300 l 1,1,-1
 929 436 l 1,2,-1
 562 436 l 1,3,-1
 562 300 l 1,0,-1
484 670 m 1,4,-1
 484 30 l 1,5,-1
 647 30 l 1,6,-1
 647 670 l 1,7,-1
 484 670 l 1,4,-1
950 139 m 1,8,-1
 572 139 l 1,9,-1
 548 148 l 1,10,-1
 421 148 l 2,11,12
 369 148 369 148 329.5 161 c 128,-1,13
 290 174 290 174 263 199.5 c 128,-1,14
 236 225 236 225 222.5 263 c 128,-1,15
 209 301 209 301 209 350 c 256,16,17
 209 399 209 399 222.5 437 c 128,-1,18
 236 475 236 475 263 500.5 c 128,-1,19
 290 526 290 526 329.5 539 c 128,-1,20
 369 552 369 552 421 552 c 2,21,-1
 551 552 l 1,22,-1
 568 561 l 1,23,-1
 949 561 l 1,24,-1
 949 700 l 1,25,-1
 390 700 l 2,26,27
 314 700 314 700 248.5 675 c 128,-1,28
 183 650 183 650 135.5 603.5 c 128,-1,29
 88 557 88 557 61 492.5 c 128,-1,30
 34 428 34 428 34 350 c 256,31,32
 34 272 34 272 61 207.5 c 128,-1,33
 88 143 88 143 136 96.5 c 128,-1,34
 184 50 184 50 249 25 c 128,-1,35
 314 0 314 0 390 0 c 2,36,-1
 950 0 l 1,37,-1
 950 139 l 1,8,-1
EndSplineSet
EndChar

StartChar: Tbar
Encoding: 358 358 130
Width: 561
GlyphClass: 2
Flags: W
LayerCount: 2
Fore
SplineSet
94 302 m 1,0,-1
 468 302 l 1,1,-1
 468 433 l 1,2,-1
 94 433 l 1,3,-1
 94 302 l 1,0,-1
4 549 m 1,4,-1
 196 549 l 1,5,-1
 196 0 l 1,6,-1
 365 0 l 1,7,-1
 365 549 l 1,8,-1
 558 549 l 1,9,-1
 558 700 l 1,10,-1
 4 700 l 1,11,-1
 4 549 l 1,4,-1
EndSplineSet
EndChar

StartChar: uni1E9E
Encoding: 7838 7838 131
Width: 814
GlyphClass: 2
Flags: W
LayerCount: 2
Fore
SplineSet
540 -12 m 0,0,1
 477 -12 477 -12 416 0.5 c 128,-1,2
 355 13 355 13 305 34 c 1,3,-1
 343 171 l 1,4,5
 386 151 386 151 425 140 c 128,-1,6
 464 129 464 129 498 129 c 0,7,8
 524 129 524 129 546 135 c 128,-1,9
 568 141 568 141 581 155 c 128,-1,10
 594 169 594 169 594 191 c 0,11,12
 594 217 594 217 579.5 233 c 128,-1,13
 565 249 565 249 543 260 c 128,-1,14
 521 271 521 271 499 283 c 128,-1,15
 477 295 477 295 462.5 312.5 c 128,-1,16
 448 330 448 330 448 358 c 0,17,18
 448 379 448 379 456.5 394.5 c 128,-1,19
 465 410 465 410 477.5 421.5 c 128,-1,20
 490 433 490 433 503 443.5 c 128,-1,21
 516 454 516 454 524.5 466.5 c 128,-1,22
 533 479 533 479 533 495 c 0,23,24
 533 513 533 513 520.5 528.5 c 128,-1,25
 508 544 508 544 484.5 553 c 128,-1,26
 461 562 461 562 427 562 c 0,27,28
 370 562 370 562 331 537.5 c 128,-1,29
 292 513 292 513 272.5 465.5 c 128,-1,30
 253 418 253 418 253 350 c 2,31,-1
 254 -2 l 1,32,-1
 80 -2 l 1,33,-1
 80 366 l 2,34,35
 80 446 80 446 100 510.5 c 128,-1,36
 120 575 120 575 162.5 621 c 128,-1,37
 205 667 205 667 271.5 691.5 c 128,-1,38
 338 716 338 716 430 716 c 0,39,40
 525 716 525 716 588.5 692 c 128,-1,41
 652 668 652 668 684 627 c 128,-1,42
 716 586 716 586 716 536 c 0,43,44
 716 506 716 506 708 482.5 c 128,-1,45
 700 459 700 459 688 441 c 128,-1,46
 676 423 676 423 663.5 408.5 c 128,-1,47
 651 394 651 394 643 382.5 c 128,-1,48
 635 371 635 371 635 360 c 0,49,50
 635 346 635 346 648.5 336 c 128,-1,51
 662 326 662 326 683 314.5 c 128,-1,52
 704 303 704 303 724.5 286 c 128,-1,53
 745 269 745 269 758.5 242.5 c 128,-1,54
 772 216 772 216 772 174 c 0,55,56
 772 116 772 116 744.5 74.5 c 128,-1,57
 717 33 717 33 665 10.5 c 128,-1,58
 613 -12 613 -12 540 -12 c 0,0,1
EndSplineSet
EndChar

StartChar: uni0394
Encoding: 916 916 132
Width: 600
GlyphClass: 2
Flags: W
LayerCount: 2
Fore
SplineSet
18 0 m 1,0,-1
 300 800 l 1,1,-1
 581 0 l 1,2,-1
 18 0 l 1,0,-1
186 115 m 1,3,-1
 413 115 l 1,4,-1
 300 488 l 1,5,-1
 186 115 l 1,3,-1
EndSplineSet
EndChar

StartChar: uni03A9
Encoding: 937 937 133
Width: 600
GlyphClass: 2
Flags: W
LayerCount: 2
Fore
SplineSet
66 0 m 1,0,-1
 66 130 l 1,1,-1
 154 118 l 1,2,3
 125 149 125 149 106 181 c 128,-1,4
 87 213 87 213 78.5 247 c 128,-1,5
 70 281 70 281 70 317 c 0,6,7
 70 386 70 386 100 440.5 c 128,-1,8
 130 495 130 495 182 527 c 128,-1,9
 234 559 234 559 300 559 c 256,10,11
 366 559 366 559 418 527 c 128,-1,12
 470 495 470 495 500 440.5 c 128,-1,13
 530 386 530 386 530 317 c 0,14,15
 530 281 530 281 521 247 c 128,-1,16
 512 213 512 213 493.5 181 c 128,-1,17
 475 149 475 149 446 118 c 1,18,-1
 534 130 l 1,19,-1
 534 0 l 1,20,-1
 325 0 l 1,21,-1
 325 103 l 1,22,23
 349 123 349 123 367 150.5 c 128,-1,24
 385 178 385 178 394.5 209.5 c 128,-1,25
 404 241 404 241 404 272 c 0,26,27
 404 310 404 310 391 338 c 128,-1,28
 378 366 378 366 355 382 c 128,-1,29
 332 398 332 398 300 398 c 0,30,31
 269 398 269 398 245 382 c 128,-1,32
 221 366 221 366 208 338 c 128,-1,33
 195 310 195 310 195 272 c 0,34,35
 195 241 195 241 205 209.5 c 128,-1,36
 215 178 215 178 233 150.5 c 128,-1,37
 251 123 251 123 275 103 c 1,38,-1
 275 0 l 1,39,-1
 66 0 l 1,0,-1
EndSplineSet
EndChar

StartChar: uni0410
Encoding: 1040 1040 134
Width: 735
GlyphClass: 2
Flags: W
LayerCount: 2
Fore
SplineSet
184 135 m 1,0,-1
 554 135 l 1,1,-1
 543 264 l 1,2,-1
 196 264 l 1,3,-1
 184 135 l 1,0,-1
367 443 m 1,4,-1
 466 216 l 1,5,-1
 460 173 l 1,6,-1
 544 0 l 1,7,-1
 736 0 l 1,8,-1
 367 744 l 1,9,-1
 -1 0 l 1,10,-1
 190 0 l 1,11,-1
 277 180 l 1,12,-1
 269 217 l 1,13,-1
 367 443 l 1,4,-1
EndSplineSet
EndChar

StartChar: uni0411
Encoding: 1041 1041 135
Width: 672
GlyphClass: 2
Flags: W
LayerCount: 2
Fore
SplineSet
127 300 m 1,0,-1
 357 300 l 2,1,2
 390 300 390 300 413 291 c 128,-1,3
 436 282 436 282 448 264.5 c 128,-1,4
 460 247 460 247 460 219 c 0,5,6
 460 192 460 192 448 174 c 128,-1,7
 436 156 436 156 413 147.5 c 128,-1,8
 390 139 390 139 357 139 c 2,9,-1
 127 139 l 1,10,-1
 127 0 l 1,11,-1
 394 0 l 2,12,13
 462 0 462 0 515.5 28 c 128,-1,14
 569 56 569 56 600.5 105.5 c 128,-1,15
 632 155 632 155 632 219 c 0,16,17
 632 284 632 284 600.5 332.5 c 128,-1,18
 569 381 569 381 515.5 408.5 c 128,-1,19
 462 436 462 436 394 436 c 2,20,-1
 127 436 l 1,21,-1
 127 300 l 1,0,-1
80 700 m 1,22,-1
 80 0 l 1,23,-1
 252 0 l 1,24,-1
 252 561 l 1,25,-1
 579 561 l 1,26,-1
 579 700 l 1,27,-1
 80 700 l 1,22,-1
EndSplineSet
EndChar

StartChar: uni0412
Encoding: 1042 1042 136
Width: 664
GlyphClass: 2
Flags: W
LayerCount: 2
Fore
SplineSet
200 348 m 1,0,-1
 331 348 l 2,1,2
 404 348 404 348 459.5 368.5 c 128,-1,3
 515 389 515 389 547.5 428 c 128,-1,4
 580 467 580 467 580 522 c 0,5,6
 580 582 580 582 547.5 621.5 c 128,-1,7
 515 661 515 661 459.5 680.5 c 128,-1,8
 404 700 404 700 331 700 c 2,9,-1
 74 700 l 1,10,-1
 74 0 l 1,11,-1
 348 0 l 2,12,13
 431 0 431 0 492 20.5 c 128,-1,14
 553 41 553 41 586.5 84 c 128,-1,15
 620 127 620 127 620 197 c 0,16,17
 620 250 620 250 596.5 287.5 c 128,-1,18
 573 325 573 325 534 349.5 c 128,-1,19
 495 374 495 374 447 385 c 128,-1,20
 399 396 399 396 348 396 c 2,21,-1
 200 396 l 1,22,-1
 200 304 l 1,23,-1
 329 304 l 2,24,25
 354 304 354 304 374.5 299.5 c 128,-1,26
 395 295 395 295 411 285 c 128,-1,27
 427 275 427 275 436 259 c 128,-1,28
 445 243 445 243 445 221 c 0,29,30
 445 187 445 187 429.5 167.5 c 128,-1,31
 414 148 414 148 388 139.5 c 128,-1,32
 362 131 362 131 329 131 c 2,33,-1
 243 131 l 1,34,-1
 243 569 l 1,35,-1
 313 569 l 2,36,37
 356 569 356 569 380.5 551 c 128,-1,38
 405 533 405 533 405 497 c 0,39,40
 405 473 405 473 394 456.5 c 128,-1,41
 383 440 383 440 362.5 431 c 128,-1,42
 342 422 342 422 313 422 c 2,43,-1
 200 422 l 1,44,-1
 200 348 l 1,0,-1
EndSplineSet
EndChar

StartChar: uni0413
Encoding: 1043 1043 137
Width: 506
GlyphClass: 2
Flags: W
LayerCount: 2
Fore
SplineSet
80 700 m 1,0,-1
 80 0 l 1,1,-1
 249 0 l 1,2,-1
 249 549 l 1,3,-1
 496 549 l 1,4,-1
 496 700 l 1,5,-1
 80 700 l 1,0,-1
EndSplineSet
EndChar

StartChar: uni0403
Encoding: 1027 1027 138
Width: 506
GlyphClass: 2
Flags: W
LayerCount: 2
Fore
SplineSet
80 700 m 1,0,-1
 80 0 l 1,1,-1
 249 0 l 1,2,-1
 249 549 l 1,3,-1
 496 549 l 1,4,-1
 496 700 l 1,5,-1
 80 700 l 1,0,-1
468 926 m 1,6,-1
 353 979 l 1,7,-1
 203 819 l 1,8,-1
 288 776 l 1,9,-1
 468 926 l 1,6,-1
EndSplineSet
EndChar

StartChar: uni0414
Encoding: 1044 1044 139
Width: 882
GlyphClass: 2
Flags: W
LayerCount: 2
Fore
SplineSet
438 430 m 1,0,-1
 584 30 l 1,1,-1
 779 30 l 1,2,-1
 438 735 l 1,3,-1
 98 30 l 1,4,-1
 293 30 l 1,5,-1
 438 430 l 1,0,-1
669 0 m 1,6,-1
 669 -110 l 1,7,-1
 837 -110 l 1,8,-1
 837 145 l 1,9,-1
 40 145 l 1,10,-1
 40 -110 l 1,11,-1
 208 -110 l 1,12,-1
 208 0 l 1,13,-1
 669 0 l 1,6,-1
EndSplineSet
EndChar

StartChar: uni0415
Encoding: 1045 1045 140
Width: 603
GlyphClass: 2
Flags: W
LayerCount: 2
Fore
SplineSet
186 0 m 1,0,-1
 539 0 l 1,1,-1
 539 139 l 1,2,-1
 186 139 l 1,3,-1
 186 0 l 1,0,-1
186 561 m 1,4,-1
 539 561 l 1,5,-1
 539 700 l 1,6,-1
 186 700 l 1,7,-1
 186 561 l 1,4,-1
186 300 m 1,8,-1
 519 300 l 1,9,-1
 519 436 l 1,10,-1
 186 436 l 1,11,-1
 186 300 l 1,8,-1
74 700 m 1,12,-1
 74 0 l 1,13,-1
 236 0 l 1,14,-1
 236 700 l 1,15,-1
 74 700 l 1,12,-1
EndSplineSet
EndChar

StartChar: uni0400
Encoding: 1024 1024 141
Width: 603
GlyphClass: 2
Flags: W
LayerCount: 2
Fore
SplineSet
186 0 m 1,0,-1
 539 0 l 1,1,-1
 539 139 l 1,2,-1
 186 139 l 1,3,-1
 186 0 l 1,0,-1
186 561 m 1,4,-1
 539 561 l 1,5,-1
 539 700 l 1,6,-1
 186 700 l 1,7,-1
 186 561 l 1,4,-1
186 300 m 1,8,-1
 519 300 l 1,9,-1
 519 436 l 1,10,-1
 186 436 l 1,11,-1
 186 300 l 1,8,-1
74 700 m 1,12,-1
 74 0 l 1,13,-1
 236 0 l 1,14,-1
 236 700 l 1,15,-1
 74 700 l 1,12,-1
127 926 m 1,16,-1
 307 776 l 1,17,-1
 392 819 l 1,18,-1
 242 979 l 1,19,-1
 127 926 l 1,16,-1
EndSplineSet
EndChar

StartChar: uni0401
Encoding: 1025 1025 142
Width: 603
GlyphClass: 2
Flags: W
LayerCount: 2
Fore
SplineSet
186 0 m 1,0,-1
 539 0 l 1,1,-1
 539 139 l 1,2,-1
 186 139 l 1,3,-1
 186 0 l 1,0,-1
186 561 m 1,4,-1
 539 561 l 1,5,-1
 539 700 l 1,6,-1
 186 700 l 1,7,-1
 186 561 l 1,4,-1
186 300 m 1,8,-1
 519 300 l 1,9,-1
 519 436 l 1,10,-1
 186 436 l 1,11,-1
 186 300 l 1,8,-1
74 700 m 1,12,-1
 74 0 l 1,13,-1
 236 0 l 1,14,-1
 236 700 l 1,15,-1
 74 700 l 1,12,-1
341 858 m 256,16,17
 341 822 341 822 366.5 799 c 128,-1,18
 392 776 392 776 428 776 c 0,19,20
 465 776 465 776 490.5 799 c 128,-1,21
 516 822 516 822 516 858 c 256,22,23
 516 894 516 894 490.5 917 c 128,-1,24
 465 940 465 940 428 940 c 0,25,26
 392 940 392 940 366.5 917 c 128,-1,27
 341 894 341 894 341 858 c 256,16,17
97 858 m 256,28,29
 97 822 97 822 123 799 c 128,-1,30
 149 776 149 776 185 776 c 0,31,32
 222 776 222 776 247.5 799 c 128,-1,33
 273 822 273 822 273 858 c 256,34,35
 273 894 273 894 247.5 917 c 128,-1,36
 222 940 222 940 185 940 c 0,37,38
 149 940 149 940 123 917 c 128,-1,39
 97 894 97 894 97 858 c 256,28,29
EndSplineSet
EndChar

StartChar: uni0416
Encoding: 1046 1046 143
Width: 1085
GlyphClass: 2
Flags: W
LayerCount: 2
Fore
SplineSet
212 700 m 1,0,-1
 14 700 l 1,1,-1
 304 372 l 1,2,-1
 -1 0 l 1,3,-1
 197 0 l 1,4,-1
 501 370 l 1,5,-1
 212 700 l 1,0,-1
457 700 m 1,6,-1
 457 0 l 1,7,-1
 632 0 l 1,8,-1
 632 700 l 1,9,-1
 457 700 l 1,6,-1
866 700 m 1,10,-1
 588 370 l 1,11,-1
 881 0 l 1,12,-1
 1086 0 l 1,13,-1
 780 372 l 1,14,-1
 1071 700 l 1,15,-1
 866 700 l 1,10,-1
EndSplineSet
EndChar

StartChar: uni0417
Encoding: 1047 1047 144
Width: 668
GlyphClass: 2
Flags: W
LayerCount: 2
Fore
SplineSet
305 339 m 1,0,1
 370 339 370 339 427 350 c 128,-1,2
 484 361 484 361 527 383.5 c 128,-1,3
 570 406 570 406 594.5 440 c 128,-1,4
 619 474 619 474 619 519 c 0,5,6
 619 573 619 573 588 617 c 128,-1,7
 557 661 557 661 497 687 c 128,-1,8
 437 713 437 713 349 713 c 256,9,10
 261 713 261 713 200.5 684.5 c 128,-1,11
 140 656 140 656 109 606.5 c 128,-1,12
 78 557 78 557 78 495 c 1,13,-1
 233 495 l 1,14,15
 233 520 233 520 247 538.5 c 128,-1,16
 261 557 261 557 287 567.5 c 128,-1,17
 313 578 313 578 348 578 c 0,18,19
 382 578 382 578 405 568.5 c 128,-1,20
 428 559 428 559 440 542 c 128,-1,21
 452 525 452 525 452 502 c 0,22,23
 452 477 452 477 435.5 457 c 128,-1,24
 419 437 419 437 386.5 426 c 128,-1,25
 354 415 354 415 305 415 c 1,26,-1
 305 339 l 1,0,1
353 -16 m 0,27,28
 448 -16 448 -16 511.5 10.5 c 128,-1,29
 575 37 575 37 607 83.5 c 128,-1,30
 639 130 639 130 639 191 c 0,31,32
 639 262 639 262 595.5 306.5 c 128,-1,33
 552 351 552 351 476.5 371.5 c 128,-1,34
 401 392 401 392 305 392 c 1,35,-1
 305 306 l 1,36,37
 363 306 363 306 399.5 293.5 c 128,-1,38
 436 281 436 281 454 259 c 128,-1,39
 472 237 472 237 472 207 c 0,40,41
 472 162 472 162 438 141 c 128,-1,42
 404 120 404 120 347 120 c 0,43,44
 310 120 310 120 280 131 c 128,-1,45
 250 142 250 142 233 165 c 128,-1,46
 216 188 216 188 214 222 c 1,47,-1
 48 222 l 1,48,49
 48 176 48 176 66 133 c 128,-1,50
 84 90 84 90 121.5 56 c 128,-1,51
 159 22 159 22 216.5 3 c 128,-1,52
 274 -16 274 -16 353 -16 c 0,27,28
EndSplineSet
EndChar

StartChar: uni0418
Encoding: 1048 1048 145
Width: 794
GlyphClass: 2
Flags: W
LayerCount: 2
Fore
SplineSet
715 524 m 1,0,-1
 720 735 l 1,1,-1
 79 176 l 1,2,-1
 74 -35 l 1,3,-1
 715 524 l 1,0,-1
236 700 m 1,4,-1
 74 700 l 1,5,-1
 74 -35 l 1,6,-1
 236 131 l 1,7,-1
 236 700 l 1,4,-1
720 735 m 1,8,-1
 557 563 l 1,9,-1
 557 0 l 1,10,-1
 720 0 l 1,11,-1
 720 735 l 1,8,-1
EndSplineSet
EndChar

StartChar: uni040D
Encoding: 1037 1037 146
Width: 794
GlyphClass: 2
Flags: W
LayerCount: 2
Fore
SplineSet
715 524 m 1,0,-1
 720 735 l 1,1,-1
 79 176 l 1,2,-1
 74 -35 l 1,3,-1
 715 524 l 1,0,-1
236 700 m 1,4,-1
 74 700 l 1,5,-1
 74 -35 l 1,6,-1
 236 131 l 1,7,-1
 236 700 l 1,4,-1
720 735 m 1,8,-1
 557 563 l 1,9,-1
 557 0 l 1,10,-1
 720 0 l 1,11,-1
 720 735 l 1,8,-1
249 907 m 1,12,-1
 429 757 l 1,13,-1
 514 800 l 1,14,-1
 364 960 l 1,15,-1
 249 907 l 1,12,-1
EndSplineSet
EndChar

StartChar: uni0419
Encoding: 1049 1049 147
Width: 794
GlyphClass: 2
Flags: W
LayerCount: 2
Fore
SplineSet
715 524 m 1,0,-1
 720 735 l 1,1,-1
 79 176 l 1,2,-1
 74 -35 l 1,3,-1
 715 524 l 1,0,-1
236 700 m 1,4,-1
 74 700 l 1,5,-1
 74 -35 l 1,6,-1
 236 131 l 1,7,-1
 236 700 l 1,4,-1
720 735 m 1,8,-1
 557 563 l 1,9,-1
 557 0 l 1,10,-1
 720 0 l 1,11,-1
 720 735 l 1,8,-1
257 917 m 1,12,13
 257 877 257 877 276 843.5 c 128,-1,14
 295 810 295 810 332 790.5 c 128,-1,15
 369 771 369 771 421 771 c 0,16,17
 474 771 474 771 510.5 790.5 c 128,-1,18
 547 810 547 810 566 843.5 c 128,-1,19
 585 877 585 877 585 917 c 1,20,-1
 486 917 l 1,21,22
 486 900 486 900 478 886.5 c 128,-1,23
 470 873 470 873 455.5 865.5 c 128,-1,24
 441 858 441 858 421 858 c 0,25,26
 402 858 402 858 387 865.5 c 128,-1,27
 372 873 372 873 364 886.5 c 128,-1,28
 356 900 356 900 356 917 c 1,29,-1
 257 917 l 1,12,13
EndSplineSet
EndChar

StartChar: uni041A
Encoding: 1050 1050 148
Width: 699
GlyphClass: 2
Flags: W
LayerCount: 2
Fore
SplineSet
74 700 m 1,0,-1
 74 0 l 1,1,-1
 249 0 l 1,2,-1
 249 700 l 1,3,-1
 74 700 l 1,0,-1
487 700 m 1,4,-1
 200 367 l 1,5,-1
 495 0 l 1,6,-1
 700 0 l 1,7,-1
 401 372 l 1,8,-1
 685 700 l 1,9,-1
 487 700 l 1,4,-1
EndSplineSet
EndChar

StartChar: uni040C
Encoding: 1036 1036 149
Width: 699
GlyphClass: 2
Flags: W
LayerCount: 2
Fore
SplineSet
74 700 m 1,0,-1
 74 0 l 1,1,-1
 249 0 l 1,2,-1
 249 700 l 1,3,-1
 74 700 l 1,0,-1
487 700 m 1,4,-1
 200 367 l 1,5,-1
 495 0 l 1,6,-1
 700 0 l 1,7,-1
 401 372 l 1,8,-1
 685 700 l 1,9,-1
 487 700 l 1,4,-1
560 926 m 1,10,-1
 445 979 l 1,11,-1
 295 819 l 1,12,-1
 380 776 l 1,13,-1
 560 926 l 1,10,-1
EndSplineSet
EndChar

StartChar: uni041B
Encoding: 1051 1051 150
Width: 770
GlyphClass: 2
Flags: W
LayerCount: 2
Fore
SplineSet
690 700 m 1,0,-1
 115 700 l 1,1,-1
 115 286 l 2,2,3
 115 254 115 254 108 227 c 128,-1,4
 101 200 101 200 87.5 181.5 c 128,-1,5
 74 163 74 163 54.5 153 c 128,-1,6
 35 143 35 143 10 143 c 1,7,-1
 10 0 l 1,8,9
 107 0 107 0 168 32.5 c 128,-1,10
 229 65 229 65 257.5 131.5 c 128,-1,11
 286 198 286 198 286 296 c 2,12,-1
 286 549 l 1,13,-1
 518 549 l 1,14,-1
 518 0 l 1,15,-1
 690 0 l 1,16,-1
 690 700 l 1,0,-1
EndSplineSet
EndChar

StartChar: uni041C
Encoding: 1052 1052 151
Width: 891
GlyphClass: 2
Flags: W
LayerCount: 2
Fore
SplineSet
254 357 m 1,0,-1
 445 65 l 1,1,-1
 637 357 l 1,2,-1
 679 0 l 1,3,-1
 857 0 l 1,4,-1
 744 735 l 1,5,-1
 445 308 l 1,6,-1
 147 735 l 1,7,-1
 34 0 l 1,8,-1
 212 0 l 1,9,-1
 254 357 l 1,0,-1
EndSplineSet
EndChar

StartChar: uni041D
Encoding: 1053 1053 152
Width: 786
GlyphClass: 2
Flags: W
LayerCount: 2
Fore
SplineSet
121 293 m 1,0,-1
 650 293 l 1,1,-1
 650 445 l 1,2,-1
 121 445 l 1,3,-1
 121 293 l 1,0,-1
544 700 m 1,4,-1
 544 0 l 1,5,-1
 713 0 l 1,6,-1
 713 700 l 1,7,-1
 544 700 l 1,4,-1
74 700 m 1,8,-1
 74 0 l 1,9,-1
 243 0 l 1,10,-1
 243 700 l 1,11,-1
 74 700 l 1,8,-1
EndSplineSet
EndChar

StartChar: uni041E
Encoding: 1054 1054 153
Width: 821
GlyphClass: 2
Flags: W
LayerCount: 2
Fore
SplineSet
213 350 m 256,0,1
 213 412 213 412 237.5 459.5 c 128,-1,2
 262 507 262 507 306.5 534 c 128,-1,3
 351 561 351 561 411 561 c 0,4,5
 472 561 472 561 516 534 c 128,-1,6
 560 507 560 507 584 459.5 c 128,-1,7
 608 412 608 412 608 350 c 256,8,9
 608 288 608 288 583.5 240.5 c 128,-1,10
 559 193 559 193 514.5 166 c 128,-1,11
 470 139 470 139 411 139 c 0,12,13
 351 139 351 139 306.5 166 c 128,-1,14
 262 193 262 193 237.5 240.5 c 128,-1,15
 213 288 213 288 213 350 c 256,0,1
34 350 m 256,16,17
 34 269 34 269 61.5 201 c 128,-1,18
 89 133 89 133 139.5 83 c 128,-1,19
 190 33 190 33 259 5.5 c 128,-1,20
 328 -22 328 -22 411 -22 c 0,21,22
 493 -22 493 -22 562 5.5 c 128,-1,23
 631 33 631 33 681.5 83 c 128,-1,24
 732 133 732 133 759.5 201 c 128,-1,25
 787 269 787 269 787 350 c 256,26,27
 787 431 787 431 759 498 c 128,-1,28
 731 565 731 565 680 614 c 128,-1,29
 629 663 629 663 560.5 689.5 c 128,-1,30
 492 716 492 716 411 716 c 0,31,32
 331 716 331 716 262 689.5 c 128,-1,33
 193 663 193 663 142 614 c 128,-1,34
 91 565 91 565 62.5 498 c 128,-1,35
 34 431 34 431 34 350 c 256,16,17
EndSplineSet
EndChar

StartChar: uni041F
Encoding: 1055 1055 154
Width: 771
GlyphClass: 2
Flags: W
LayerCount: 2
Fore
SplineSet
519 549 m 1,0,-1
 519 0 l 1,1,-1
 691 0 l 1,2,-1
 691 700 l 1,3,-1
 80 700 l 1,4,-1
 80 0 l 1,5,-1
 252 0 l 1,6,-1
 252 549 l 1,7,-1
 519 549 l 1,0,-1
EndSplineSet
EndChar

StartChar: uni0420
Encoding: 1056 1056 155
Width: 623
GlyphClass: 2
Flags: W
LayerCount: 2
Fore
SplineSet
74 700 m 1,0,-1
 74 0 l 1,1,-1
 243 0 l 1,2,-1
 243 700 l 1,3,-1
 74 700 l 1,0,-1
180 561 m 1,4,-1
 317 561 l 2,5,6
 368 561 368 561 397 538 c 128,-1,7
 426 515 426 515 426 471 c 0,8,9
 426 428 426 428 397 405 c 128,-1,10
 368 382 368 382 317 382 c 2,11,-1
 180 382 l 1,12,-1
 180 243 l 1,13,-1
 317 243 l 2,14,15
 406 243 406 243 466.5 270.5 c 128,-1,16
 527 298 527 298 558 349.5 c 128,-1,17
 589 401 589 401 589 471 c 0,18,19
 589 543 589 543 558 594 c 128,-1,20
 527 645 527 645 466.5 672.5 c 128,-1,21
 406 700 406 700 317 700 c 2,22,-1
 180 700 l 1,23,-1
 180 561 l 1,4,-1
EndSplineSet
EndChar

StartChar: uni0421
Encoding: 1057 1057 156
Width: 701
GlyphClass: 2
Flags: W
LayerCount: 2
Fore
SplineSet
218 350 m 0,0,1
 218 415 218 415 247 461 c 128,-1,2
 276 507 276 507 323.5 531 c 128,-1,3
 371 555 371 555 428 555 c 0,4,5
 478 555 478 555 516 542.5 c 128,-1,6
 554 530 554 530 584 508.5 c 128,-1,7
 614 487 614 487 637 463 c 1,8,-1
 637 645 l 1,9,10
 595 678 595 678 545 697 c 128,-1,11
 495 716 495 716 418 716 c 0,12,13
 334 716 334 716 263 690 c 128,-1,14
 192 664 192 664 141 615 c 128,-1,15
 90 566 90 566 62 499 c 128,-1,16
 34 432 34 432 34 350 c 256,17,18
 34 268 34 268 62 201 c 128,-1,19
 90 134 90 134 141 85 c 128,-1,20
 192 36 192 36 263 10 c 128,-1,21
 334 -16 334 -16 418 -16 c 0,22,23
 495 -16 495 -16 545 3 c 128,-1,24
 595 22 595 22 637 55 c 1,25,-1
 637 237 l 1,26,27
 614 213 614 213 584 192 c 128,-1,28
 554 171 554 171 516 158 c 128,-1,29
 478 145 478 145 428 145 c 0,30,31
 371 145 371 145 323.5 169 c 128,-1,32
 276 193 276 193 247 239.5 c 128,-1,33
 218 286 218 286 218 350 c 0,0,1
EndSplineSet
EndChar

StartChar: uni0422
Encoding: 1058 1058 157
Width: 561
GlyphClass: 2
Flags: W
LayerCount: 2
Fore
SplineSet
4 549 m 1,0,-1
 196 549 l 1,1,-1
 196 0 l 1,2,-1
 365 0 l 1,3,-1
 365 549 l 1,4,-1
 558 549 l 1,5,-1
 558 700 l 1,6,-1
 4 700 l 1,7,-1
 4 549 l 1,0,-1
EndSplineSet
EndChar

StartChar: uni0423
Encoding: 1059 1059 158
Width: 618
GlyphClass: 2
Flags: W
LayerCount: 2
Fore
SplineSet
627 700 m 1,0,-1
 451 700 l 1,1,-1
 265 284 l 1,2,-1
 338 283 l 1,3,-1
 180 700 l 1,4,-1
 -9 700 l 1,5,-1
 220 213 l 1,6,-1
 125 0 l 1,7,-1
 298 0 l 1,8,-1
 627 700 l 1,0,-1
EndSplineSet
EndChar

StartChar: uni040E
Encoding: 1038 1038 159
Width: 605
GlyphClass: 2
Flags: W
LayerCount: 2
Fore
SplineSet
615 700 m 1,0,-1
 445 700 l 1,1,-1
 259 284 l 1,2,-1
 332 283 l 1,3,-1
 173 700 l 1,4,-1
 -9 700 l 1,5,-1
 214 213 l 1,6,-1
 119 0 l 1,7,-1
 286 0 l 1,8,-1
 615 700 l 1,0,-1
139 922 m 1,9,10
 139 882 139 882 158.5 848.5 c 128,-1,11
 178 815 178 815 215 795.5 c 128,-1,12
 252 776 252 776 304 776 c 0,13,14
 357 776 357 776 393.5 795.5 c 128,-1,15
 430 815 430 815 449 848.5 c 128,-1,16
 468 882 468 882 468 922 c 1,17,-1
 369 922 l 1,18,19
 369 905 369 905 360.5 891.5 c 128,-1,20
 352 878 352 878 337.5 870.5 c 128,-1,21
 323 863 323 863 304 863 c 0,22,23
 284 863 284 863 269.5 870.5 c 128,-1,24
 255 878 255 878 246.5 891.5 c 128,-1,25
 238 905 238 905 238 922 c 1,26,-1
 139 922 l 1,9,10
EndSplineSet
EndChar

StartChar: uni0424
Encoding: 1060 1060 160
Width: 932
GlyphClass: 2
Flags: W
LayerCount: 2
Fore
SplineSet
380 700 m 1,0,-1
 380 0 l 1,1,-1
 552 0 l 1,2,-1
 552 700 l 1,3,-1
 380 700 l 1,0,-1
720 350 m 0,4,5
 720 305 720 305 697 277.5 c 128,-1,6
 674 250 674 250 632.5 238.5 c 128,-1,7
 591 227 591 227 535 227 c 2,8,-1
 397 227 l 2,9,10
 341 227 341 227 299.5 238.5 c 128,-1,11
 258 250 258 250 235 277.5 c 128,-1,12
 212 305 212 305 212 350 c 0,13,14
 212 396 212 396 235 423 c 128,-1,15
 258 450 258 450 299.5 461.5 c 128,-1,16
 341 473 341 473 397 473 c 2,17,-1
 535 473 l 2,18,19
 591 473 591 473 632.5 461.5 c 128,-1,20
 674 450 674 450 697 423 c 128,-1,21
 720 396 720 396 720 350 c 0,4,5
892 350 m 0,22,23
 892 435 892 435 849 495 c 128,-1,24
 806 555 806 555 732 587.5 c 128,-1,25
 658 620 658 620 566 620 c 2,26,-1
 366 620 l 2,27,28
 274 620 274 620 200 587.5 c 128,-1,29
 126 555 126 555 83 495 c 128,-1,30
 40 435 40 435 40 350 c 0,31,32
 40 266 40 266 83 205.5 c 128,-1,33
 126 145 126 145 200 112.5 c 128,-1,34
 274 80 274 80 366 80 c 2,35,-1
 566 80 l 2,36,37
 658 80 658 80 732 112.5 c 128,-1,38
 806 145 806 145 849 205.5 c 128,-1,39
 892 266 892 266 892 350 c 0,22,23
EndSplineSet
EndChar

StartChar: uni0425
Encoding: 1061 1061 161
Width: 685
GlyphClass: 2
Flags: W
LayerCount: 2
Fore
SplineSet
458 700 m 1,0,-1
 346 497 l 1,1,-1
 238 700 l 1,2,-1
 29 700 l 1,3,-1
 244 359 l 1,4,-1
 4 0 l 1,5,-1
 213 0 l 1,6,-1
 345 233 l 1,7,-1
 473 0 l 1,8,-1
 682 0 l 1,9,-1
 447 359 l 1,10,-1
 667 700 l 1,11,-1
 458 700 l 1,0,-1
EndSplineSet
EndChar

StartChar: uni0426
Encoding: 1062 1062 162
Width: 859
GlyphClass: 2
Flags: W
LayerCount: 2
Fore
SplineSet
246 151 m 1,0,-1
 246 700 l 1,1,-1
 74 700 l 1,2,-1
 74 0 l 1,3,-1
 664 0 l 1,4,-1
 664 -135 l 1,5,-1
 826 -135 l 1,6,-1
 826 151 l 1,7,-1
 716 151 l 1,8,-1
 716 700 l 1,9,-1
 544 700 l 1,10,-1
 544 151 l 1,11,-1
 246 151 l 1,0,-1
EndSplineSet
EndChar

StartChar: uni0427
Encoding: 1063 1063 163
Width: 718
GlyphClass: 2
Flags: W
LayerCount: 2
Fore
SplineSet
309 221 m 1,0,-1
 526 221 l 1,1,-1
 526 371 l 1,2,-1
 358 371 l 1,3,-1
 309 221 l 1,0,-1
462 700 m 1,4,-1
 462 0 l 1,5,-1
 638 0 l 1,6,-1
 638 700 l 1,7,-1
 462 700 l 1,4,-1
244 700 m 1,8,-1
 74 700 l 1,9,-1
 74 468 l 2,10,11
 74 401 74 401 101 344.5 c 128,-1,12
 128 288 128 288 180.5 254.5 c 128,-1,13
 233 221 233 221 309 221 c 1,14,-1
 358 371 l 1,15,16
 325 371 325 371 299 384.5 c 128,-1,17
 273 398 273 398 258.5 424.5 c 128,-1,18
 244 451 244 451 244 490 c 2,19,-1
 244 700 l 1,8,-1
EndSplineSet
EndChar

StartChar: uni0428
Encoding: 1064 1064 164
Width: 1081
GlyphClass: 2
Flags: W
LayerCount: 2
Fore
SplineSet
832 151 m 1,0,-1
 622 151 l 1,1,-1
 622 700 l 1,2,-1
 459 700 l 1,3,-1
 459 151 l 1,4,-1
 249 151 l 1,5,-1
 249 700 l 1,6,-1
 80 700 l 1,7,-1
 80 0 l 1,8,-1
 1001 0 l 1,9,-1
 1001 700 l 1,10,-1
 832 700 l 1,11,-1
 832 151 l 1,0,-1
EndSplineSet
EndChar

StartChar: uni0429
Encoding: 1065 1065 165
Width: 1151
GlyphClass: 2
Flags: W
LayerCount: 2
Fore
SplineSet
832 151 m 1,0,-1
 622 151 l 1,1,-1
 622 700 l 1,2,-1
 459 700 l 1,3,-1
 459 151 l 1,4,-1
 249 151 l 1,5,-1
 249 700 l 1,6,-1
 80 700 l 1,7,-1
 80 0 l 1,8,-1
 949 0 l 1,9,-1
 949 -135 l 1,10,-1
 1111 -135 l 1,11,-1
 1111 151 l 1,12,-1
 1001 151 l 1,13,-1
 1001 700 l 1,14,-1
 832 700 l 1,15,-1
 832 151 l 1,0,-1
EndSplineSet
EndChar

StartChar: uni042A
Encoding: 1066 1066 166
Width: 736
GlyphClass: 2
Flags: W
LayerCount: 2
Fore
SplineSet
293 318 m 1,0,-1
 430 318 l 2,1,2
 464 318 464 318 488.5 308 c 128,-1,3
 513 298 513 298 526 278 c 128,-1,4
 539 258 539 258 539 229 c 256,5,6
 539 200 539 200 526 179.5 c 128,-1,7
 513 159 513 159 488.5 149 c 128,-1,8
 464 139 464 139 430 139 c 2,9,-1
 293 139 l 1,10,-1
 293 0 l 1,11,-1
 430 0 l 2,12,13
 519 0 519 0 579.5 27.5 c 128,-1,14
 640 55 640 55 671 106.5 c 128,-1,15
 702 158 702 158 702 229 c 256,16,17
 702 300 702 300 671 351 c 128,-1,18
 640 402 640 402 579.5 429.5 c 128,-1,19
 519 457 519 457 430 457 c 2,20,-1
 293 457 l 1,21,-1
 293 318 l 1,0,-1
190 549 m 1,22,-1
 190 0 l 1,23,-1
 359 0 l 1,24,-1
 359 700 l 1,25,-1
 10 700 l 1,26,-1
 10 549 l 1,27,-1
 190 549 l 1,22,-1
EndSplineSet
EndChar

StartChar: uni042B
Encoding: 1067 1067 167
Width: 908
GlyphClass: 2
Flags: W
LayerCount: 2
Fore
SplineSet
662 700 m 1,0,-1
 662 0 l 1,1,-1
 834 0 l 1,2,-1
 834 700 l 1,3,-1
 662 700 l 1,0,-1
74 700 m 1,4,-1
 74 0 l 1,5,-1
 243 0 l 1,6,-1
 243 700 l 1,7,-1
 74 700 l 1,4,-1
180 318 m 1,8,-1
 317 318 l 2,9,10
 351 318 351 318 375.5 308 c 128,-1,11
 400 298 400 298 413 278 c 128,-1,12
 426 258 426 258 426 229 c 256,13,14
 426 200 426 200 413 179.5 c 128,-1,15
 400 159 400 159 375.5 149 c 128,-1,16
 351 139 351 139 317 139 c 2,17,-1
 180 139 l 1,18,-1
 180 0 l 1,19,-1
 317 0 l 2,20,21
 406 0 406 0 466.5 27.5 c 128,-1,22
 527 55 527 55 558 106.5 c 128,-1,23
 589 158 589 158 589 229 c 256,24,25
 589 300 589 300 558 351 c 128,-1,26
 527 402 527 402 466.5 429.5 c 128,-1,27
 406 457 406 457 317 457 c 2,28,-1
 180 457 l 1,29,-1
 180 318 l 1,8,-1
EndSplineSet
EndChar

StartChar: uni042C
Encoding: 1068 1068 168
Width: 623
GlyphClass: 2
Flags: W
LayerCount: 2
Fore
SplineSet
74 700 m 1,0,-1
 74 0 l 1,1,-1
 243 0 l 1,2,-1
 243 700 l 1,3,-1
 74 700 l 1,0,-1
180 318 m 1,4,-1
 317 318 l 2,5,6
 351 318 351 318 375.5 308 c 128,-1,7
 400 298 400 298 413 278 c 128,-1,8
 426 258 426 258 426 229 c 256,9,10
 426 200 426 200 413 179.5 c 128,-1,11
 400 159 400 159 375.5 149 c 128,-1,12
 351 139 351 139 317 139 c 2,13,-1
 180 139 l 1,14,-1
 180 0 l 1,15,-1
 317 0 l 2,16,17
 406 0 406 0 466.5 27.5 c 128,-1,18
 527 55 527 55 558 106.5 c 128,-1,19
 589 158 589 158 589 229 c 256,20,21
 589 300 589 300 558 351 c 128,-1,22
 527 402 527 402 466.5 429.5 c 128,-1,23
 406 457 406 457 317 457 c 2,24,-1
 180 457 l 1,25,-1
 180 318 l 1,4,-1
EndSplineSet
EndChar

StartChar: uni042D
Encoding: 1069 1069 169
Width: 701
GlyphClass: 2
Flags: W
LayerCount: 2
Fore
SplineSet
137 282 m 1,0,-1
 510 282 l 1,1,-1
 510 418 l 1,2,-1
 137 418 l 1,3,-1
 137 282 l 1,0,-1
501 350 m 0,4,5
 501 286 501 286 467.5 238.5 c 128,-1,6
 434 191 434 191 381.5 164.5 c 128,-1,7
 329 138 329 138 273 138 c 0,8,9
 224 138 224 138 183.5 150.5 c 128,-1,10
 143 163 143 163 113.5 181.5 c 128,-1,11
 84 200 84 200 64 219 c 1,12,-1
 64 55 l 1,13,14
 106 22 106 22 156.5 3 c 128,-1,15
 207 -16 207 -16 283 -16 c 0,16,17
 367 -16 367 -16 437.5 10 c 128,-1,18
 508 36 508 36 559 85 c 128,-1,19
 610 134 610 134 638.5 201 c 128,-1,20
 667 268 667 268 667 350 c 256,21,22
 667 432 667 432 638.5 499 c 128,-1,23
 610 566 610 566 559 615 c 128,-1,24
 508 664 508 664 437.5 690 c 128,-1,25
 367 716 367 716 283 716 c 0,26,27
 207 716 207 716 156.5 697 c 128,-1,28
 106 678 106 678 64 645 c 1,29,-1
 64 481 l 1,30,31
 84 500 84 500 113.5 518.5 c 128,-1,32
 143 537 143 537 183.5 549.5 c 128,-1,33
 224 562 224 562 273 562 c 0,34,35
 329 562 329 562 381.5 536 c 128,-1,36
 434 510 434 510 467.5 462.5 c 128,-1,37
 501 415 501 415 501 350 c 0,4,5
EndSplineSet
EndChar

StartChar: uni042E
Encoding: 1070 1070 170
Width: 1142
GlyphClass: 2
Flags: W
LayerCount: 2
Fore
SplineSet
121 293 m 1,0,-1
 459 293 l 1,1,-1
 459 445 l 1,2,-1
 121 445 l 1,3,-1
 121 293 l 1,0,-1
74 700 m 1,4,-1
 74 0 l 1,5,-1
 243 0 l 1,6,-1
 243 700 l 1,7,-1
 74 700 l 1,4,-1
533 350 m 256,8,9
 533 412 533 412 558 459.5 c 128,-1,10
 583 507 583 507 627.5 534 c 128,-1,11
 672 561 672 561 731 561 c 0,12,13
 793 561 793 561 837 534 c 128,-1,14
 881 507 881 507 905 459.5 c 128,-1,15
 929 412 929 412 929 350 c 256,16,17
 929 288 929 288 904 240.5 c 128,-1,18
 879 193 879 193 835 166 c 128,-1,19
 791 139 791 139 731 139 c 0,20,21
 672 139 672 139 627.5 166 c 128,-1,22
 583 193 583 193 558 240.5 c 128,-1,23
 533 288 533 288 533 350 c 256,8,9
355 350 m 256,24,25
 355 269 355 269 382.5 201 c 128,-1,26
 410 133 410 133 460.5 83 c 128,-1,27
 511 33 511 33 580 5.5 c 128,-1,28
 649 -22 649 -22 731 -22 c 0,29,30
 814 -22 814 -22 883 5.5 c 128,-1,31
 952 33 952 33 1002.5 83 c 128,-1,32
 1053 133 1053 133 1080.5 201 c 128,-1,33
 1108 269 1108 269 1108 350 c 256,34,35
 1108 431 1108 431 1080 498 c 128,-1,36
 1052 565 1052 565 1001 614 c 128,-1,37
 950 663 950 663 881.5 689.5 c 128,-1,38
 813 716 813 716 731 716 c 0,39,40
 652 716 652 716 583 689.5 c 128,-1,41
 514 663 514 663 463 614 c 128,-1,42
 412 565 412 565 383.5 498 c 128,-1,43
 355 431 355 431 355 350 c 256,24,25
EndSplineSet
EndChar

StartChar: uni042F
Encoding: 1071 1071 171
Width: 647
GlyphClass: 2
Flags: W
LayerCount: 2
Fore
SplineSet
398 317 m 1,0,-1
 223 317 l 1,1,-1
 4 0 l 1,2,-1
 202 0 l 1,3,-1
 398 317 l 1,0,-1
573 700 m 1,4,-1
 404 700 l 1,5,-1
 404 0 l 1,6,-1
 573 0 l 1,7,-1
 573 700 l 1,4,-1
467 557 m 1,8,-1
 467 700 l 1,9,-1
 318 700 l 2,10,11
 229 700 229 700 168.5 671 c 128,-1,12
 108 642 108 642 77 590.5 c 128,-1,13
 46 539 46 539 46 471 c 0,14,15
 46 404 46 404 77 352.5 c 128,-1,16
 108 301 108 301 168.5 272 c 128,-1,17
 229 243 229 243 318 243 c 2,18,-1
 467 243 l 1,19,-1
 467 374 l 1,20,-1
 330 374 l 2,21,22
 297 374 297 374 272 384.5 c 128,-1,23
 247 395 247 395 234 415.5 c 128,-1,24
 221 436 221 436 221 465 c 256,25,26
 221 494 221 494 234 514.5 c 128,-1,27
 247 535 247 535 272 546 c 128,-1,28
 297 557 297 557 330 557 c 2,29,-1
 467 557 l 1,8,-1
EndSplineSet
EndChar

StartChar: a
Encoding: 97 97 172
Width: 617
GlyphClass: 2
Flags: W
LayerCount: 2
Fore
SplineSet
409 460 m 1,0,-1
 409 0 l 1,1,-1
 559 0 l 1,2,-1
 559 460 l 1,3,-1
 409 460 l 1,0,-1
32 230 m 0,4,5
 32 153 32 153 63.5 99.5 c 128,-1,6
 95 46 95 46 145 18 c 128,-1,7
 195 -10 195 -10 251 -10 c 0,8,9
 309 -10 309 -10 353.5 19 c 128,-1,10
 398 48 398 48 424 102 c 128,-1,11
 450 156 450 156 450 230 c 0,12,13
 450 305 450 305 424 358.5 c 128,-1,14
 398 412 398 412 353.5 441 c 128,-1,15
 309 470 309 470 251 470 c 0,16,17
 195 470 195 470 145 442 c 128,-1,18
 95 414 95 414 63.5 361 c 128,-1,19
 32 308 32 308 32 230 c 0,4,5
191 230 m 256,20,21
 191 266 191 266 206 292.5 c 128,-1,22
 221 319 221 319 246 333.5 c 128,-1,23
 271 348 271 348 301 348 c 0,24,25
 327 348 327 348 351.5 334 c 128,-1,26
 376 320 376 320 392 293.5 c 128,-1,27
 408 267 408 267 408 230 c 256,28,29
 408 193 408 193 392 166.5 c 128,-1,30
 376 140 376 140 351.5 126 c 128,-1,31
 327 112 327 112 301 112 c 0,32,33
 271 112 271 112 246 126.5 c 128,-1,34
 221 141 221 141 206 167.5 c 128,-1,35
 191 194 191 194 191 230 c 256,20,21
EndSplineSet
Substitution2: "'ss01' Style Set 1 in Latin lookup 0 subtable" a.alt
EndChar

StartChar: agrave
Encoding: 224 224 173
Width: 617
GlyphClass: 2
Flags: W
LayerCount: 2
Fore
SplineSet
409 460 m 1,0,-1
 409 0 l 1,1,-1
 559 0 l 1,2,-1
 559 460 l 1,3,-1
 409 460 l 1,0,-1
32 230 m 0,4,5
 32 153 32 153 63.5 99.5 c 128,-1,6
 95 46 95 46 145 18 c 128,-1,7
 195 -10 195 -10 251 -10 c 0,8,9
 309 -10 309 -10 353.5 19 c 128,-1,10
 398 48 398 48 424 102 c 128,-1,11
 450 156 450 156 450 230 c 0,12,13
 450 305 450 305 424 358.5 c 128,-1,14
 398 412 398 412 353.5 441 c 128,-1,15
 309 470 309 470 251 470 c 0,16,17
 195 470 195 470 145 442 c 128,-1,18
 95 414 95 414 63.5 361 c 128,-1,19
 32 308 32 308 32 230 c 0,4,5
191 230 m 256,20,21
 191 266 191 266 206 292.5 c 128,-1,22
 221 319 221 319 246 333.5 c 128,-1,23
 271 348 271 348 301 348 c 0,24,25
 327 348 327 348 351.5 334 c 128,-1,26
 376 320 376 320 392 293.5 c 128,-1,27
 408 267 408 267 408 230 c 256,28,29
 408 193 408 193 392 166.5 c 128,-1,30
 376 140 376 140 351.5 126 c 128,-1,31
 327 112 327 112 301 112 c 0,32,33
 271 112 271 112 246 126.5 c 128,-1,34
 221 141 221 141 206 167.5 c 128,-1,35
 191 194 191 194 191 230 c 256,20,21
132 681 m 1,36,-1
 312 531 l 1,37,-1
 397 573 l 1,38,-1
 247 733 l 1,39,-1
 132 681 l 1,36,-1
EndSplineSet
Substitution2: "'ss01' Style Set 1 in Latin lookup 0 subtable" agrave.alt
EndChar

StartChar: aacute
Encoding: 225 225 174
Width: 617
GlyphClass: 2
Flags: W
LayerCount: 2
Fore
SplineSet
409 460 m 1,0,-1
 409 0 l 1,1,-1
 559 0 l 1,2,-1
 559 460 l 1,3,-1
 409 460 l 1,0,-1
32 230 m 0,4,5
 32 153 32 153 63.5 99.5 c 128,-1,6
 95 46 95 46 145 18 c 128,-1,7
 195 -10 195 -10 251 -10 c 0,8,9
 309 -10 309 -10 353.5 19 c 128,-1,10
 398 48 398 48 424 102 c 128,-1,11
 450 156 450 156 450 230 c 0,12,13
 450 305 450 305 424 358.5 c 128,-1,14
 398 412 398 412 353.5 441 c 128,-1,15
 309 470 309 470 251 470 c 0,16,17
 195 470 195 470 145 442 c 128,-1,18
 95 414 95 414 63.5 361 c 128,-1,19
 32 308 32 308 32 230 c 0,4,5
191 230 m 256,20,21
 191 266 191 266 206 292.5 c 128,-1,22
 221 319 221 319 246 333.5 c 128,-1,23
 271 348 271 348 301 348 c 0,24,25
 327 348 327 348 351.5 334 c 128,-1,26
 376 320 376 320 392 293.5 c 128,-1,27
 408 267 408 267 408 230 c 256,28,29
 408 193 408 193 392 166.5 c 128,-1,30
 376 140 376 140 351.5 126 c 128,-1,31
 327 112 327 112 301 112 c 0,32,33
 271 112 271 112 246 126.5 c 128,-1,34
 221 141 221 141 206 167.5 c 128,-1,35
 191 194 191 194 191 230 c 256,20,21
449 681 m 1,36,-1
 334 733 l 1,37,-1
 184 573 l 1,38,-1
 269 531 l 1,39,-1
 449 681 l 1,36,-1
EndSplineSet
Substitution2: "'ss01' Style Set 1 in Latin lookup 0 subtable" aacute.alt
EndChar

StartChar: acircumflex
Encoding: 226 226 175
Width: 617
GlyphClass: 2
Flags: W
LayerCount: 2
Fore
SplineSet
409 460 m 1,0,-1
 409 0 l 1,1,-1
 559 0 l 1,2,-1
 559 460 l 1,3,-1
 409 460 l 1,0,-1
32 230 m 0,4,5
 32 153 32 153 63.5 99.5 c 128,-1,6
 95 46 95 46 145 18 c 128,-1,7
 195 -10 195 -10 251 -10 c 0,8,9
 309 -10 309 -10 353.5 19 c 128,-1,10
 398 48 398 48 424 102 c 128,-1,11
 450 156 450 156 450 230 c 0,12,13
 450 305 450 305 424 358.5 c 128,-1,14
 398 412 398 412 353.5 441 c 128,-1,15
 309 470 309 470 251 470 c 0,16,17
 195 470 195 470 145 442 c 128,-1,18
 95 414 95 414 63.5 361 c 128,-1,19
 32 308 32 308 32 230 c 0,4,5
191 230 m 256,20,21
 191 266 191 266 206 292.5 c 128,-1,22
 221 319 221 319 246 333.5 c 128,-1,23
 271 348 271 348 301 348 c 0,24,25
 327 348 327 348 351.5 334 c 128,-1,26
 376 320 376 320 392 293.5 c 128,-1,27
 408 267 408 267 408 230 c 256,28,29
 408 193 408 193 392 166.5 c 128,-1,30
 376 140 376 140 351.5 126 c 128,-1,31
 327 112 327 112 301 112 c 0,32,33
 271 112 271 112 246 126.5 c 128,-1,34
 221 141 221 141 206 167.5 c 128,-1,35
 191 194 191 194 191 230 c 256,20,21
314 616 m 1,36,-1
 405 531 l 1,37,-1
 511 602 l 1,38,-1
 314 742 l 1,39,-1
 117 602 l 1,40,-1
 223 531 l 1,41,-1
 314 616 l 1,36,-1
EndSplineSet
Substitution2: "'ss01' Style Set 1 in Latin lookup 0 subtable" acircumflex.alt
EndChar

StartChar: atilde
Encoding: 227 227 176
Width: 617
GlyphClass: 2
Flags: W
LayerCount: 2
Fore
SplineSet
409 460 m 1,0,-1
 409 0 l 1,1,-1
 559 0 l 1,2,-1
 559 460 l 1,3,-1
 409 460 l 1,0,-1
32 230 m 0,4,5
 32 153 32 153 63.5 99.5 c 128,-1,6
 95 46 95 46 145 18 c 128,-1,7
 195 -10 195 -10 251 -10 c 0,8,9
 309 -10 309 -10 353.5 19 c 128,-1,10
 398 48 398 48 424 102 c 128,-1,11
 450 156 450 156 450 230 c 0,12,13
 450 305 450 305 424 358.5 c 128,-1,14
 398 412 398 412 353.5 441 c 128,-1,15
 309 470 309 470 251 470 c 0,16,17
 195 470 195 470 145 442 c 128,-1,18
 95 414 95 414 63.5 361 c 128,-1,19
 32 308 32 308 32 230 c 0,4,5
191 230 m 256,20,21
 191 266 191 266 206 292.5 c 128,-1,22
 221 319 221 319 246 333.5 c 128,-1,23
 271 348 271 348 301 348 c 0,24,25
 327 348 327 348 351.5 334 c 128,-1,26
 376 320 376 320 392 293.5 c 128,-1,27
 408 267 408 267 408 230 c 256,28,29
 408 193 408 193 392 166.5 c 128,-1,30
 376 140 376 140 351.5 126 c 128,-1,31
 327 112 327 112 301 112 c 0,32,33
 271 112 271 112 246 126.5 c 128,-1,34
 221 141 221 141 206 167.5 c 128,-1,35
 191 194 191 194 191 230 c 256,20,21
124 596 m 1,36,-1
 196 534 l 1,37,38
 196 542 196 542 199.5 554 c 128,-1,39
 203 566 203 566 213.5 575.5 c 128,-1,40
 224 585 224 585 243 585 c 0,41,42
 268 585 268 585 289 572 c 128,-1,43
 310 559 310 559 332.5 545.5 c 128,-1,44
 355 532 355 532 382 532 c 0,45,46
 414 532 414 532 441.5 545.5 c 128,-1,47
 469 559 469 559 488.5 579.5 c 128,-1,48
 508 600 508 600 516 618 c 1,49,-1
 445 692 l 1,50,51
 430 668 430 668 414.5 653.5 c 128,-1,52
 399 639 399 639 380 639 c 0,53,54
 359 639 359 639 344 647 c 128,-1,55
 329 655 329 655 315.5 665 c 128,-1,56
 302 675 302 675 285 683 c 128,-1,57
 268 691 268 691 244 691 c 0,58,59
 212 691 212 691 186.5 677 c 128,-1,60
 161 663 161 663 145 642 c 128,-1,61
 129 621 129 621 124 596 c 1,36,-1
EndSplineSet
Substitution2: "'ss01' Style Set 1 in Latin lookup 0 subtable" atilde.alt
EndChar

StartChar: adieresis
Encoding: 228 228 177
Width: 617
GlyphClass: 2
Flags: W
LayerCount: 2
Fore
SplineSet
409 460 m 1,0,-1
 409 0 l 1,1,-1
 559 0 l 1,2,-1
 559 460 l 1,3,-1
 409 460 l 1,0,-1
32 230 m 0,4,5
 32 153 32 153 63.5 99.5 c 128,-1,6
 95 46 95 46 145 18 c 128,-1,7
 195 -10 195 -10 251 -10 c 0,8,9
 309 -10 309 -10 353.5 19 c 128,-1,10
 398 48 398 48 424 102 c 128,-1,11
 450 156 450 156 450 230 c 0,12,13
 450 305 450 305 424 358.5 c 128,-1,14
 398 412 398 412 353.5 441 c 128,-1,15
 309 470 309 470 251 470 c 0,16,17
 195 470 195 470 145 442 c 128,-1,18
 95 414 95 414 63.5 361 c 128,-1,19
 32 308 32 308 32 230 c 0,4,5
191 230 m 256,20,21
 191 266 191 266 206 292.5 c 128,-1,22
 221 319 221 319 246 333.5 c 128,-1,23
 271 348 271 348 301 348 c 0,24,25
 327 348 327 348 351.5 334 c 128,-1,26
 376 320 376 320 392 293.5 c 128,-1,27
 408 267 408 267 408 230 c 256,28,29
 408 193 408 193 392 166.5 c 128,-1,30
 376 140 376 140 351.5 126 c 128,-1,31
 327 112 327 112 301 112 c 0,32,33
 271 112 271 112 246 126.5 c 128,-1,34
 221 141 221 141 206 167.5 c 128,-1,35
 191 194 191 194 191 230 c 256,20,21
342 612 m 0,36,37
 342 577 342 577 367.5 554 c 128,-1,38
 393 531 393 531 430 531 c 0,39,40
 466 531 466 531 492 554 c 128,-1,41
 518 577 518 577 518 612 c 0,42,43
 518 648 518 648 492 671 c 128,-1,44
 466 694 466 694 430 694 c 0,45,46
 393 694 393 694 367.5 671 c 128,-1,47
 342 648 342 648 342 612 c 0,36,37
98 612 m 0,48,49
 98 577 98 577 124 554 c 128,-1,50
 150 531 150 531 186 531 c 0,51,52
 223 531 223 531 248.5 554 c 128,-1,53
 274 577 274 577 274 612 c 0,54,55
 274 648 274 648 248.5 671 c 128,-1,56
 223 694 223 694 186 694 c 0,57,58
 150 694 150 694 124 671 c 128,-1,59
 98 648 98 648 98 612 c 0,48,49
EndSplineSet
Substitution2: "'ss01' Style Set 1 in Latin lookup 0 subtable" adieresis.alt
EndChar

StartChar: aring
Encoding: 229 229 178
Width: 617
GlyphClass: 2
Flags: W
LayerCount: 2
Fore
SplineSet
409 460 m 1,0,-1
 409 0 l 1,1,-1
 559 0 l 1,2,-1
 559 460 l 1,3,-1
 409 460 l 1,0,-1
32 230 m 0,4,5
 32 153 32 153 63.5 99.5 c 128,-1,6
 95 46 95 46 145 18 c 128,-1,7
 195 -10 195 -10 251 -10 c 0,8,9
 309 -10 309 -10 353.5 19 c 128,-1,10
 398 48 398 48 424 102 c 128,-1,11
 450 156 450 156 450 230 c 0,12,13
 450 305 450 305 424 358.5 c 128,-1,14
 398 412 398 412 353.5 441 c 128,-1,15
 309 470 309 470 251 470 c 0,16,17
 195 470 195 470 145 442 c 128,-1,18
 95 414 95 414 63.5 361 c 128,-1,19
 32 308 32 308 32 230 c 0,4,5
191 230 m 256,20,21
 191 266 191 266 206 292.5 c 128,-1,22
 221 319 221 319 246 333.5 c 128,-1,23
 271 348 271 348 301 348 c 0,24,25
 326 348 326 348 351 334 c 128,-1,26
 376 320 376 320 392 294 c 128,-1,27
 408 268 408 268 408 230 c 256,28,29
 408 192 408 192 392 166 c 128,-1,30
 376 140 376 140 351 126 c 128,-1,31
 326 112 326 112 301 112 c 0,32,33
 271 112 271 112 246 126.5 c 128,-1,34
 221 141 221 141 206 167.5 c 128,-1,35
 191 194 191 194 191 230 c 256,20,21
183 646 m 0,36,37
 183 595 183 595 219 563 c 128,-1,38
 255 531 255 531 307 531 c 256,39,40
 359 531 359 531 396 563 c 128,-1,41
 433 595 433 595 433 646 c 0,42,43
 433 698 433 698 396 730 c 128,-1,44
 359 762 359 762 307 762 c 256,45,46
 255 762 255 762 219 730 c 128,-1,47
 183 698 183 698 183 646 c 0,36,37
261 646 m 0,48,49
 261 669 261 669 274.5 681.5 c 128,-1,50
 288 694 288 694 307 694 c 256,51,52
 326 694 326 694 340 681.5 c 128,-1,53
 354 669 354 669 354 646 c 0,54,55
 354 624 354 624 340 611.5 c 128,-1,56
 326 599 326 599 307 599 c 256,57,58
 288 599 288 599 274.5 611.5 c 128,-1,59
 261 624 261 624 261 646 c 0,48,49
EndSplineSet
Substitution2: "'ss01' Style Set 1 in Latin lookup 0 subtable" aring.alt
EndChar

StartChar: amacron
Encoding: 257 257 179
Width: 617
GlyphClass: 2
Flags: W
LayerCount: 2
Fore
SplineSet
409 460 m 1,0,-1
 409 0 l 1,1,-1
 559 0 l 1,2,-1
 559 460 l 1,3,-1
 409 460 l 1,0,-1
32 230 m 0,4,5
 32 153 32 153 63.5 99.5 c 128,-1,6
 95 46 95 46 145 18 c 128,-1,7
 195 -10 195 -10 251 -10 c 0,8,9
 309 -10 309 -10 353.5 19 c 128,-1,10
 398 48 398 48 424 102 c 128,-1,11
 450 156 450 156 450 230 c 0,12,13
 450 305 450 305 424 358.5 c 128,-1,14
 398 412 398 412 353.5 441 c 128,-1,15
 309 470 309 470 251 470 c 0,16,17
 195 470 195 470 145 442 c 128,-1,18
 95 414 95 414 63.5 361 c 128,-1,19
 32 308 32 308 32 230 c 0,4,5
191 230 m 256,20,21
 191 266 191 266 206 292.5 c 128,-1,22
 221 319 221 319 246 333.5 c 128,-1,23
 271 348 271 348 301 348 c 0,24,25
 327 348 327 348 351.5 334 c 128,-1,26
 376 320 376 320 392 293.5 c 128,-1,27
 408 267 408 267 408 230 c 256,28,29
 408 193 408 193 392 166.5 c 128,-1,30
 376 140 376 140 351.5 126 c 128,-1,31
 327 112 327 112 301 112 c 0,32,33
 271 112 271 112 246 126.5 c 128,-1,34
 221 141 221 141 206 167.5 c 128,-1,35
 191 194 191 194 191 230 c 256,20,21
125 531 m 1,36,-1
 496 531 l 1,37,-1
 496 662 l 1,38,-1
 125 662 l 1,39,-1
 125 531 l 1,36,-1
EndSplineSet
Substitution2: "'ss01' Style Set 1 in Latin lookup 0 subtable" amacron.alt
EndChar

StartChar: abreve
Encoding: 259 259 180
Width: 617
GlyphClass: 2
Flags: W
LayerCount: 2
Fore
SplineSet
409 460 m 1,0,-1
 409 0 l 1,1,-1
 559 0 l 1,2,-1
 559 460 l 1,3,-1
 409 460 l 1,0,-1
32 230 m 0,4,5
 32 153 32 153 63.5 99.5 c 128,-1,6
 95 46 95 46 145 18 c 128,-1,7
 195 -10 195 -10 251 -10 c 0,8,9
 309 -10 309 -10 353.5 19 c 128,-1,10
 398 48 398 48 424 102 c 128,-1,11
 450 156 450 156 450 230 c 0,12,13
 450 305 450 305 424 358.5 c 128,-1,14
 398 412 398 412 353.5 441 c 128,-1,15
 309 470 309 470 251 470 c 0,16,17
 195 470 195 470 145 442 c 128,-1,18
 95 414 95 414 63.5 361 c 128,-1,19
 32 308 32 308 32 230 c 0,4,5
191 230 m 256,20,21
 191 266 191 266 206 292.5 c 128,-1,22
 221 319 221 319 246 333.5 c 128,-1,23
 271 348 271 348 301 348 c 0,24,25
 327 348 327 348 351.5 334 c 128,-1,26
 376 320 376 320 392 293.5 c 128,-1,27
 408 267 408 267 408 230 c 256,28,29
 408 193 408 193 392 166.5 c 128,-1,30
 376 140 376 140 351.5 126 c 128,-1,31
 327 112 327 112 301 112 c 0,32,33
 271 112 271 112 246 126.5 c 128,-1,34
 221 141 221 141 206 167.5 c 128,-1,35
 191 194 191 194 191 230 c 256,20,21
136 677 m 1,36,37
 136 637 136 637 155 603.5 c 128,-1,38
 174 570 174 570 211 550.5 c 128,-1,39
 248 531 248 531 300 531 c 0,40,41
 353 531 353 531 389.5 550.5 c 128,-1,42
 426 570 426 570 445 603.5 c 128,-1,43
 464 637 464 637 464 677 c 1,44,-1
 366 677 l 1,45,46
 366 659 366 659 357.5 646 c 128,-1,47
 349 633 349 633 334.5 625 c 128,-1,48
 320 617 320 617 300 617 c 0,49,50
 281 617 281 617 266.5 625 c 128,-1,51
 252 633 252 633 243.5 646 c 128,-1,52
 235 659 235 659 235 677 c 1,53,-1
 136 677 l 1,36,37
EndSplineSet
Substitution2: "'ss01' Style Set 1 in Latin lookup 0 subtable" abreve.alt
EndChar

StartChar: aogonek
Encoding: 261 261 181
Width: 544
GlyphClass: 2
Flags: W
LayerCount: 2
Fore
SplineSet
176 137 m 0,0,1
 176 156 176 156 185.5 169 c 128,-1,2
 195 182 195 182 213.5 189.5 c 128,-1,3
 232 197 232 197 258 197 c 0,4,5
 297 197 297 197 324.5 187.5 c 128,-1,6
 352 178 352 178 378 159 c 1,7,-1
 378 230 l 1,8,9
 368 241 368 241 344.5 252.5 c 128,-1,10
 321 264 321 264 289.5 271.5 c 128,-1,11
 258 279 258 279 223 279 c 0,12,13
 163 279 163 279 118 261 c 128,-1,14
 73 243 73 243 48.5 210 c 128,-1,15
 24 177 24 177 24 131 c 0,16,17
 24 86 24 86 45.5 54.5 c 128,-1,18
 67 23 67 23 105 6.5 c 128,-1,19
 143 -10 143 -10 191 -10 c 256,20,21
 239 -10 239 -10 277.5 6.5 c 128,-1,22
 316 23 316 23 338.5 54.5 c 128,-1,23
 361 86 361 86 361 130 c 1,24,-1
 345 186 l 1,25,26
 345 149 345 149 331 128 c 128,-1,27
 317 107 317 107 293.5 98 c 128,-1,28
 270 89 270 89 242 89 c 0,29,30
 224 89 224 89 209 94.5 c 128,-1,31
 194 100 194 100 185 110.5 c 128,-1,32
 176 121 176 121 176 137 c 0,0,1
117 318 m 1,33,34
 128 325 128 325 150 334.5 c 128,-1,35
 172 344 172 344 201.5 351 c 128,-1,36
 231 358 231 358 264 358 c 0,37,38
 302 358 302 358 323.5 340.5 c 128,-1,39
 345 323 345 323 345 294 c 2,40,-1
 345 0 l 1,41,-1
 490 0 l 1,42,-1
 490 324 l 2,43,44
 490 372 490 372 462.5 405 c 128,-1,45
 435 438 435 438 386.5 455.5 c 128,-1,46
 338 473 338 473 276 473 c 256,47,48
 214 473 214 473 159.5 456 c 128,-1,49
 105 439 105 439 66 420 c 1,50,-1
 117 318 l 1,33,34
464 -111 m 1,51,52
 454 -121 454 -121 441.5 -126 c 128,-1,53
 429 -131 429 -131 414 -131 c 0,54,55
 397 -131 397 -131 388 -121.5 c 128,-1,56
 379 -112 379 -112 379 -94 c 0,57,58
 379 -78 379 -78 388 -62 c 128,-1,59
 397 -46 397 -46 415 -30 c 128,-1,60
 433 -14 433 -14 459 0 c 1,61,-1
 418 25 l 1,62,63
 383 7 383 7 351.5 -14.5 c 128,-1,64
 320 -36 320 -36 300 -61.5 c 128,-1,65
 280 -87 280 -87 280 -120 c 0,66,67
 280 -152 280 -152 295.5 -174.5 c 128,-1,68
 311 -197 311 -197 337.5 -208.5 c 128,-1,69
 364 -220 364 -220 397 -220 c 0,70,71
 438 -220 438 -220 462 -207.5 c 128,-1,72
 486 -195 486 -195 497 -180 c 1,73,-1
 464 -111 l 1,51,52
EndSplineSet
Substitution2: "'ss01' Style Set 1 in Latin lookup 0 subtable" aogonek.alt
EndChar

StartChar: b
Encoding: 98 98 182
Width: 617
GlyphClass: 2
Flags: W
LayerCount: 2
Fore
SplineSet
209 780 m 1,0,-1
 58 780 l 1,1,-1
 58 0 l 1,2,-1
 209 0 l 1,3,-1
 209 780 l 1,0,-1
585 230 m 0,4,5
 585 308 585 308 553.5 361 c 128,-1,6
 522 414 522 414 472.5 442 c 128,-1,7
 423 470 423 470 366 470 c 256,8,9
 309 470 309 470 264 441 c 128,-1,10
 219 412 219 412 193 358.5 c 128,-1,11
 167 305 167 305 167 230 c 0,12,13
 167 156 167 156 193 102 c 128,-1,14
 219 48 219 48 264 19 c 128,-1,15
 309 -10 309 -10 366 -10 c 256,16,17
 423 -10 423 -10 472.5 18 c 128,-1,18
 522 46 522 46 553.5 99.5 c 128,-1,19
 585 153 585 153 585 230 c 0,4,5
426 230 m 256,20,21
 426 194 426 194 411 167.5 c 128,-1,22
 396 141 396 141 371 126.5 c 128,-1,23
 346 112 346 112 316 112 c 0,24,25
 290 112 290 112 265.5 126 c 128,-1,26
 241 140 241 140 225 166.5 c 128,-1,27
 209 193 209 193 209 230 c 256,28,29
 209 267 209 267 225 293.5 c 128,-1,30
 241 320 241 320 265.5 334 c 128,-1,31
 290 348 290 348 316 348 c 0,32,33
 346 348 346 348 371 333.5 c 128,-1,34
 396 319 396 319 411 292.5 c 128,-1,35
 426 266 426 266 426 230 c 256,20,21
EndSplineSet
EndChar

StartChar: c
Encoding: 99 99 183
Width: 494
GlyphClass: 2
Flags: W
LayerCount: 2
Fore
SplineSet
186 230 m 0,0,1
 186 264 186 264 202 291 c 128,-1,2
 218 318 218 318 246.5 334 c 128,-1,3
 275 350 275 350 308 350 c 0,4,5
 333 350 333 350 359 342 c 128,-1,6
 385 334 385 334 407.5 319 c 128,-1,7
 430 304 430 304 444 282 c 1,8,-1
 444 430 l 1,9,10
 420 447 420 447 384 458.5 c 128,-1,11
 348 470 348 470 296 470 c 0,12,13
 220 470 220 470 159.5 440 c 128,-1,14
 99 410 99 410 64.5 356.5 c 128,-1,15
 30 303 30 303 30 230 c 0,16,17
 30 158 30 158 64.5 104 c 128,-1,18
 99 50 99 50 159.5 20 c 128,-1,19
 220 -10 220 -10 296 -10 c 0,20,21
 348 -10 348 -10 384 1.5 c 128,-1,22
 420 13 420 13 444 32 c 1,23,-1
 444 179 l 1,24,25
 430 157 430 157 408.5 142 c 128,-1,26
 387 127 387 127 361.5 118.5 c 128,-1,27
 336 110 336 110 308 110 c 0,28,29
 275 110 275 110 246.5 125 c 128,-1,30
 218 140 218 140 202 166.5 c 128,-1,31
 186 193 186 193 186 230 c 0,0,1
EndSplineSet
EndChar

StartChar: ccedilla
Encoding: 231 231 184
Width: 494
GlyphClass: 2
Flags: W
LayerCount: 2
Fore
SplineSet
186 230 m 0,0,1
 186 264 186 264 202 291 c 128,-1,2
 218 318 218 318 246.5 334 c 128,-1,3
 275 350 275 350 308 350 c 0,4,5
 333 350 333 350 359 342 c 128,-1,6
 385 334 385 334 407.5 319 c 128,-1,7
 430 304 430 304 444 282 c 1,8,-1
 444 430 l 1,9,10
 420 447 420 447 384 458.5 c 128,-1,11
 348 470 348 470 296 470 c 0,12,13
 220 470 220 470 159.5 440 c 128,-1,14
 99 410 99 410 64.5 356.5 c 128,-1,15
 30 303 30 303 30 230 c 0,16,17
 30 158 30 158 64.5 104 c 128,-1,18
 99 50 99 50 159.5 20 c 128,-1,19
 220 -10 220 -10 296 -10 c 0,20,21
 348 -10 348 -10 384 1.5 c 128,-1,22
 420 13 420 13 444 32 c 1,23,-1
 444 179 l 1,24,25
 430 157 430 157 408.5 142 c 128,-1,26
 387 127 387 127 361.5 118.5 c 128,-1,27
 336 110 336 110 308 110 c 0,28,29
 275 110 275 110 246.5 125 c 128,-1,30
 218 140 218 140 202 166.5 c 128,-1,31
 186 193 186 193 186 230 c 0,0,1
237 61 m 1,32,-1
 150 -134 l 1,33,34
 176 -123 176 -123 200.5 -120.5 c 128,-1,35
 225 -118 225 -118 232 -118 c 0,36,37
 255 -118 255 -118 273.5 -124 c 128,-1,38
 292 -130 292 -130 292 -150 c 0,39,40
 292 -168 292 -168 278 -176.5 c 128,-1,41
 264 -185 264 -185 238 -185 c 0,42,43
 223 -185 223 -185 201 -179.5 c 128,-1,44
 179 -174 179 -174 160 -160 c 1,45,-1
 114 -228 l 1,46,47
 149 -251 149 -251 182.5 -259.5 c 128,-1,48
 216 -268 216 -268 258 -268 c 0,49,50
 290 -268 290 -268 319.5 -255.5 c 128,-1,51
 349 -243 349 -243 369 -218.5 c 128,-1,52
 389 -194 389 -194 389 -159 c 0,53,54
 389 -126 389 -126 374.5 -104 c 128,-1,55
 360 -82 360 -82 339 -71.5 c 128,-1,56
 318 -61 318 -61 298 -61 c 0,57,58
 287 -61 287 -61 278 -61.5 c 128,-1,59
 269 -62 269 -62 261 -65 c 1,60,-1
 347 57 l 1,61,-1
 237 61 l 1,32,-1
EndSplineSet
EndChar

StartChar: cacute
Encoding: 263 263 185
Width: 494
GlyphClass: 2
Flags: W
LayerCount: 2
Fore
SplineSet
186 230 m 0,0,1
 186 264 186 264 202 291 c 128,-1,2
 218 318 218 318 246.5 334 c 128,-1,3
 275 350 275 350 308 350 c 0,4,5
 333 350 333 350 359 342 c 128,-1,6
 385 334 385 334 407.5 319 c 128,-1,7
 430 304 430 304 444 282 c 1,8,-1
 444 430 l 1,9,10
 420 447 420 447 384 458.5 c 128,-1,11
 348 470 348 470 296 470 c 0,12,13
 220 470 220 470 159.5 440 c 128,-1,14
 99 410 99 410 64.5 356.5 c 128,-1,15
 30 303 30 303 30 230 c 0,16,17
 30 158 30 158 64.5 104 c 128,-1,18
 99 50 99 50 159.5 20 c 128,-1,19
 220 -10 220 -10 296 -10 c 0,20,21
 348 -10 348 -10 384 1.5 c 128,-1,22
 420 13 420 13 444 32 c 1,23,-1
 444 179 l 1,24,25
 430 157 430 157 408.5 142 c 128,-1,26
 387 127 387 127 361.5 118.5 c 128,-1,27
 336 110 336 110 308 110 c 0,28,29
 275 110 275 110 246.5 125 c 128,-1,30
 218 140 218 140 202 166.5 c 128,-1,31
 186 193 186 193 186 230 c 0,0,1
426 681 m 1,32,-1
 311 733 l 1,33,-1
 161 573 l 1,34,-1
 246 531 l 1,35,-1
 426 681 l 1,32,-1
EndSplineSet
EndChar

StartChar: ccircumflex
Encoding: 265 265 186
Width: 494
GlyphClass: 2
Flags: W
LayerCount: 2
Fore
SplineSet
186 230 m 0,0,1
 186 264 186 264 202 291 c 128,-1,2
 218 318 218 318 246.5 334 c 128,-1,3
 275 350 275 350 308 350 c 0,4,5
 333 350 333 350 359 342 c 128,-1,6
 385 334 385 334 407.5 319 c 128,-1,7
 430 304 430 304 444 282 c 1,8,-1
 444 430 l 1,9,10
 420 447 420 447 384 458.5 c 128,-1,11
 348 470 348 470 296 470 c 0,12,13
 220 470 220 470 159.5 440 c 128,-1,14
 99 410 99 410 64.5 356.5 c 128,-1,15
 30 303 30 303 30 230 c 0,16,17
 30 158 30 158 64.5 104 c 128,-1,18
 99 50 99 50 159.5 20 c 128,-1,19
 220 -10 220 -10 296 -10 c 0,20,21
 348 -10 348 -10 384 1.5 c 128,-1,22
 420 13 420 13 444 32 c 1,23,-1
 444 179 l 1,24,25
 430 157 430 157 408.5 142 c 128,-1,26
 387 127 387 127 361.5 118.5 c 128,-1,27
 336 110 336 110 308 110 c 0,28,29
 275 110 275 110 246.5 125 c 128,-1,30
 218 140 218 140 202 166.5 c 128,-1,31
 186 193 186 193 186 230 c 0,0,1
265 616 m 1,32,-1
 356 531 l 1,33,-1
 462 602 l 1,34,-1
 265 742 l 1,35,-1
 68 602 l 1,36,-1
 174 531 l 1,37,-1
 265 616 l 1,32,-1
EndSplineSet
EndChar

StartChar: cdotaccent
Encoding: 267 267 187
Width: 494
GlyphClass: 2
Flags: W
LayerCount: 2
Fore
SplineSet
186 230 m 0,0,1
 186 264 186 264 202 291 c 128,-1,2
 218 318 218 318 246.5 334 c 128,-1,3
 275 350 275 350 308 350 c 0,4,5
 333 350 333 350 359 342 c 128,-1,6
 385 334 385 334 407.5 319 c 128,-1,7
 430 304 430 304 444 282 c 1,8,-1
 444 430 l 1,9,10
 420 447 420 447 384 458.5 c 128,-1,11
 348 470 348 470 296 470 c 0,12,13
 220 470 220 470 159.5 440 c 128,-1,14
 99 410 99 410 64.5 356.5 c 128,-1,15
 30 303 30 303 30 230 c 0,16,17
 30 158 30 158 64.5 104 c 128,-1,18
 99 50 99 50 159.5 20 c 128,-1,19
 220 -10 220 -10 296 -10 c 0,20,21
 348 -10 348 -10 384 1.5 c 128,-1,22
 420 13 420 13 444 32 c 1,23,-1
 444 179 l 1,24,25
 430 157 430 157 408.5 142 c 128,-1,26
 387 127 387 127 361.5 118.5 c 128,-1,27
 336 110 336 110 308 110 c 0,28,29
 275 110 275 110 246.5 125 c 128,-1,30
 218 140 218 140 202 166.5 c 128,-1,31
 186 193 186 193 186 230 c 0,0,1
183 619 m 256,32,33
 183 583 183 583 209 560 c 128,-1,34
 235 537 235 537 271 537 c 0,35,36
 308 537 308 537 333.5 560 c 128,-1,37
 359 583 359 583 359 619 c 256,38,39
 359 655 359 655 333.5 677.5 c 128,-1,40
 308 700 308 700 271 700 c 0,41,42
 235 700 235 700 209 677.5 c 128,-1,43
 183 655 183 655 183 619 c 256,32,33
EndSplineSet
EndChar

StartChar: ccaron
Encoding: 269 269 188
Width: 494
GlyphClass: 2
Flags: W
LayerCount: 2
Fore
SplineSet
186 230 m 0,0,1
 186 264 186 264 202 291 c 128,-1,2
 218 318 218 318 246.5 334 c 128,-1,3
 275 350 275 350 308 350 c 0,4,5
 333 350 333 350 359 342 c 128,-1,6
 385 334 385 334 407.5 319 c 128,-1,7
 430 304 430 304 444 282 c 1,8,-1
 444 430 l 1,9,10
 420 447 420 447 384 458.5 c 128,-1,11
 348 470 348 470 296 470 c 0,12,13
 220 470 220 470 159.5 440 c 128,-1,14
 99 410 99 410 64.5 356.5 c 128,-1,15
 30 303 30 303 30 230 c 0,16,17
 30 158 30 158 64.5 104 c 128,-1,18
 99 50 99 50 159.5 20 c 128,-1,19
 220 -10 220 -10 296 -10 c 0,20,21
 348 -10 348 -10 384 1.5 c 128,-1,22
 420 13 420 13 444 32 c 1,23,-1
 444 179 l 1,24,25
 430 157 430 157 408.5 142 c 128,-1,26
 387 127 387 127 361.5 118.5 c 128,-1,27
 336 110 336 110 308 110 c 0,28,29
 275 110 275 110 246.5 125 c 128,-1,30
 218 140 218 140 202 166.5 c 128,-1,31
 186 193 186 193 186 230 c 0,0,1
265 656 m 1,32,-1
 174 742 l 1,33,-1
 68 671 l 1,34,-1
 265 531 l 1,35,-1
 462 671 l 1,36,-1
 356 742 l 1,37,-1
 265 656 l 1,32,-1
EndSplineSet
EndChar

StartChar: d
Encoding: 100 100 189
Width: 617
GlyphClass: 2
Flags: W
LayerCount: 2
Fore
SplineSet
408 780 m 1,0,-1
 408 0 l 1,1,-1
 559 0 l 1,2,-1
 559 780 l 1,3,-1
 408 780 l 1,0,-1
32 230 m 0,4,5
 32 153 32 153 63.5 99.5 c 128,-1,6
 95 46 95 46 145 18 c 128,-1,7
 195 -10 195 -10 251 -10 c 0,8,9
 309 -10 309 -10 353.5 19 c 128,-1,10
 398 48 398 48 424 102 c 128,-1,11
 450 156 450 156 450 230 c 0,12,13
 450 305 450 305 424 358.5 c 128,-1,14
 398 412 398 412 353.5 441 c 128,-1,15
 309 470 309 470 251 470 c 0,16,17
 195 470 195 470 145 442 c 128,-1,18
 95 414 95 414 63.5 361 c 128,-1,19
 32 308 32 308 32 230 c 0,4,5
191 230 m 256,20,21
 191 266 191 266 206 292.5 c 128,-1,22
 221 319 221 319 246 333.5 c 128,-1,23
 271 348 271 348 301 348 c 0,24,25
 327 348 327 348 351.5 334 c 128,-1,26
 376 320 376 320 392 293.5 c 128,-1,27
 408 267 408 267 408 230 c 256,28,29
 408 193 408 193 392 166.5 c 128,-1,30
 376 140 376 140 351.5 126 c 128,-1,31
 327 112 327 112 301 112 c 0,32,33
 271 112 271 112 246 126.5 c 128,-1,34
 221 141 221 141 206 167.5 c 128,-1,35
 191 194 191 194 191 230 c 256,20,21
EndSplineSet
EndChar

StartChar: dcaron
Encoding: 271 271 190
Width: 617
GlyphClass: 2
Flags: W
LayerCount: 2
Fore
SplineSet
408 780 m 1,0,-1
 408 0 l 1,1,-1
 559 0 l 1,2,-1
 559 780 l 1,3,-1
 408 780 l 1,0,-1
32 230 m 0,4,5
 32 153 32 153 63.5 99.5 c 128,-1,6
 95 46 95 46 145 18 c 128,-1,7
 195 -10 195 -10 251 -10 c 0,8,9
 309 -10 309 -10 353.5 19 c 128,-1,10
 398 48 398 48 424 102 c 128,-1,11
 450 156 450 156 450 230 c 0,12,13
 450 305 450 305 424 358.5 c 128,-1,14
 398 412 398 412 353.5 441 c 128,-1,15
 309 470 309 470 251 470 c 0,16,17
 195 470 195 470 145 442 c 128,-1,18
 95 414 95 414 63.5 361 c 128,-1,19
 32 308 32 308 32 230 c 0,4,5
191 230 m 256,20,21
 191 266 191 266 206 292.5 c 128,-1,22
 221 319 221 319 246 333.5 c 128,-1,23
 271 348 271 348 301 348 c 0,24,25
 327 348 327 348 351.5 334 c 128,-1,26
 376 320 376 320 392 293.5 c 128,-1,27
 408 267 408 267 408 230 c 256,28,29
 408 193 408 193 392 166.5 c 128,-1,30
 376 140 376 140 351.5 126 c 128,-1,31
 327 112 327 112 301 112 c 0,32,33
 271 112 271 112 246 126.5 c 128,-1,34
 221 141 221 141 206 167.5 c 128,-1,35
 191 194 191 194 191 230 c 256,20,21
677 780 m 1,36,-1
 589 521 l 1,37,-1
 703 498 l 1,38,-1
 828 748 l 1,39,-1
 677 780 l 1,36,-1
EndSplineSet
EndChar

StartChar: e
Encoding: 101 101 191
Width: 573
GlyphClass: 2
Flags: W
LayerCount: 2
Fore
SplineSet
293 -10 m 0,0,1
 381 -10 381 -10 442.5 24 c 128,-1,2
 504 58 504 58 540 126 c 1,3,-1
 405 159 l 1,4,5
 388 129 388 129 359.5 114 c 128,-1,6
 331 99 331 99 291 99 c 0,7,8
 256 99 256 99 232 114.5 c 128,-1,9
 208 130 208 130 196 160 c 128,-1,10
 184 190 184 190 184 232 c 0,11,12
 185 278 185 278 196.5 308.5 c 128,-1,13
 208 339 208 339 231 354 c 128,-1,14
 254 369 254 369 288 369 c 0,15,16
 315 369 315 369 335 357 c 128,-1,17
 355 345 355 345 366 323 c 128,-1,18
 377 301 377 301 377 271 c 0,19,20
 377 264 377 264 373.5 253.5 c 128,-1,21
 370 243 370 243 365 236 c 1,22,-1
 401 282 l 1,23,-1
 117 282 l 1,24,-1
 117 198 l 1,25,-1
 537 198 l 1,26,27
 539 205 539 205 539 215.5 c 128,-1,28
 539 226 539 226 539 237 c 0,29,30
 539 311 539 311 510 363 c 128,-1,31
 481 415 481 415 426 442.5 c 128,-1,32
 371 470 371 470 291 470 c 256,33,34
 211 470 211 470 152.5 441 c 128,-1,35
 94 412 94 412 63 358 c 128,-1,36
 32 304 32 304 32 230 c 0,37,38
 32 157 32 157 64 103 c 128,-1,39
 96 49 96 49 154.5 19.5 c 128,-1,40
 213 -10 213 -10 293 -10 c 0,0,1
EndSplineSet
EndChar

StartChar: egrave
Encoding: 232 232 192
Width: 573
GlyphClass: 2
Flags: W
LayerCount: 2
Fore
SplineSet
117 198 m 1,0,-1
 537 198 l 1,1,2
 539 210 539 210 539 220.5 c 128,-1,3
 539 231 539 231 539 237 c 0,4,5
 539 310 539 310 510.5 362 c 128,-1,6
 482 414 482 414 426.5 442 c 128,-1,7
 371 470 371 470 291 470 c 0,8,9
 216 470 216 470 162.5 446 c 128,-1,10
 109 422 109 422 77.5 379 c 128,-1,11
 46 336 46 336 36 279 c 0,12,13
 34 267 34 267 33 255 c 128,-1,14
 32 243 32 243 32 230 c 0,15,16
 32 161 32 161 62.5 106.5 c 128,-1,17
 93 52 93 52 151.5 21 c 128,-1,18
 210 -10 210 -10 293 -10 c 0,19,20
 360 -10 360 -10 406.5 6.5 c 128,-1,21
 453 23 453 23 485 53.5 c 128,-1,22
 517 84 517 84 540 126 c 1,23,-1
 405 159 l 1,24,25
 394 140 394 140 378 126.5 c 128,-1,26
 362 113 362 113 340.5 106 c 128,-1,27
 319 99 319 99 291 99 c 0,28,29
 261 99 261 99 237 112 c 128,-1,30
 213 125 213 125 198.5 154 c 128,-1,31
 184 183 184 183 184 230 c 2,32,-1
 186 254 l 2,33,34
 186 291 186 291 199 316.5 c 128,-1,35
 212 342 212 342 234.5 355.5 c 128,-1,36
 257 369 257 369 288 369 c 0,37,38
 315 369 315 369 333.5 358.5 c 128,-1,39
 352 348 352 348 362.5 329 c 128,-1,40
 373 310 373 310 377 282 c 1,41,-1
 117 282 l 1,42,-1
 117 198 l 1,0,-1
126 684 m 1,43,-1
 306 534 l 1,44,-1
 391 577 l 1,45,-1
 241 737 l 1,46,-1
 126 684 l 1,43,-1
EndSplineSet
EndChar

StartChar: eacute
Encoding: 233 233 193
Width: 573
GlyphClass: 2
Flags: W
LayerCount: 2
Fore
SplineSet
117 198 m 1,0,-1
 537 198 l 1,1,2
 539 210 539 210 539 220.5 c 128,-1,3
 539 231 539 231 539 237 c 0,4,5
 539 310 539 310 510.5 362 c 128,-1,6
 482 414 482 414 426.5 442 c 128,-1,7
 371 470 371 470 291 470 c 0,8,9
 216 470 216 470 162.5 446 c 128,-1,10
 109 422 109 422 77.5 379 c 128,-1,11
 46 336 46 336 36 279 c 0,12,13
 34 267 34 267 33 255 c 128,-1,14
 32 243 32 243 32 230 c 0,15,16
 32 161 32 161 62.5 106.5 c 128,-1,17
 93 52 93 52 151.5 21 c 128,-1,18
 210 -10 210 -10 293 -10 c 0,19,20
 360 -10 360 -10 406.5 6.5 c 128,-1,21
 453 23 453 23 485 53.5 c 128,-1,22
 517 84 517 84 540 126 c 1,23,-1
 405 159 l 1,24,25
 394 140 394 140 378 126.5 c 128,-1,26
 362 113 362 113 340.5 106 c 128,-1,27
 319 99 319 99 291 99 c 0,28,29
 261 99 261 99 237 112 c 128,-1,30
 213 125 213 125 198.5 154 c 128,-1,31
 184 183 184 183 184 230 c 2,32,-1
 186 254 l 2,33,34
 186 291 186 291 199 316.5 c 128,-1,35
 212 342 212 342 234.5 355.5 c 128,-1,36
 257 369 257 369 288 369 c 0,37,38
 315 369 315 369 333.5 358.5 c 128,-1,39
 352 348 352 348 362.5 329 c 128,-1,40
 373 310 373 310 377 282 c 1,41,-1
 117 282 l 1,42,-1
 117 198 l 1,0,-1
463 684 m 1,43,-1
 348 737 l 1,44,-1
 198 577 l 1,45,-1
 283 534 l 1,46,-1
 463 684 l 1,43,-1
EndSplineSet
EndChar

StartChar: ecircumflex
Encoding: 234 234 194
Width: 573
GlyphClass: 2
Flags: W
LayerCount: 2
Fore
SplineSet
117 198 m 1,0,-1
 537 198 l 1,1,2
 539 210 539 210 539 220.5 c 128,-1,3
 539 231 539 231 539 237 c 0,4,5
 539 310 539 310 510.5 362 c 128,-1,6
 482 414 482 414 426.5 442 c 128,-1,7
 371 470 371 470 291 470 c 0,8,9
 216 470 216 470 162.5 446 c 128,-1,10
 109 422 109 422 77.5 379 c 128,-1,11
 46 336 46 336 36 279 c 0,12,13
 34 267 34 267 33 255 c 128,-1,14
 32 243 32 243 32 230 c 0,15,16
 32 161 32 161 62.5 106.5 c 128,-1,17
 93 52 93 52 151.5 21 c 128,-1,18
 210 -10 210 -10 293 -10 c 0,19,20
 360 -10 360 -10 406.5 6.5 c 128,-1,21
 453 23 453 23 485 53.5 c 128,-1,22
 517 84 517 84 540 126 c 1,23,-1
 405 159 l 1,24,25
 394 140 394 140 378 126.5 c 128,-1,26
 362 113 362 113 340.5 106 c 128,-1,27
 319 99 319 99 291 99 c 0,28,29
 261 99 261 99 237 112 c 128,-1,30
 213 125 213 125 198.5 154 c 128,-1,31
 184 183 184 183 184 230 c 2,32,-1
 186 254 l 2,33,34
 186 291 186 291 199 316.5 c 128,-1,35
 212 342 212 342 234.5 355.5 c 128,-1,36
 257 369 257 369 288 369 c 0,37,38
 315 369 315 369 333.5 358.5 c 128,-1,39
 352 348 352 348 362.5 329 c 128,-1,40
 373 310 373 310 377 282 c 1,41,-1
 117 282 l 1,42,-1
 117 198 l 1,0,-1
291 616 m 1,43,-1
 382 531 l 1,44,-1
 488 602 l 1,45,-1
 291 742 l 1,46,-1
 94 602 l 1,47,-1
 200 531 l 1,48,-1
 291 616 l 1,43,-1
EndSplineSet
EndChar

StartChar: edieresis
Encoding: 235 235 195
Width: 573
GlyphClass: 2
Flags: W
LayerCount: 2
Fore
SplineSet
117 198 m 1,0,-1
 537 198 l 1,1,2
 539 210 539 210 539 220.5 c 128,-1,3
 539 231 539 231 539 237 c 0,4,5
 539 310 539 310 510.5 362 c 128,-1,6
 482 414 482 414 426.5 442 c 128,-1,7
 371 470 371 470 291 470 c 0,8,9
 216 470 216 470 162.5 446 c 128,-1,10
 109 422 109 422 77.5 379 c 128,-1,11
 46 336 46 336 36 279 c 0,12,13
 34 267 34 267 33 255 c 128,-1,14
 32 243 32 243 32 230 c 0,15,16
 32 161 32 161 62.5 106.5 c 128,-1,17
 93 52 93 52 151.5 21 c 128,-1,18
 210 -10 210 -10 293 -10 c 0,19,20
 360 -10 360 -10 406.5 6.5 c 128,-1,21
 453 23 453 23 485 53.5 c 128,-1,22
 517 84 517 84 540 126 c 1,23,-1
 405 159 l 1,24,25
 394 140 394 140 378 126.5 c 128,-1,26
 362 113 362 113 340.5 106 c 128,-1,27
 319 99 319 99 291 99 c 0,28,29
 261 99 261 99 237 112 c 128,-1,30
 213 125 213 125 198.5 154 c 128,-1,31
 184 183 184 183 184 230 c 2,32,-1
 186 254 l 2,33,34
 186 291 186 291 199 316.5 c 128,-1,35
 212 342 212 342 234.5 355.5 c 128,-1,36
 257 369 257 369 288 369 c 0,37,38
 315 369 315 369 333.5 358.5 c 128,-1,39
 352 348 352 348 362.5 329 c 128,-1,40
 373 310 373 310 377 282 c 1,41,-1
 117 282 l 1,42,-1
 117 198 l 1,0,-1
325 612 m 0,43,44
 325 577 325 577 350.5 554 c 128,-1,45
 376 531 376 531 413 531 c 0,46,47
 449 531 449 531 475 554 c 128,-1,48
 501 577 501 577 501 612 c 0,49,50
 501 648 501 648 475 671 c 128,-1,51
 449 694 449 694 413 694 c 0,52,53
 376 694 376 694 350.5 671 c 128,-1,54
 325 648 325 648 325 612 c 0,43,44
81 612 m 0,55,56
 81 577 81 577 107 554 c 128,-1,57
 133 531 133 531 169 531 c 0,58,59
 206 531 206 531 231.5 554 c 128,-1,60
 257 577 257 577 257 612 c 0,61,62
 257 648 257 648 231.5 671 c 128,-1,63
 206 694 206 694 169 694 c 0,64,65
 133 694 133 694 107 671 c 128,-1,66
 81 648 81 648 81 612 c 0,55,56
EndSplineSet
EndChar

StartChar: emacron
Encoding: 275 275 196
Width: 573
GlyphClass: 2
Flags: W
LayerCount: 2
Fore
SplineSet
117 198 m 1,0,-1
 537 198 l 1,1,2
 539 210 539 210 539 220.5 c 128,-1,3
 539 231 539 231 539 237 c 0,4,5
 539 310 539 310 510.5 362 c 128,-1,6
 482 414 482 414 426.5 442 c 128,-1,7
 371 470 371 470 291 470 c 0,8,9
 216 470 216 470 162.5 446 c 128,-1,10
 109 422 109 422 77.5 379 c 128,-1,11
 46 336 46 336 36 279 c 0,12,13
 34 267 34 267 33 255 c 128,-1,14
 32 243 32 243 32 230 c 0,15,16
 32 161 32 161 62.5 106.5 c 128,-1,17
 93 52 93 52 151.5 21 c 128,-1,18
 210 -10 210 -10 293 -10 c 0,19,20
 360 -10 360 -10 406.5 6.5 c 128,-1,21
 453 23 453 23 485 53.5 c 128,-1,22
 517 84 517 84 540 126 c 1,23,-1
 405 159 l 1,24,25
 394 140 394 140 378 126.5 c 128,-1,26
 362 113 362 113 340.5 106 c 128,-1,27
 319 99 319 99 291 99 c 0,28,29
 261 99 261 99 237 112 c 128,-1,30
 213 125 213 125 198.5 154 c 128,-1,31
 184 183 184 183 184 230 c 2,32,-1
 186 254 l 2,33,34
 186 291 186 291 199 316.5 c 128,-1,35
 212 342 212 342 234.5 355.5 c 128,-1,36
 257 369 257 369 288 369 c 0,37,38
 315 369 315 369 333.5 358.5 c 128,-1,39
 352 348 352 348 362.5 329 c 128,-1,40
 373 310 373 310 377 282 c 1,41,-1
 117 282 l 1,42,-1
 117 198 l 1,0,-1
105 531 m 1,43,-1
 477 531 l 1,44,-1
 477 662 l 1,45,-1
 105 662 l 1,46,-1
 105 531 l 1,43,-1
EndSplineSet
EndChar

StartChar: ebreve
Encoding: 277 277 197
Width: 573
GlyphClass: 2
Flags: W
LayerCount: 2
Fore
SplineSet
117 198 m 1,0,-1
 537 198 l 1,1,2
 539 210 539 210 539 220.5 c 128,-1,3
 539 231 539 231 539 237 c 0,4,5
 539 310 539 310 510.5 362 c 128,-1,6
 482 414 482 414 426.5 442 c 128,-1,7
 371 470 371 470 291 470 c 0,8,9
 216 470 216 470 162.5 446 c 128,-1,10
 109 422 109 422 77.5 379 c 128,-1,11
 46 336 46 336 36 279 c 0,12,13
 34 267 34 267 33 255 c 128,-1,14
 32 243 32 243 32 230 c 0,15,16
 32 161 32 161 62.5 106.5 c 128,-1,17
 93 52 93 52 151.5 21 c 128,-1,18
 210 -10 210 -10 293 -10 c 0,19,20
 360 -10 360 -10 406.5 6.5 c 128,-1,21
 453 23 453 23 485 53.5 c 128,-1,22
 517 84 517 84 540 126 c 1,23,-1
 405 159 l 1,24,25
 394 140 394 140 378 126.5 c 128,-1,26
 362 113 362 113 340.5 106 c 128,-1,27
 319 99 319 99 291 99 c 0,28,29
 261 99 261 99 237 112 c 128,-1,30
 213 125 213 125 198.5 154 c 128,-1,31
 184 183 184 183 184 230 c 2,32,-1
 186 254 l 2,33,34
 186 291 186 291 199 316.5 c 128,-1,35
 212 342 212 342 234.5 355.5 c 128,-1,36
 257 369 257 369 288 369 c 0,37,38
 315 369 315 369 333.5 358.5 c 128,-1,39
 352 348 352 348 362.5 329 c 128,-1,40
 373 310 373 310 377 282 c 1,41,-1
 117 282 l 1,42,-1
 117 198 l 1,0,-1
127 677 m 1,43,44
 127 637 127 637 146 603.5 c 128,-1,45
 165 570 165 570 202 550.5 c 128,-1,46
 239 531 239 531 291 531 c 0,47,48
 344 531 344 531 380.5 550.5 c 128,-1,49
 417 570 417 570 436 603.5 c 128,-1,50
 455 637 455 637 455 677 c 1,51,-1
 356 677 l 1,52,53
 356 659 356 659 348 646 c 128,-1,54
 340 633 340 633 325 625 c 128,-1,55
 310 617 310 617 291 617 c 0,56,57
 271 617 271 617 256.5 625 c 128,-1,58
 242 633 242 633 234 646 c 128,-1,59
 226 659 226 659 226 677 c 1,60,-1
 127 677 l 1,43,44
EndSplineSet
EndChar

StartChar: edotaccent
Encoding: 279 279 198
Width: 573
GlyphClass: 2
Flags: W
LayerCount: 2
Fore
SplineSet
117 198 m 1,0,-1
 537 198 l 1,1,2
 539 210 539 210 539 220.5 c 128,-1,3
 539 231 539 231 539 237 c 0,4,5
 539 310 539 310 510.5 362 c 128,-1,6
 482 414 482 414 426.5 442 c 128,-1,7
 371 470 371 470 291 470 c 0,8,9
 216 470 216 470 162.5 446 c 128,-1,10
 109 422 109 422 77.5 379 c 128,-1,11
 46 336 46 336 36 279 c 0,12,13
 34 267 34 267 33 255 c 128,-1,14
 32 243 32 243 32 230 c 0,15,16
 32 161 32 161 62.5 106.5 c 128,-1,17
 93 52 93 52 151.5 21 c 128,-1,18
 210 -10 210 -10 293 -10 c 0,19,20
 360 -10 360 -10 406.5 6.5 c 128,-1,21
 453 23 453 23 485 53.5 c 128,-1,22
 517 84 517 84 540 126 c 1,23,-1
 405 159 l 1,24,25
 394 140 394 140 378 126.5 c 128,-1,26
 362 113 362 113 340.5 106 c 128,-1,27
 319 99 319 99 291 99 c 0,28,29
 261 99 261 99 237 112 c 128,-1,30
 213 125 213 125 198.5 154 c 128,-1,31
 184 183 184 183 184 230 c 2,32,-1
 186 254 l 2,33,34
 186 291 186 291 199 316.5 c 128,-1,35
 212 342 212 342 234.5 355.5 c 128,-1,36
 257 369 257 369 288 369 c 0,37,38
 315 369 315 369 333.5 358.5 c 128,-1,39
 352 348 352 348 362.5 329 c 128,-1,40
 373 310 373 310 377 282 c 1,41,-1
 117 282 l 1,42,-1
 117 198 l 1,0,-1
203 612 m 0,43,44
 203 577 203 577 229 554 c 128,-1,45
 255 531 255 531 291 531 c 0,46,47
 328 531 328 531 353.5 554 c 128,-1,48
 379 577 379 577 379 612 c 0,49,50
 379 648 379 648 353.5 671 c 128,-1,51
 328 694 328 694 291 694 c 0,52,53
 255 694 255 694 229 671 c 128,-1,54
 203 648 203 648 203 612 c 0,43,44
EndSplineSet
EndChar

StartChar: eogonek
Encoding: 281 281 199
Width: 573
GlyphClass: 2
Flags: W
LayerCount: 2
Fore
SplineSet
117 198 m 1,0,-1
 537 198 l 1,1,2
 539 210 539 210 539 220.5 c 128,-1,3
 539 231 539 231 539 237 c 0,4,5
 539 310 539 310 510.5 362 c 128,-1,6
 482 414 482 414 426.5 442 c 128,-1,7
 371 470 371 470 291 470 c 0,8,9
 216 470 216 470 162.5 446 c 128,-1,10
 109 422 109 422 77.5 379 c 128,-1,11
 46 336 46 336 36 279 c 0,12,13
 34 267 34 267 33 255 c 128,-1,14
 32 243 32 243 32 230 c 0,15,16
 32 161 32 161 62.5 106.5 c 128,-1,17
 93 52 93 52 151.5 21 c 128,-1,18
 210 -10 210 -10 293 -10 c 0,19,20
 343 -10 343 -10 377.5 1 c 128,-1,21
 412 12 412 12 439 31.5 c 128,-1,22
 466 51 466 51 489.5 75.5 c 128,-1,23
 513 100 513 100 540 126 c 1,24,-1
 405 159 l 1,25,26
 394 140 394 140 378 126.5 c 128,-1,27
 362 113 362 113 340.5 106 c 128,-1,28
 319 99 319 99 291 99 c 0,29,30
 261 99 261 99 237 112 c 128,-1,31
 213 125 213 125 198.5 154 c 128,-1,32
 184 183 184 183 184 230 c 2,33,-1
 186 254 l 2,34,35
 186 291 186 291 199 316.5 c 128,-1,36
 212 342 212 342 234.5 355.5 c 128,-1,37
 257 369 257 369 288 369 c 0,38,39
 315 369 315 369 333.5 358.5 c 128,-1,40
 352 348 352 348 362.5 329 c 128,-1,41
 373 310 373 310 377 282 c 1,42,-1
 117 282 l 1,43,-1
 117 198 l 1,0,-1
518 -34 m 1,44,45
 508 -44 508 -44 495.5 -49 c 128,-1,46
 483 -54 483 -54 468 -54 c 0,47,48
 450 -54 450 -54 441 -44.5 c 128,-1,49
 432 -35 432 -35 432 -20 c 0,50,51
 432 -4 432 -4 442 12 c 128,-1,52
 452 28 452 28 476 54.5 c 128,-1,53
 500 81 500 81 540 126 c 1,54,-1
 472 102 l 1,55,56
 447 86 447 86 422.5 69.5 c 128,-1,57
 398 53 398 53 378 35 c 128,-1,58
 358 17 358 17 346 -4 c 128,-1,59
 334 -25 334 -25 334 -49 c 0,60,61
 334 -81 334 -81 350.5 -102 c 128,-1,62
 367 -123 367 -123 393 -133 c 128,-1,63
 419 -143 419 -143 447 -143 c 0,64,65
 488 -143 488 -143 514 -130.5 c 128,-1,66
 540 -118 540 -118 551 -103 c 1,67,-1
 518 -34 l 1,44,45
EndSplineSet
EndChar

StartChar: ecaron
Encoding: 283 283 200
Width: 573
GlyphClass: 2
Flags: W
LayerCount: 2
Fore
SplineSet
117 198 m 1,0,-1
 537 198 l 1,1,2
 539 210 539 210 539 220.5 c 128,-1,3
 539 231 539 231 539 237 c 0,4,5
 539 310 539 310 510.5 362 c 128,-1,6
 482 414 482 414 426.5 442 c 128,-1,7
 371 470 371 470 291 470 c 0,8,9
 216 470 216 470 162.5 446 c 128,-1,10
 109 422 109 422 77.5 379 c 128,-1,11
 46 336 46 336 36 279 c 0,12,13
 34 267 34 267 33 255 c 128,-1,14
 32 243 32 243 32 230 c 0,15,16
 32 161 32 161 62.5 106.5 c 128,-1,17
 93 52 93 52 151.5 21 c 128,-1,18
 210 -10 210 -10 293 -10 c 0,19,20
 360 -10 360 -10 406.5 6.5 c 128,-1,21
 453 23 453 23 485 53.5 c 128,-1,22
 517 84 517 84 540 126 c 1,23,-1
 405 159 l 1,24,25
 394 140 394 140 378 126.5 c 128,-1,26
 362 113 362 113 340.5 106 c 128,-1,27
 319 99 319 99 291 99 c 0,28,29
 261 99 261 99 237 112 c 128,-1,30
 213 125 213 125 198.5 154 c 128,-1,31
 184 183 184 183 184 230 c 2,32,-1
 186 254 l 2,33,34
 186 291 186 291 199 316.5 c 128,-1,35
 212 342 212 342 234.5 355.5 c 128,-1,36
 257 369 257 369 288 369 c 0,37,38
 315 369 315 369 333.5 358.5 c 128,-1,39
 352 348 352 348 362.5 329 c 128,-1,40
 373 310 373 310 377 282 c 1,41,-1
 117 282 l 1,42,-1
 117 198 l 1,0,-1
291 656 m 1,43,-1
 200 742 l 1,44,-1
 94 671 l 1,45,-1
 291 531 l 1,46,-1
 488 671 l 1,47,-1
 382 742 l 1,48,-1
 291 656 l 1,43,-1
EndSplineSet
EndChar

StartChar: f
Encoding: 102 102 201
Width: 344
GlyphClass: 2
Flags: W
LayerCount: 2
Fore
SplineSet
18 460 m 1,0,-1
 18 335 l 1,1,-1
 332 335 l 1,2,-1
 332 460 l 1,3,-1
 18 460 l 1,0,-1
315 635 m 1,4,-1
 376 746 l 1,5,6
 366 756 366 756 349 767.5 c 128,-1,7
 332 779 332 779 307.5 787.5 c 128,-1,8
 283 796 283 796 249 796 c 0,9,10
 192 796 192 796 153.5 776 c 128,-1,11
 115 756 115 756 95.5 719 c 128,-1,12
 76 682 76 682 76 630 c 2,13,-1
 76 0 l 1,14,-1
 221 0 l 1,15,-1
 221 592 l 2,16,17
 221 616 221 616 227 631 c 128,-1,18
 233 646 233 646 243.5 653 c 128,-1,19
 254 660 254 660 269 660 c 0,20,21
 282 660 282 660 293.5 654 c 128,-1,22
 305 648 305 648 315 635 c 1,4,-1
EndSplineSet
EndChar

StartChar: g
Encoding: 103 103 202
Width: 610
GlyphClass: 2
Flags: W
LayerCount: 2
Fore
SplineSet
44 -52 m 1,0,1
 59.3278688525 -239 59.3278688525 -239 299 -239 c 0,2,3
 370 -239 370 -239 427 -213.5 c 128,-1,4
 484 -188 484 -188 518.5 -133 c 128,-1,5
 553 -78 553 -78 553 10 c 2,6,-1
 553 460 l 1,7,-1
 408 460 l 1,8,-1
 408 10 l 2,9,10
 408 -32 408 -32 392.5 -60.5 c 128,-1,11
 377 -89 377 -89 351 -103.5 c 128,-1,12
 325 -118 325 -118 293 -118 c 0,13,14
 197.071428571 -118 197.071428571 -118 190 -52 c 1,15,-1
 44 -52 l 1,0,1
32 236 m 0,16,17
 32 159 32 159 63.5 107 c 128,-1,18
 95 55 95 55 145 28.5 c 128,-1,19
 195 2 195 2 251 2 c 0,20,21
 309 2 309 2 353.5 29.5 c 128,-1,22
 398 57 398 57 424 109.5 c 128,-1,23
 450 162 450 162 450 236 c 0,24,25
 450 311 450 311 424 363 c 128,-1,26
 398 415 398 415 353.5 442.5 c 128,-1,27
 309 470 309 470 251 470 c 0,28,29
 195 470 195 470 145 444 c 128,-1,30
 95 418 95 418 63.5 366 c 128,-1,31
 32 314 32 314 32 236 c 0,16,17
191 236 m 0,32,33
 191 272 191 272 206 297 c 128,-1,34
 221 322 221 322 246 335 c 128,-1,35
 271 348 271 348 301 348 c 0,36,37
 320 348 320 348 339 341 c 128,-1,38
 358 334 358 334 373.5 320 c 128,-1,39
 389 306 389 306 398.5 285 c 128,-1,40
 408 264 408 264 408 236 c 0,41,42
 408 199 408 199 392 174 c 128,-1,43
 376 149 376 149 351.5 136.5 c 128,-1,44
 327 124 327 124 301 124 c 0,45,46
 271 124 271 124 246 137 c 128,-1,47
 221 150 221 150 206 175.5 c 128,-1,48
 191 201 191 201 191 236 c 0,32,33
EndSplineSet
EndChar

StartChar: gcircumflex
Encoding: 285 285 203
Width: 610
GlyphClass: 2
Flags: W
LayerCount: 2
Fore
SplineSet
42 -33 m 1,0,1
 47 -94 47 -94 75 -140.5 c 128,-1,2
 103 -187 103 -187 158.5 -213 c 128,-1,3
 214 -239 214 -239 299 -239 c 0,4,5
 370 -239 370 -239 427 -213.5 c 128,-1,6
 484 -188 484 -188 518.5 -133 c 128,-1,7
 553 -78 553 -78 553 10 c 2,8,-1
 553 460 l 1,9,-1
 408 460 l 1,10,-1
 408 10 l 2,11,12
 408 -32 408 -32 392.5 -60.5 c 128,-1,13
 377 -89 377 -89 351 -103.5 c 128,-1,14
 325 -118 325 -118 293 -118 c 0,15,16
 264 -118 264 -118 241 -108.5 c 128,-1,17
 218 -99 218 -99 204.5 -80 c 128,-1,18
 191 -61 191 -61 188 -33 c 1,19,-1
 42 -33 l 1,0,1
32 236 m 0,20,21
 32 159 32 159 63.5 107 c 128,-1,22
 95 55 95 55 145 28.5 c 128,-1,23
 195 2 195 2 251 2 c 0,24,25
 309 2 309 2 353.5 29.5 c 128,-1,26
 398 57 398 57 424 109.5 c 128,-1,27
 450 162 450 162 450 236 c 0,28,29
 450 311 450 311 424 363 c 128,-1,30
 398 415 398 415 353.5 442.5 c 128,-1,31
 309 470 309 470 251 470 c 0,32,33
 195 470 195 470 145 444 c 128,-1,34
 95 418 95 418 63.5 366 c 128,-1,35
 32 314 32 314 32 236 c 0,20,21
191 236 m 0,36,37
 191 272 191 272 206 297 c 128,-1,38
 221 322 221 322 246 335 c 128,-1,39
 271 348 271 348 301 348 c 0,40,41
 320 348 320 348 339 341 c 128,-1,42
 358 334 358 334 373.5 320 c 128,-1,43
 389 306 389 306 398.5 285 c 128,-1,44
 408 264 408 264 408 236 c 0,45,46
 408 199 408 199 392 174 c 128,-1,47
 376 149 376 149 351.5 136.5 c 128,-1,48
 327 124 327 124 301 124 c 0,49,50
 271 124 271 124 246 137 c 128,-1,51
 221 150 221 150 206 175.5 c 128,-1,52
 191 201 191 201 191 236 c 0,36,37
319 616 m 1,53,-1
 410 531 l 1,54,-1
 516 602 l 1,55,-1
 319 742 l 1,56,-1
 122 602 l 1,57,-1
 228 531 l 1,58,-1
 319 616 l 1,53,-1
EndSplineSet
EndChar

StartChar: gbreve
Encoding: 287 287 204
Width: 610
GlyphClass: 2
Flags: W
LayerCount: 2
Fore
SplineSet
42 -33 m 1,0,1
 47 -94 47 -94 75 -140.5 c 128,-1,2
 103 -187 103 -187 158.5 -213 c 128,-1,3
 214 -239 214 -239 299 -239 c 0,4,5
 370 -239 370 -239 427 -213.5 c 128,-1,6
 484 -188 484 -188 518.5 -133 c 128,-1,7
 553 -78 553 -78 553 10 c 2,8,-1
 553 460 l 1,9,-1
 408 460 l 1,10,-1
 408 10 l 2,11,12
 408 -32 408 -32 392.5 -60.5 c 128,-1,13
 377 -89 377 -89 351 -103.5 c 128,-1,14
 325 -118 325 -118 293 -118 c 0,15,16
 264 -118 264 -118 241 -108.5 c 128,-1,17
 218 -99 218 -99 204.5 -80 c 128,-1,18
 191 -61 191 -61 188 -33 c 1,19,-1
 42 -33 l 1,0,1
32 236 m 0,20,21
 32 159 32 159 63.5 107 c 128,-1,22
 95 55 95 55 145 28.5 c 128,-1,23
 195 2 195 2 251 2 c 0,24,25
 309 2 309 2 353.5 29.5 c 128,-1,26
 398 57 398 57 424 109.5 c 128,-1,27
 450 162 450 162 450 236 c 0,28,29
 450 311 450 311 424 363 c 128,-1,30
 398 415 398 415 353.5 442.5 c 128,-1,31
 309 470 309 470 251 470 c 0,32,33
 195 470 195 470 145 444 c 128,-1,34
 95 418 95 418 63.5 366 c 128,-1,35
 32 314 32 314 32 236 c 0,20,21
191 236 m 0,36,37
 191 272 191 272 206 297 c 128,-1,38
 221 322 221 322 246 335 c 128,-1,39
 271 348 271 348 301 348 c 0,40,41
 320 348 320 348 339 341 c 128,-1,42
 358 334 358 334 373.5 320 c 128,-1,43
 389 306 389 306 398.5 285 c 128,-1,44
 408 264 408 264 408 236 c 0,45,46
 408 199 408 199 392 174 c 128,-1,47
 376 149 376 149 351.5 136.5 c 128,-1,48
 327 124 327 124 301 124 c 0,49,50
 271 124 271 124 246 137 c 128,-1,51
 221 150 221 150 206 175.5 c 128,-1,52
 191 201 191 201 191 236 c 0,36,37
155 677 m 1,53,54
 155 637 155 637 174 603.5 c 128,-1,55
 193 570 193 570 230 550.5 c 128,-1,56
 267 531 267 531 319 531 c 0,57,58
 372 531 372 531 408.5 550.5 c 128,-1,59
 445 570 445 570 464 603.5 c 128,-1,60
 483 637 483 637 483 677 c 1,61,-1
 384 677 l 1,62,63
 384 659 384 659 376 646 c 128,-1,64
 368 633 368 633 353 625 c 128,-1,65
 338 617 338 617 319 617 c 0,66,67
 299 617 299 617 284.5 625 c 128,-1,68
 270 633 270 633 262 646 c 128,-1,69
 254 659 254 659 254 677 c 1,70,-1
 155 677 l 1,53,54
EndSplineSet
EndChar

StartChar: gdotaccent
Encoding: 289 289 205
Width: 610
GlyphClass: 2
Flags: W
LayerCount: 2
Fore
SplineSet
42 -33 m 1,0,1
 47 -94 47 -94 75 -140.5 c 128,-1,2
 103 -187 103 -187 158.5 -213 c 128,-1,3
 214 -239 214 -239 299 -239 c 0,4,5
 370 -239 370 -239 427 -213.5 c 128,-1,6
 484 -188 484 -188 518.5 -133 c 128,-1,7
 553 -78 553 -78 553 10 c 2,8,-1
 553 460 l 1,9,-1
 408 460 l 1,10,-1
 408 10 l 2,11,12
 408 -32 408 -32 392.5 -60.5 c 128,-1,13
 377 -89 377 -89 351 -103.5 c 128,-1,14
 325 -118 325 -118 293 -118 c 0,15,16
 264 -118 264 -118 241 -108.5 c 128,-1,17
 218 -99 218 -99 204.5 -80 c 128,-1,18
 191 -61 191 -61 188 -33 c 1,19,-1
 42 -33 l 1,0,1
32 236 m 0,20,21
 32 159 32 159 63.5 107 c 128,-1,22
 95 55 95 55 145 28.5 c 128,-1,23
 195 2 195 2 251 2 c 0,24,25
 309 2 309 2 353.5 29.5 c 128,-1,26
 398 57 398 57 424 109.5 c 128,-1,27
 450 162 450 162 450 236 c 0,28,29
 450 311 450 311 424 363 c 128,-1,30
 398 415 398 415 353.5 442.5 c 128,-1,31
 309 470 309 470 251 470 c 0,32,33
 195 470 195 470 145 444 c 128,-1,34
 95 418 95 418 63.5 366 c 128,-1,35
 32 314 32 314 32 236 c 0,20,21
191 236 m 0,36,37
 191 272 191 272 206 297 c 128,-1,38
 221 322 221 322 246 335 c 128,-1,39
 271 348 271 348 301 348 c 0,40,41
 320 348 320 348 339 341 c 128,-1,42
 358 334 358 334 373.5 320 c 128,-1,43
 389 306 389 306 398.5 285 c 128,-1,44
 408 264 408 264 408 236 c 0,45,46
 408 199 408 199 392 174 c 128,-1,47
 376 149 376 149 351.5 136.5 c 128,-1,48
 327 124 327 124 301 124 c 0,49,50
 271 124 271 124 246 137 c 128,-1,51
 221 150 221 150 206 175.5 c 128,-1,52
 191 201 191 201 191 236 c 0,36,37
220 627 m 0,53,54
 220 592 220 592 246 569 c 128,-1,55
 272 546 272 546 308 546 c 0,56,57
 345 546 345 546 370.5 569 c 128,-1,58
 396 592 396 592 396 627 c 0,59,60
 396 664 396 664 370.5 686.5 c 128,-1,61
 345 709 345 709 308 709 c 0,62,63
 272 709 272 709 246 686.5 c 128,-1,64
 220 664 220 664 220 627 c 0,53,54
EndSplineSet
EndChar

StartChar: uni0123
Encoding: 291 291 206
Width: 570
GlyphClass: 2
Flags: W
LayerCount: 2
Fore
SplineSet
42 -33 m 1,0,1
 47 -94 47 -94 75 -140.5 c 128,-1,2
 103 -187 103 -187 158.5 -213 c 128,-1,3
 214 -239 214 -239 299 -239 c 0,4,5
 370 -239 370 -239 427 -213.5 c 128,-1,6
 484 -188 484 -188 518.5 -133 c 128,-1,7
 553 -78 553 -78 553 10 c 2,8,-1
 553 460 l 1,9,-1
 408 460 l 1,10,-1
 408 10 l 2,11,12
 408 -32 408 -32 392.5 -60.5 c 128,-1,13
 377 -89 377 -89 351 -103.5 c 128,-1,14
 325 -118 325 -118 293 -118 c 0,15,16
 264 -118 264 -118 241 -108.5 c 128,-1,17
 218 -99 218 -99 204.5 -80 c 128,-1,18
 191 -61 191 -61 188 -33 c 1,19,-1
 42 -33 l 1,0,1
32 236 m 0,20,21
 32 159 32 159 63.5 107 c 128,-1,22
 95 55 95 55 145 28.5 c 128,-1,23
 195 2 195 2 251 2 c 0,24,25
 309 2 309 2 353.5 29.5 c 128,-1,26
 398 57 398 57 424 109.5 c 128,-1,27
 450 162 450 162 450 236 c 0,28,29
 450 311 450 311 424 363 c 128,-1,30
 398 415 398 415 353.5 442.5 c 128,-1,31
 309 470 309 470 251 470 c 0,32,33
 195 470 195 470 145 444 c 128,-1,34
 95 418 95 418 63.5 366 c 128,-1,35
 32 314 32 314 32 236 c 0,20,21
191 236 m 0,36,37
 191 272 191 272 206 297 c 128,-1,38
 221 322 221 322 246 335 c 128,-1,39
 271 348 271 348 301 348 c 0,40,41
 320 348 320 348 339 341 c 128,-1,42
 358 334 358 334 373.5 320 c 128,-1,43
 389 306 389 306 398.5 285 c 128,-1,44
 408 264 408 264 408 236 c 0,45,46
 408 199 408 199 392 174 c 128,-1,47
 376 149 376 149 351.5 136.5 c 128,-1,48
 327 124 327 124 301 124 c 0,49,50
 271 124 271 124 246 137 c 128,-1,51
 221 150 221 150 206 175.5 c 128,-1,52
 191 201 191 201 191 236 c 0,36,37
310 542 m 1,53,-1
 436 784 l 1,54,-1
 328 825 l 1,55,-1
 165 597 l 1,56,-1
 310 542 l 1,53,-1
EndSplineSet
EndChar

StartChar: h
Encoding: 104 104 207
Width: 568
GlyphClass: 2
Flags: W
LayerCount: 2
Fore
SplineSet
211 780 m 1,0,-1
 59 780 l 1,1,-1
 59 0 l 1,2,-1
 211 0 l 1,3,-1
 211 780 l 1,0,-1
358 280 m 2,4,-1
 358 0 l 1,5,-1
 509 0 l 1,6,-1
 509 302 l 2,7,8
 509 359 509 359 493 398 c 128,-1,9
 477 437 477 437 442.5 457 c 128,-1,10
 408 477 408 477 351 477 c 256,11,12
 294 477 294 477 257.5 450.5 c 128,-1,13
 221 424 221 424 203 379.5 c 128,-1,14
 185 335 185 335 185 280 c 1,15,-1
 211 280 l 1,16,17
 211 307 211 307 221 325.5 c 128,-1,18
 231 344 231 344 249 354.5 c 128,-1,19
 267 365 267 365 291 365 c 0,20,21
 328 365 328 365 343 343 c 128,-1,22
 358 321 358 321 358 280 c 2,4,-1
EndSplineSet
EndChar

StartChar: hcircumflex
Encoding: 293 293 208
Width: 568
GlyphClass: 2
Flags: W
LayerCount: 2
Fore
SplineSet
211 780 m 1,0,-1
 59 780 l 1,1,-1
 59 0 l 1,2,-1
 211 0 l 1,3,-1
 211 780 l 1,0,-1
358 280 m 2,4,-1
 358 0 l 1,5,-1
 509 0 l 1,6,-1
 509 302 l 2,7,8
 509 359 509 359 493 398 c 128,-1,9
 477 437 477 437 442.5 457 c 128,-1,10
 408 477 408 477 351 477 c 256,11,12
 294 477 294 477 256.5 450.5 c 128,-1,13
 219 424 219 424 200 379.5 c 128,-1,14
 181 335 181 335 181 280 c 1,15,-1
 211 280 l 1,16,17
 211 307 211 307 221 325.5 c 128,-1,18
 231 344 231 344 249 354.5 c 128,-1,19
 267 365 267 365 291 365 c 0,20,21
 328 365 328 365 343 343 c 128,-1,22
 358 321 358 321 358 280 c 2,4,-1
138 926 m 1,23,-1
 230 840 l 1,24,-1
 335 911 l 1,25,-1
 138 1051 l 1,26,-1
 -59 911 l 1,27,-1
 47 840 l 1,28,-1
 138 926 l 1,23,-1
EndSplineSet
EndChar

StartChar: i
Encoding: 105 105 209
Width: 276
GlyphClass: 2
Flags: W
LayerCount: 2
Fore
SplineSet
50 633 m 256,0,1
 50 597 50 597 76 574 c 128,-1,2
 102 551 102 551 138 551 c 0,3,4
 175 551 175 551 200.5 574 c 128,-1,5
 226 597 226 597 226 633 c 256,6,7
 226 669 226 669 200.5 691.5 c 128,-1,8
 175 714 175 714 138 714 c 0,9,10
 102 714 102 714 76 691.5 c 128,-1,11
 50 669 50 669 50 633 c 256,0,1
65 460 m 1,12,-1
 65 0 l 1,13,-1
 211 0 l 1,14,-1
 211 460 l 1,15,-1
 65 460 l 1,12,-1
EndSplineSet
EndChar

StartChar: igrave
Encoding: 236 236 210
Width: 276
GlyphClass: 2
Flags: W
LayerCount: 2
Fore
SplineSet
65 460 m 1,0,-1
 65 0 l 1,1,-1
 211 0 l 1,2,-1
 211 460 l 1,3,-1
 65 460 l 1,0,-1
-42 688 m 1,4,-1
 138 538 l 1,5,-1
 223 581 l 1,6,-1
 73 741 l 1,7,-1
 -42 688 l 1,4,-1
EndSplineSet
EndChar

StartChar: iacute
Encoding: 237 237 211
Width: 276
GlyphClass: 2
Flags: W
LayerCount: 2
Fore
SplineSet
65 460 m 1,0,-1
 65 0 l 1,1,-1
 211 0 l 1,2,-1
 211 460 l 1,3,-1
 65 460 l 1,0,-1
310 688 m 1,4,-1
 194 741 l 1,5,-1
 44 581 l 1,6,-1
 130 538 l 1,7,-1
 310 688 l 1,4,-1
EndSplineSet
EndChar

StartChar: icircumflex
Encoding: 238 238 212
Width: 276
GlyphClass: 2
Flags: W
LayerCount: 2
Fore
SplineSet
65 460 m 1,0,-1
 65 0 l 1,1,-1
 211 0 l 1,2,-1
 211 460 l 1,3,-1
 65 460 l 1,0,-1
137 620 m 1,4,-1
 229 534 l 1,5,-1
 335 605 l 1,6,-1
 137 745 l 1,7,-1
 -60 605 l 1,8,-1
 46 534 l 1,9,-1
 137 620 l 1,4,-1
EndSplineSet
EndChar

StartChar: idieresis
Encoding: 239 239 213
Width: 276
GlyphClass: 2
Flags: W
LayerCount: 2
Fore
SplineSet
65 460 m 1,0,-1
 65 0 l 1,1,-1
 211 0 l 1,2,-1
 211 460 l 1,3,-1
 65 460 l 1,0,-1
172 624 m 256,4,5
 172 588 172 588 198 565 c 128,-1,6
 224 542 224 542 260 542 c 256,7,8
 296 542 296 542 322 565 c 128,-1,9
 348 588 348 588 348 624 c 256,10,11
 348 660 348 660 322 682.5 c 128,-1,12
 296 705 296 705 260 705 c 256,13,14
 224 705 224 705 198 682.5 c 128,-1,15
 172 660 172 660 172 624 c 256,4,5
-72 624 m 256,16,17
 -72 588 -72 588 -46 565 c 128,-1,18
 -20 542 -20 542 16 542 c 0,19,20
 53 542 53 542 78.5 565 c 128,-1,21
 104 588 104 588 104 624 c 256,22,23
 104 660 104 660 78.5 682.5 c 128,-1,24
 53 705 53 705 16 705 c 0,25,26
 -20 705 -20 705 -46 682.5 c 128,-1,27
 -72 660 -72 660 -72 624 c 256,16,17
EndSplineSet
EndChar

StartChar: itilde
Encoding: 297 297 214
Width: 276
GlyphClass: 2
Flags: W
LayerCount: 2
Fore
SplineSet
65 460 m 1,0,-1
 65 0 l 1,1,-1
 211 0 l 1,2,-1
 211 460 l 1,3,-1
 65 460 l 1,0,-1
-58 596 m 1,4,-1
 13 534 l 1,5,6
 13 542 13 542 17 554 c 128,-1,7
 21 566 21 566 31.5 575.5 c 128,-1,8
 42 585 42 585 61 585 c 0,9,10
 85 585 85 585 106.5 572 c 128,-1,11
 128 559 128 559 150.5 545.5 c 128,-1,12
 173 532 173 532 200 532 c 0,13,14
 231 532 231 532 258.5 545.5 c 128,-1,15
 286 559 286 559 306 579.5 c 128,-1,16
 326 600 326 600 334 618 c 1,17,-1
 263 692 l 1,18,19
 248 668 248 668 232 653.5 c 128,-1,20
 216 639 216 639 197 639 c 0,21,22
 176 639 176 639 161 647 c 128,-1,23
 146 655 146 655 133 665 c 128,-1,24
 120 675 120 675 103 683 c 128,-1,25
 86 691 86 691 61 691 c 0,26,27
 30 691 30 691 4.5 677 c 128,-1,28
 -21 663 -21 663 -37 642 c 128,-1,29
 -53 621 -53 621 -58 596 c 1,4,-1
EndSplineSet
EndChar

StartChar: imacron
Encoding: 299 299 215
Width: 276
GlyphClass: 2
Flags: W
LayerCount: 2
Fore
SplineSet
65 460 m 1,0,-1
 65 0 l 1,1,-1
 211 0 l 1,2,-1
 211 460 l 1,3,-1
 65 460 l 1,0,-1
-48 531 m 1,4,-1
 324 531 l 1,5,-1
 324 662 l 1,6,-1
 -48 662 l 1,7,-1
 -48 531 l 1,4,-1
EndSplineSet
EndChar

StartChar: ibreve
Encoding: 301 301 216
Width: 276
GlyphClass: 2
Flags: W
LayerCount: 2
Fore
SplineSet
65 460 m 1,0,-1
 65 0 l 1,1,-1
 211 0 l 1,2,-1
 211 460 l 1,3,-1
 65 460 l 1,0,-1
-27 677 m 1,4,5
 -27 637 -27 637 -8 603.5 c 128,-1,6
 11 570 11 570 48 550.5 c 128,-1,7
 85 531 85 531 137 531 c 0,8,9
 190 531 190 531 227 550.5 c 128,-1,10
 264 570 264 570 283 603.5 c 128,-1,11
 302 637 302 637 302 677 c 1,12,-1
 203 677 l 1,13,14
 203 659 203 659 194.5 646 c 128,-1,15
 186 633 186 633 171.5 625 c 128,-1,16
 157 617 157 617 137 617 c 0,17,18
 118 617 118 617 103.5 625 c 128,-1,19
 89 633 89 633 80.5 646 c 128,-1,20
 72 659 72 659 72 677 c 1,21,-1
 -27 677 l 1,4,5
EndSplineSet
EndChar

StartChar: iogonek
Encoding: 303 303 217
Width: 276
GlyphClass: 2
Flags: W
LayerCount: 2
Fore
SplineSet
50 633 m 256,0,1
 50 597 50 597 76 574 c 128,-1,2
 102 551 102 551 138 551 c 0,3,4
 175 551 175 551 200.5 574 c 128,-1,5
 226 597 226 597 226 633 c 256,6,7
 226 669 226 669 200.5 691.5 c 128,-1,8
 175 714 175 714 138 714 c 0,9,10
 102 714 102 714 76 691.5 c 128,-1,11
 50 669 50 669 50 633 c 256,0,1
65 460 m 1,12,-1
 65 0 l 1,13,-1
 211 0 l 1,14,-1
 211 460 l 1,15,-1
 65 460 l 1,12,-1
191 -111 m 1,16,17
 181 -121 181 -121 168.5 -126 c 128,-1,18
 156 -131 156 -131 141 -131 c 0,19,20
 124 -131 124 -131 115 -121.5 c 128,-1,21
 106 -112 106 -112 106 -94 c 0,22,23
 106 -78 106 -78 115 -62 c 128,-1,24
 124 -46 124 -46 142 -30 c 128,-1,25
 160 -14 160 -14 186 0 c 1,26,-1
 145 25 l 1,27,28
 110 7 110 7 78.5 -14.5 c 128,-1,29
 47 -36 47 -36 27 -61.5 c 128,-1,30
 7 -87 7 -87 7 -120 c 0,31,32
 7 -152 7 -152 22.5 -174.5 c 128,-1,33
 38 -197 38 -197 64.5 -208.5 c 128,-1,34
 91 -220 91 -220 124 -220 c 0,35,36
 165 -220 165 -220 189 -207.5 c 128,-1,37
 213 -195 213 -195 224 -180 c 1,38,-1
 191 -111 l 1,16,17
EndSplineSet
EndChar

StartChar: j
Encoding: 106 106 218
Width: 272
GlyphClass: 2
Flags: W
LayerCount: 2
Fore
SplineSet
45 633 m 256,0,1
 45 597 45 597 70.5 574 c 128,-1,2
 96 551 96 551 133 551 c 0,3,4
 169 551 169 551 194.5 574 c 128,-1,5
 220 597 220 597 220 633 c 256,6,7
 220 669 220 669 194.5 691.5 c 128,-1,8
 169 714 169 714 133 714 c 0,9,10
 96 714 96 714 70.5 691.5 c 128,-1,11
 45 669 45 669 45 633 c 256,0,1
-33 -77 m 1,12,-1
 -94 -188 l 1,13,14
 -82 -199 -82 -199 -65.5 -211 c 128,-1,15
 -49 -223 -49 -223 -24.5 -231 c 128,-1,16
 0 -239 0 -239 33 -239 c 0,17,18
 91 -239 91 -239 129.5 -218 c 128,-1,19
 168 -197 168 -197 187.5 -159.5 c 128,-1,20
 207 -122 207 -122 207 -72 c 2,21,-1
 207 460 l 1,22,-1
 61 460 l 1,23,-1
 61 -34 l 2,24,25
 61 -58 61 -58 56 -73 c 128,-1,26
 51 -88 51 -88 40 -95.5 c 128,-1,27
 29 -103 29 -103 13 -103 c 0,28,29
 -1 -103 -1 -103 -12.5 -96 c 128,-1,30
 -24 -89 -24 -89 -33 -77 c 1,12,-1
EndSplineSet
EndChar

StartChar: jcircumflex
Encoding: 309 309 219
Width: 272
GlyphClass: 2
Flags: W
LayerCount: 2
Fore
SplineSet
-33 -77 m 1,0,-1
 -94 -188 l 1,1,2
 -83 -198 -83 -198 -66.5 -210 c 128,-1,3
 -50 -222 -50 -222 -25 -230.5 c 128,-1,4
 0 -239 0 -239 33 -239 c 0,5,6
 91 -239 91 -239 129.5 -218.5 c 128,-1,7
 168 -198 168 -198 187.5 -160.5 c 128,-1,8
 207 -123 207 -123 207 -72 c 2,9,-1
 207 460 l 1,10,-1
 61 460 l 1,11,-1
 61 -34 l 2,12,13
 61 -58 61 -58 55.5 -73 c 128,-1,14
 50 -88 50 -88 39 -95.5 c 128,-1,15
 28 -103 28 -103 13 -103 c 0,16,17
 0 -103 0 -103 -11.5 -97 c 128,-1,18
 -23 -91 -23 -91 -33 -77 c 1,0,-1
134 616 m 1,19,-1
 225 531 l 1,20,-1
 331 602 l 1,21,-1
 134 742 l 1,22,-1
 -64 602 l 1,23,-1
 42 531 l 1,24,-1
 134 616 l 1,19,-1
EndSplineSet
EndChar

StartChar: k
Encoding: 107 107 220
Width: 577
GlyphClass: 2
Flags: W
LayerCount: 2
Fore
SplineSet
58 780 m 1,0,-1
 58 0 l 1,1,-1
 203 0 l 1,2,-1
 203 780 l 1,3,-1
 58 780 l 1,0,-1
370 460 m 1,4,-1
 173 270 l 1,5,-1
 393 0 l 1,6,-1
 570 0 l 1,7,-1
 354 270 l 1,8,-1
 550 460 l 1,9,-1
 370 460 l 1,4,-1
EndSplineSet
EndChar

StartChar: uni0137
Encoding: 311 311 221
Width: 577
GlyphClass: 2
Flags: W
LayerCount: 2
Fore
SplineSet
58 780 m 1,0,-1
 58 0 l 1,1,-1
 203 0 l 1,2,-1
 203 780 l 1,3,-1
 58 780 l 1,0,-1
370 460 m 1,4,-1
 173 270 l 1,5,-1
 393 0 l 1,6,-1
 570 0 l 1,7,-1
 354 270 l 1,8,-1
 550 460 l 1,9,-1
 370 460 l 1,4,-1
257 -60 m 1,10,-1
 169 -319 l 1,11,-1
 283 -342 l 1,12,-1
 409 -92 l 1,13,-1
 257 -60 l 1,10,-1
EndSplineSet
EndChar

StartChar: l
Encoding: 108 108 222
Width: 270
GlyphClass: 2
Flags: W
LayerCount: 2
Fore
SplineSet
59 780 m 1,0,-1
 59 0 l 1,1,-1
 211 0 l 1,2,-1
 211 780 l 1,3,-1
 59 780 l 1,0,-1
EndSplineSet
EndChar

StartChar: lacute
Encoding: 314 314 223
Width: 270
GlyphClass: 2
Flags: W
LayerCount: 2
Fore
SplineSet
59 780 m 1,0,-1
 59 0 l 1,1,-1
 211 0 l 1,2,-1
 211 780 l 1,3,-1
 59 780 l 1,0,-1
297 990 m 1,4,-1
 181 1042 l 1,5,-1
 31 882 l 1,6,-1
 117 840 l 1,7,-1
 297 990 l 1,4,-1
EndSplineSet
EndChar

StartChar: uni013C
Encoding: 316 316 224
Width: 270
GlyphClass: 2
Flags: W
LayerCount: 2
Fore
SplineSet
59 780 m 1,0,-1
 59 0 l 1,1,-1
 211 0 l 1,2,-1
 211 780 l 1,3,-1
 59 780 l 1,0,-1
103 -60 m 1,4,-1
 15 -319 l 1,5,-1
 129 -342 l 1,6,-1
 255 -92 l 1,7,-1
 103 -60 l 1,4,-1
EndSplineSet
EndChar

StartChar: lcaron
Encoding: 318 318 225
Width: 270
GlyphClass: 2
Flags: W
LayerCount: 2
Fore
SplineSet
59 780 m 1,0,-1
 59 0 l 1,1,-1
 211 0 l 1,2,-1
 211 780 l 1,3,-1
 59 780 l 1,0,-1
349 780 m 1,4,-1
 261 521 l 1,5,-1
 375 498 l 1,6,-1
 500 748 l 1,7,-1
 349 780 l 1,4,-1
EndSplineSet
EndChar

StartChar: m
Encoding: 109 109 226
Width: 820
GlyphClass: 2
Flags: W
LayerCount: 2
Fore
SplineSet
761 296 m 2,0,1
 761 352 761 352 747 391 c 128,-1,2
 733 430 733 430 701.5 450.5 c 128,-1,3
 670 471 670 471 616 471 c 0,4,5
 569 471 569 471 532 451 c 128,-1,6
 495 431 495 431 470 395 c 1,7,8
 456 432 456 432 424 451.5 c 128,-1,9
 392 471 392 471 338 471 c 0,10,11
 291 471 291 471 257.5 450 c 128,-1,12
 224 429 224 429 205 392 c 1,13,-1
 205 460 l 1,14,-1
 59 460 l 1,15,-1
 59 0 l 1,16,-1
 205 0 l 1,17,-1
 205 280 l 2,18,19
 205 308 205 308 213.5 327 c 128,-1,20
 222 346 222 346 237.5 355.5 c 128,-1,21
 253 365 253 365 273 365 c 0,22,23
 304 365 304 365 317.5 343.5 c 128,-1,24
 331 322 331 322 331 280 c 2,25,-1
 331 0 l 1,26,-1
 483 0 l 1,27,-1
 483 280 l 2,28,29
 483 308 483 308 491.5 327 c 128,-1,30
 500 346 500 346 515.5 355.5 c 128,-1,31
 531 365 531 365 551 365 c 0,32,33
 582 365 582 365 595.5 343.5 c 128,-1,34
 609 322 609 322 609 280 c 2,35,-1
 609 0 l 1,36,-1
 761 0 l 1,37,-1
 761 296 l 2,0,1
EndSplineSet
EndChar

StartChar: n
Encoding: 110 110 227
Width: 575
GlyphClass: 2
Flags: W
LayerCount: 2
Fore
SplineSet
358 280 m 2,0,-1
 358 0 l 1,1,-1
 515 0 l 1,2,-1
 515 296 l 2,3,4
 515 379 515 379 476 425 c 128,-1,5
 437 471 437 471 351 471 c 0,6,7
 300 471 300 471 265.5 450 c 128,-1,8
 231 429 231 429 211 391 c 1,9,-1
 211 460 l 1,10,-1
 59 460 l 1,11,-1
 59 0 l 1,12,-1
 211 0 l 1,13,-1
 211 280 l 2,14,15
 211 307 211 307 221 326 c 128,-1,16
 231 345 231 345 249 355 c 128,-1,17
 267 365 267 365 291 365 c 0,18,19
 327 365 327 365 342.5 343 c 128,-1,20
 358 321 358 321 358 280 c 2,0,-1
EndSplineSet
EndChar

StartChar: ntilde
Encoding: 241 241 228
Width: 575
GlyphClass: 2
Flags: W
LayerCount: 2
Fore
SplineSet
211 460 m 1,0,-1
 59 460 l 1,1,-1
 59 0 l 1,2,-1
 211 0 l 1,3,-1
 211 460 l 1,0,-1
358 280 m 2,4,-1
 358 0 l 1,5,-1
 515 0 l 1,6,-1
 515 296 l 2,7,8
 515 381 515 381 475.5 426 c 128,-1,9
 436 471 436 471 351 471 c 0,10,11
 294 471 294 471 256.5 444.5 c 128,-1,12
 219 418 219 418 200 373.5 c 128,-1,13
 181 329 181 329 181 274 c 1,14,-1
 211 280 l 1,15,16
 211 307 211 307 221 325.5 c 128,-1,17
 231 344 231 344 249 354.5 c 128,-1,18
 267 365 267 365 291 365 c 0,19,20
 328 365 328 365 343 343 c 128,-1,21
 358 321 358 321 358 280 c 2,4,-1
92 596 m 1,22,-1
 163 534 l 1,23,24
 163 542 163 542 167 554 c 128,-1,25
 171 566 171 566 181.5 575.5 c 128,-1,26
 192 585 192 585 210 585 c 0,27,28
 235 585 235 585 256.5 572 c 128,-1,29
 278 559 278 559 300 545.5 c 128,-1,30
 322 532 322 532 349 532 c 0,31,32
 381 532 381 532 408.5 545.5 c 128,-1,33
 436 559 436 559 456 579.5 c 128,-1,34
 476 600 476 600 484 618 c 1,35,-1
 413 692 l 1,36,37
 398 668 398 668 382 653.5 c 128,-1,38
 366 639 366 639 347 639 c 0,39,40
 326 639 326 639 311 647 c 128,-1,41
 296 655 296 655 282.5 665 c 128,-1,42
 269 675 269 675 252 683 c 128,-1,43
 235 691 235 691 211 691 c 0,44,45
 179 691 179 691 154 677 c 128,-1,46
 129 663 129 663 113 642 c 128,-1,47
 97 621 97 621 92 596 c 1,22,-1
EndSplineSet
EndChar

StartChar: nacute
Encoding: 324 324 229
Width: 575
GlyphClass: 2
Flags: W
LayerCount: 2
Fore
SplineSet
211 460 m 1,0,-1
 59 460 l 1,1,-1
 59 0 l 1,2,-1
 211 0 l 1,3,-1
 211 460 l 1,0,-1
358 280 m 2,4,-1
 358 0 l 1,5,-1
 515 0 l 1,6,-1
 515 296 l 2,7,8
 515 381 515 381 475.5 426 c 128,-1,9
 436 471 436 471 351 471 c 0,10,11
 294 471 294 471 257.5 444.5 c 128,-1,12
 221 418 221 418 203 373.5 c 128,-1,13
 185 329 185 329 185 274 c 1,14,-1
 211 280 l 1,15,16
 211 307 211 307 221 325.5 c 128,-1,17
 231 344 231 344 249 354.5 c 128,-1,18
 267 365 267 365 291 365 c 0,19,20
 328 365 328 365 343 343 c 128,-1,21
 358 321 358 321 358 280 c 2,4,-1
452 681 m 1,22,-1
 337 733 l 1,23,-1
 187 573 l 1,24,-1
 272 531 l 1,25,-1
 452 681 l 1,22,-1
EndSplineSet
EndChar

StartChar: uni0146
Encoding: 326 326 230
Width: 575
GlyphClass: 2
Flags: W
LayerCount: 2
Fore
SplineSet
211 460 m 1,0,-1
 59 460 l 1,1,-1
 59 0 l 1,2,-1
 211 0 l 1,3,-1
 211 460 l 1,0,-1
358 280 m 2,4,-1
 358 0 l 1,5,-1
 515 0 l 1,6,-1
 515 296 l 2,7,8
 515 381 515 381 475.5 426 c 128,-1,9
 436 471 436 471 351 471 c 0,10,11
 294 471 294 471 256.5 444.5 c 128,-1,12
 219 418 219 418 200 373.5 c 128,-1,13
 181 329 181 329 181 274 c 1,14,-1
 211 280 l 1,15,16
 211 307 211 307 221 325.5 c 128,-1,17
 231 344 231 344 249 354.5 c 128,-1,18
 267 365 267 365 291 365 c 0,19,20
 328 365 328 365 343 343 c 128,-1,21
 358 321 358 321 358 280 c 2,4,-1
255 -60 m 1,22,-1
 167 -319 l 1,23,-1
 281 -342 l 1,24,-1
 407 -92 l 1,25,-1
 255 -60 l 1,22,-1
EndSplineSet
EndChar

StartChar: ncaron
Encoding: 328 328 231
Width: 575
GlyphClass: 2
Flags: W
LayerCount: 2
Fore
SplineSet
211 460 m 1,0,-1
 59 460 l 1,1,-1
 59 0 l 1,2,-1
 211 0 l 1,3,-1
 211 460 l 1,0,-1
358 280 m 2,4,-1
 358 0 l 1,5,-1
 515 0 l 1,6,-1
 515 296 l 2,7,8
 515 381 515 381 475.5 426 c 128,-1,9
 436 471 436 471 351 471 c 0,10,11
 294 471 294 471 256.5 444.5 c 128,-1,12
 219 418 219 418 200 373.5 c 128,-1,13
 181 329 181 329 181 274 c 1,14,-1
 211 280 l 1,15,16
 211 307 211 307 221 325.5 c 128,-1,17
 231 344 231 344 249 354.5 c 128,-1,18
 267 365 267 365 291 365 c 0,19,20
 328 365 328 365 343 343 c 128,-1,21
 358 321 358 321 358 280 c 2,4,-1
287 656 m 1,22,-1
 195 742 l 1,23,-1
 90 671 l 1,24,-1
 287 531 l 1,25,-1
 484 671 l 1,26,-1
 378 742 l 1,27,-1
 287 656 l 1,22,-1
EndSplineSet
EndChar

StartChar: o
Encoding: 111 111 232
Width: 589
GlyphClass: 2
Flags: W
LayerCount: 2
Fore
SplineSet
32 230 m 0,0,1
 32 158 32 158 66 104 c 128,-1,2
 100 50 100 50 160 20 c 128,-1,3
 220 -10 220 -10 295 -10 c 256,4,5
 370 -10 370 -10 429.5 20 c 128,-1,6
 489 50 489 50 523.5 104 c 128,-1,7
 558 158 558 158 558 230 c 0,8,9
 558 303 558 303 523.5 357 c 128,-1,10
 489 411 489 411 429.5 441 c 128,-1,11
 370 471 370 471 295 471 c 256,12,13
 220 471 220 471 160 441 c 128,-1,14
 100 411 100 411 66 357 c 128,-1,15
 32 303 32 303 32 230 c 0,0,1
187 230 m 256,16,17
 187 266 187 266 202 292 c 128,-1,18
 217 318 217 318 241 332 c 128,-1,19
 265 346 265 346 295 346 c 0,20,21
 324 346 324 346 348.5 332 c 128,-1,22
 373 318 373 318 387.5 292 c 128,-1,23
 402 266 402 266 402 230 c 256,24,25
 402 194 402 194 387.5 168.5 c 128,-1,26
 373 143 373 143 348.5 129 c 128,-1,27
 324 115 324 115 295 115 c 0,28,29
 265 115 265 115 241 129 c 128,-1,30
 217 143 217 143 202 168.5 c 128,-1,31
 187 194 187 194 187 230 c 256,16,17
EndSplineSet
EndChar

StartChar: ograve
Encoding: 242 242 233
Width: 589
GlyphClass: 2
Flags: W
LayerCount: 2
Fore
SplineSet
32 230 m 0,0,1
 32 158 32 158 66 104 c 128,-1,2
 100 50 100 50 160 20 c 128,-1,3
 220 -10 220 -10 295 -10 c 256,4,5
 370 -10 370 -10 429.5 20 c 128,-1,6
 489 50 489 50 523.5 104 c 128,-1,7
 558 158 558 158 558 230 c 0,8,9
 558 303 558 303 523.5 357 c 128,-1,10
 489 411 489 411 429.5 441 c 128,-1,11
 370 471 370 471 295 471 c 256,12,13
 220 471 220 471 160 441 c 128,-1,14
 100 411 100 411 66 357 c 128,-1,15
 32 303 32 303 32 230 c 0,0,1
187 230 m 256,16,17
 187 266 187 266 202 292 c 128,-1,18
 217 318 217 318 241 332 c 128,-1,19
 265 346 265 346 295 346 c 0,20,21
 324 346 324 346 348.5 332 c 128,-1,22
 373 318 373 318 387.5 292 c 128,-1,23
 402 266 402 266 402 230 c 256,24,25
 402 194 402 194 387.5 168.5 c 128,-1,26
 373 143 373 143 348.5 129 c 128,-1,27
 324 115 324 115 295 115 c 0,28,29
 265 115 265 115 241 129 c 128,-1,30
 217 143 217 143 202 168.5 c 128,-1,31
 187 194 187 194 187 230 c 256,16,17
135 688 m 1,32,-1
 315 538 l 1,33,-1
 400 581 l 1,34,-1
 250 741 l 1,35,-1
 135 688 l 1,32,-1
EndSplineSet
EndChar

